# MagicaVoxel @ Ephtracy

# group
o 

# material
mtllib rock_solid.mtl
usemtl palette

# normals
vn -1 0 0
vn 1 0 0
vn 0 0 1
vn 0 0 -1
vn 0 -1 0
vn 0 1 0

# texcoords
vt 0.978516 0.5
vt 0.982422 0.5

# verts
v -0.6 0 0.6
v -0.6 0 -0.6
v -0.6 0.3 0.4
v -0.6 0.3 -0.2
v -0.6 0.4 0.6
v -0.6 0.4 0.5
v -0.6 0.5 0.6
v -0.6 0.5 0.5
v -0.6 0.5 0.4
v -0.6 0.6 0.5
v -0.6 0.6 0.4
v -0.6 0.6 0.3
v -0.6 0.6 -0.1
v -0.6 0.6 -0.2
v -0.6 0.7 0.4
v -0.6 0.7 0.3
v -0.6 0.7 -0.1
v -0.6 0.7 -0.2
v -0.6 0.9 0.4
v -0.6 0.9 0.2
v -0.6 1 0.4
v -0.6 1 0.2
v -0.6 1 -0.2
v -0.6 1 -0.6
v -0.5 0.3 0.4
v -0.5 0.3 -0.2
v -0.5 0.4 0.4
v -0.5 0.4 -0.1
v -0.5 0.5 0.4
v -0.5 0.5 -0.1
v -0.5 0.5 -0.2
v -0.5 0.6 0.4
v -0.5 0.6 0.3
v -0.5 0.6 5.96046e-08
v -0.5 0.6 -0.1
v -0.5 0.6 -0.2
v -0.5 0.7 0.4
v -0.5 0.7 0.3
v -0.5 0.7 0.2
v -0.5 0.7 5.96046e-08
v -0.5 0.7 -0.1
v -0.5 0.7 -0.2
v -0.5 0.8 0.1
v -0.5 0.8 5.96046e-08
v -0.5 0.9 0.4
v -0.5 0.9 0.2
v -0.5 0.9 0.1
v -0.5 0.9 5.96046e-08
v -0.5 0.9 -0.2
v -0.5 1 0.2
v -0.5 1 5.96046e-08
v -0.4 0.3 0.6
v -0.4 0.3 0.5
v -0.4 0.4 0.6
v -0.4 0.4 0.5
v -0.4 0.5 0.6
v -0.4 0.5 0.5
v -0.4 0.6 0.5
v -0.4 0.6 0.4
v -0.4 0.7 0.5
v -0.4 0.7 0.4
v -0.4 0.7 0.2
v -0.4 0.7 5.96046e-08
v -0.4 0.8 0.1
v -0.4 0.8 5.96046e-08
v -0.4 0.9 0.2
v -0.4 0.9 0.1
v -0.4 0.9 5.96046e-08
v -0.4 0.9 -0.2
v -0.4 1 5.96046e-08
v -0.4 1 -0.2
v -0.3 0.7 0.4
v -0.3 0.7 0.3
v -0.3 0.9 0.4
v -0.3 0.9 0.3
v -0.2 0.8 0.5
v -0.2 0.8 0.4
v -0.2 0.9 0.5
v -0.2 0.9 0.4
v -0.2 1 0.1
v -0.2 1 -0.2
v -0.2 1.1 0.1
v -0.2 1.1 -0.2
v -0.1 0.2 0.6
v -0.1 0.2 0.5
v -0.1 0.4 0.6
v -0.1 0.4 0.5
v -5.96046e-08 0.4 0.6
v -5.96046e-08 0.4 0.5
v -5.96046e-08 0.5 0.6
v -5.96046e-08 0.5 0.5
v -5.96046e-08 0.7 0.5
v -5.96046e-08 0.7 0.4
v -5.96046e-08 0.8 0.5
v -5.96046e-08 0.8 0.4
v 0.2 0.9 0.3
v 0.2 0.9 -0.2
v 0.2 1 0.3
v 0.2 1 -0.2
v 0.3 0 0.6
v 0.3 0 0.5
v 0.3 0.5 0.6
v 0.3 0.5 0.5
v 0.3 0.6 0.6
v 0.3 0.6 0.5
v 0.3 0.7 0.5
v 0.3 0.7 0.4
v 0.3 0.8 0.5
v 0.3 0.8 0.4
v 0.4 0.8 0.4
v 0.4 0.8 0.3
v 0.4 0.9 0.4
v 0.4 0.9 0.3
v 0.4 0.9 0.2
v 0.4 0.9 5.96046e-08
v 0.4 1 0.2
v 0.4 1 5.96046e-08
v -0.5 0.3 0.6
v -0.5 0.3 0.5
v -0.5 0.4 0.6
v -0.5 0.4 0.5
v -0.5 0.5 0.6
v -0.5 0.5 0.5
v -0.4 0.7 0.4
v -0.4 0.7 0.3
v -0.4 1 0.4
v -0.4 1 0.3
v -0.3 0.2 0.6
v -0.3 0.2 0.5
v -0.3 0.4 0.6
v -0.3 0.4 0.5
v -0.3 0.5 0.6
v -0.3 0.5 0.5
v -5.96046e-08 0.9 0.2
v -5.96046e-08 0.9 0.1
v -5.96046e-08 1 0.2
v -5.96046e-08 1 0.1
v 0.1 0 0.6
v 0.1 0 0.5
v 0.1 0.5 0.6
v 0.1 0.5 0.5
v 0.1 0.7 0.5
v 0.1 0.7 0.4
v 0.1 0.8 0.5
v 0.1 0.8 0.4
v 0.1 0.9 0.3
v 0.1 0.9 0.2
v 0.1 0.9 0.1
v 0.1 0.9 -0.2
v 0.1 1 0.3
v 0.1 1 0.2
v 0.1 1 0.1
v 0.1 1 -0.1
v 0.1 1 -0.2
v 0.1 1.1 0.1
v 0.1 1.1 -0.1
v 0.1 1.1 -0.2
v 0.3 0.8 0.4
v 0.3 0.8 0.3
v 0.3 0.9 0.4
v 0.3 0.9 0.3
v 0.3 0.9 5.96046e-08
v 0.3 1 0.3
v 0.3 1 5.96046e-08
v 0.4 0.9 5.96046e-08
v 0.4 0.9 -0.1
v 0.4 1 5.96046e-08
v 0.4 1 -0.1
v 0.5 0 0.6
v 0.5 0 0.5
v 0.5 0.2 0.2
v 0.5 0.2 -0.2
v 0.5 0.4 0.3
v 0.5 0.4 0.2
v 0.5 0.5 0.6
v 0.5 0.5 0.5
v 0.5 0.5 0.1
v 0.5 0.5 -0.1
v 0.5 0.5 -0.2
v 0.5 0.5 -0.3
v 0.5 0.6 0.6
v 0.5 0.6 0.5
v 0.5 0.6 0.1
v 0.5 0.6 -0.1
v 0.5 0.6 -0.2
v 0.5 0.6 -0.3
v 0.5 0.7 0.4
v 0.5 0.7 0.3
v 0.5 0.7 0.1
v 0.5 0.7 -0.1
v 0.5 0.7 -0.2
v 0.5 0.8 0.5
v 0.5 0.8 0.4
v 0.5 0.8 5.96046e-08
v 0.5 0.8 -0.1
v 0.5 0.8 -0.2
v 0.5 0.9 0.5
v 0.5 0.9 0.2
v 0.5 0.9 5.96046e-08
v 0.5 0.9 -0.1
v 0.5 0.9 -0.2
v 0.5 1 0.2
v 0.5 1 5.96046e-08
v 0.5 1 -0.1
v 0.5 1 -0.2
v 0.6 0 0.5
v 0.6 0 -0.6
v 0.6 0.2 0.2
v 0.6 0.2 -0.2
v 0.6 0.4 0.3
v 0.6 0.4 0.2
v 0.6 0.5 0.1
v 0.6 0.5 -0.1
v 0.6 0.5 -0.2
v 0.6 0.5 -0.3
v 0.6 0.6 0.1
v 0.6 0.6 -0.1
v 0.6 0.6 -0.2
v 0.6 0.6 -0.3
v 0.6 0.7 0.4
v 0.6 0.7 0.3
v 0.6 0.7 0.1
v 0.6 0.7 -0.1
v 0.6 0.8 0.5
v 0.6 0.8 0.4
v 0.6 0.9 -0.2
v 0.6 0.9 -0.3
v 0.6 1 -0.2
v 0.6 1 -0.6
v -0.6 0 0.6
v -0.6 0.4 0.6
v -0.6 0.5 0.6
v -0.5 0.3 0.6
v -0.5 0.4 0.6
v -0.5 0.5 0.6
v -0.4 0.3 0.6
v -0.4 0.4 0.6
v -0.4 0.5 0.6
v -0.3 0.2 0.6
v -0.3 0.4 0.6
v -0.3 0.5 0.6
v -0.1 0.2 0.6
v -0.1 0.4 0.6
v -5.96046e-08 0.4 0.6
v -5.96046e-08 0.5 0.6
v 0.1 0 0.6
v 0.1 0.5 0.6
v 0.3 0 0.6
v 0.3 0.5 0.6
v 0.3 0.6 0.6
v 0.5 0 0.6
v 0.5 0.5 0.6
v 0.5 0.6 0.6
v -0.6 0.5 0.5
v -0.6 0.6 0.5
v -0.5 0.3 0.5
v -0.5 0.4 0.5
v -0.5 0.5 0.5
v -0.5 0.6 0.5
v -0.4 0.3 0.5
v -0.4 0.4 0.5
v -0.4 0.5 0.5
v -0.4 0.6 0.5
v -0.4 0.7 0.5
v -0.3 0.2 0.5
v -0.3 0.4 0.5
v -0.3 0.5 0.5
v -0.3 0.6 0.5
v -0.3 0.7 0.5
v -0.2 0.8 0.5
v -0.2 0.9 0.5
v -0.1 0.2 0.5
v -0.1 0.4 0.5
v -5.96046e-08 0.4 0.5
v -5.96046e-08 0.5 0.5
v -5.96046e-08 0.7 0.5
v -5.96046e-08 0.8 0.5
v -5.96046e-08 0.9 0.5
v 0.1 0 0.5
v 0.1 0.5 0.5
v 0.1 0.7 0.5
v 0.1 0.8 0.5
v 0.2 0.8 0.5
v 0.2 0.9 0.5
v 0.3 0 0.5
v 0.3 0.5 0.5
v 0.3 0.6 0.5
v 0.3 0.7 0.5
v 0.3 0.8 0.5
v 0.4 0.6 0.5
v 0.4 0.8 0.5
v 0.5 0 0.5
v 0.5 0.5 0.5
v 0.5 0.6 0.5
v 0.5 0.8 0.5
v 0.5 0.9 0.5
v 0.6 0 0.5
v 0.6 0.8 0.5
v -0.6 0.6 0.4
v -0.6 0.7 0.4
v -0.6 0.9 0.4
v -0.6 1 0.4
v -0.5 0.6 0.4
v -0.5 0.7 0.4
v -0.5 0.9 0.4
v -0.4 0.6 0.4
v -0.4 0.7 0.4
v -0.4 1 0.4
v -0.3 0.7 0.4
v -0.3 0.9 0.4
v -0.2 0.8 0.4
v -0.2 0.9 0.4
v -5.96046e-08 0.7 0.4
v -5.96046e-08 0.8 0.4
v 0.1 0.7 0.4
v 0.1 0.8 0.4
v 0.2 0.8 0.4
v 0.3 0.7 0.4
v 0.3 0.8 0.4
v -0.4 0.7 0.3
v -0.4 1 0.3
v -0.3 0.7 0.3
v -0.3 0.9 0.3
v -5.96046e-08 0.9 0.3
v -5.96046e-08 1 0.3
v 0.1 0.9 0.3
v 0.1 1 0.3
v 0.2 0.9 0.3
v 0.2 1 0.3
v 0.3 0.8 0.3
v 0.3 0.9 0.3
v 0.3 1 0.3
v 0.4 0.8 0.3
v 0.4 0.9 0.3
v 0.4 0.9 0.2
v 0.4 1 0.2
v 0.5 0.9 0.2
v 0.5 1 0.2
v -0.5 0.8 0.1
v -0.5 0.9 0.1
v -0.4 0.8 0.1
v -0.4 0.9 0.1
v -0.2 1 0.1
v -0.2 1.1 0.1
v -5.96046e-08 0.9 0.1
v -5.96046e-08 1 0.1
v 0.1 0.9 0.1
v 0.1 1 0.1
v 0.1 1.1 0.1
v 0.5 0.5 0.1
v 0.5 0.6 0.1
v 0.5 0.7 0.1
v 0.6 0.5 0.1
v 0.6 0.6 0.1
v 0.6 0.7 0.1
v -0.5 0.7 5.96046e-08
v -0.5 0.8 5.96046e-08
v -0.4 0.7 5.96046e-08
v -0.4 0.8 5.96046e-08
v 0.3 0.9 5.96046e-08
v 0.3 1 5.96046e-08
v 0.4 0.9 5.96046e-08
v 0.4 1 5.96046e-08
v -0.6 0.6 -0.1
v -0.6 0.7 -0.1
v -0.5 0.6 -0.1
v -0.5 0.7 -0.1
v 0.4 0.9 -0.1
v 0.4 1 -0.1
v 0.5 0.9 -0.1
v 0.5 1 -0.1
v -0.6 0.3 -0.2
v -0.6 0.6 -0.2
v -0.6 0.7 -0.2
v -0.6 1 -0.2
v -0.5 0.3 -0.2
v -0.5 0.5 -0.2
v -0.5 0.6 -0.2
v -0.5 0.7 -0.2
v -0.5 0.9 -0.2
v -0.4 0.9 -0.2
v -0.4 1 -0.2
v 0.1 0.9 -0.2
v 0.1 1 -0.2
v 0.2 0.9 -0.2
v 0.2 1 -0.2
v 0.5 0.2 -0.2
v 0.5 0.5 -0.2
v 0.5 0.6 -0.2
v 0.5 0.7 -0.2
v 0.5 0.8 -0.2
v 0.5 0.9 -0.2
v 0.5 1 -0.2
v 0.6 0.2 -0.2
v 0.6 0.5 -0.2
v 0.6 0.6 -0.2
v 0.6 0.9 -0.2
v 0.6 1 -0.2
v 0.5 0.5 -0.3
v 0.5 0.6 -0.3
v 0.6 0.5 -0.3
v 0.6 0.6 -0.3
v -0.6 0.3 0.4
v -0.6 0.5 0.4
v -0.6 0.6 0.4
v -0.5 0.3 0.4
v -0.5 0.4 0.4
v -0.5 0.5 0.4
v -0.5 0.6 0.4
v 0.3 0.8 0.4
v 0.3 0.9 0.4
v 0.4 0.8 0.4
v 0.4 0.9 0.4
v 0.5 0.7 0.4
v 0.5 0.8 0.4
v 0.6 0.7 0.4
v 0.6 0.8 0.4
v -0.6 0.6 0.3
v -0.6 0.7 0.3
v -0.5 0.6 0.3
v -0.5 0.7 0.3
v 0.5 0.4 0.3
v 0.5 0.7 0.3
v 0.6 0.4 0.3
v 0.6 0.7 0.3
v -0.6 0.9 0.2
v -0.6 1 0.2
v -0.5 0.7 0.2
v -0.5 0.9 0.2
v -0.5 1 0.2
v -0.4 0.7 0.2
v -0.4 0.9 0.2
v -5.96046e-08 0.9 0.2
v -5.96046e-08 1 0.2
v 0.1 0.9 0.2
v 0.1 1 0.2
v 0.5 0.2 0.2
v 0.5 0.4 0.2
v 0.6 0.2 0.2
v 0.6 0.4 0.2
v -0.5 0.9 5.96046e-08
v -0.5 1 5.96046e-08
v -0.4 0.9 5.96046e-08
v -0.4 1 5.96046e-08
v 0.4 0.9 5.96046e-08
v 0.4 1 5.96046e-08
v 0.5 0.9 5.96046e-08
v 0.5 1 5.96046e-08
v 0.5 0.5 -0.1
v 0.5 0.6 -0.1
v 0.5 0.7 -0.1
v 0.6 0.5 -0.1
v 0.6 0.6 -0.1
v 0.6 0.7 -0.1
v -0.2 1 -0.2
v -0.2 1.1 -0.2
v -5.96046e-08 1 -0.2
v -5.96046e-08 1.1 -0.2
v 0.1 1 -0.2
v 0.1 1.1 -0.2
v -0.6 0 -0.6
v -0.6 1 -0.6
v -0.4 0.3 -0.6
v -0.4 0.5 -0.6
v -0.4 0.6 -0.6
v -0.4 0.7 -0.6
v -0.2 0.5 -0.6
v -0.2 0.6 -0.6
v -0.1 0.2 -0.6
v -0.1 0.3 -0.6
v -0.1 0.6 -0.6
v -0.1 0.7 -0.6
v -5.96046e-08 0.6 -0.6
v -5.96046e-08 0.7 -0.6
v 0.1 0.7 -0.6
v 0.1 0.8 -0.6
v 0.2 0.6 -0.6
v 0.2 0.7 -0.6
v 0.3 0.2 -0.6
v 0.3 0.3 -0.6
v 0.3 0.4 -0.6
v 0.3 0.6 -0.6
v 0.3 0.8 -0.6
v 0.3 1 -0.6
v 0.4 0.3 -0.6
v 0.4 0.4 -0.6
v 0.4 0.9 -0.6
v 0.4 1 -0.6
v 0.5 0.7 -0.6
v 0.5 0.9 -0.6
v 0.6 0 -0.6
v 0.6 1 -0.6
v -0.6 0 0.6
v 0.1 0 0.6
v 0.3 0 0.6
v 0.5 0 0.6
v 0.1 0 0.5
v 0.3 0 0.5
v 0.5 0 0.5
v 0.6 0 0.5
v -0.6 0 -0.6
v 0.6 0 -0.6
v 0.5 0.5 0.1
v 0.6 0.5 0.1
v 0.5 0.5 -0.1
v 0.6 0.5 -0.1
v -0.6 0.6 0.4
v -0.5 0.6 0.4
v -0.6 0.6 0.3
v -0.5 0.6 0.3
v -0.6 0.6 -0.1
v -0.5 0.6 -0.1
v -0.6 0.6 -0.2
v -0.5 0.6 -0.2
v 0.5 0.6 -0.2
v 0.6 0.6 -0.2
v 0.5 0.6 -0.3
v 0.6 0.6 -0.3
v -0.2 0.8 0.5
v -5.96046e-08 0.8 0.5
v 0.1 0.8 0.5
v 0.2 0.8 0.5
v 0.3 0.8 0.5
v -0.2 0.8 0.4
v -5.96046e-08 0.8 0.4
v 0.1 0.8 0.4
v 0.2 0.8 0.4
v 0.3 0.8 0.4
v -0.5 0.8 0.1
v -0.4 0.8 0.1
v -0.5 0.8 5.96046e-08
v -0.4 0.8 5.96046e-08
v -0.6 0.9 0.4
v -0.5 0.9 0.4
v -0.6 0.9 0.2
v -0.5 0.9 0.2
v -0.4 0.9 0.2
v -0.5 0.9 0.1
v -0.4 0.9 0.1
v -0.3 0.2 0.6
v -0.1 0.2 0.6
v -0.3 0.2 0.5
v -0.1 0.2 0.5
v 0.5 0.2 0.2
v 0.6 0.2 0.2
v 0.5 0.2 -0.2
v 0.6 0.2 -0.2
v -0.5 0.3 0.6
v -0.4 0.3 0.6
v -0.5 0.3 0.5
v -0.4 0.3 0.5
v -0.6 0.3 0.4
v -0.5 0.3 0.4
v -0.6 0.3 -0.2
v -0.5 0.3 -0.2
v -0.1 0.4 0.6
v -5.96046e-08 0.4 0.6
v -0.1 0.4 0.5
v -5.96046e-08 0.4 0.5
v 0.5 0.4 0.3
v 0.6 0.4 0.3
v 0.5 0.4 0.2
v 0.6 0.4 0.2
v -0.6 0.5 0.6
v -0.5 0.5 0.6
v -0.4 0.5 0.6
v -0.3 0.5 0.6
v -5.96046e-08 0.5 0.6
v 0.1 0.5 0.6
v -0.6 0.5 0.5
v -0.5 0.5 0.5
v -0.4 0.5 0.5
v -0.3 0.5 0.5
v -5.96046e-08 0.5 0.5
v 0.1 0.5 0.5
v 0.5 0.5 -0.2
v 0.6 0.5 -0.2
v 0.5 0.5 -0.3
v 0.6 0.5 -0.3
v 0.3 0.6 0.6
v 0.5 0.6 0.6
v -0.6 0.6 0.5
v -0.5 0.6 0.5
v -0.4 0.6 0.5
v 0.3 0.6 0.5
v 0.4 0.6 0.5
v 0.5 0.6 0.5
v -0.6 0.6 0.4
v -0.5 0.6 0.4
v -0.4 0.6 0.4
v -0.4 0.7 0.5
v -0.3 0.7 0.5
v -5.96046e-08 0.7 0.5
v 0.1 0.7 0.5
v 0.3 0.7 0.5
v -0.6 0.7 0.4
v -0.5 0.7 0.4
v -0.4 0.7 0.4
v -0.3 0.7 0.4
v -5.96046e-08 0.7 0.4
v 0.1 0.7 0.4
v 0.3 0.7 0.4
v 0.5 0.7 0.4
v 0.6 0.7 0.4
v -0.6 0.7 0.3
v -0.5 0.7 0.3
v -0.4 0.7 0.3
v -0.3 0.7 0.3
v 0.5 0.7 0.3
v 0.6 0.7 0.3
v -0.5 0.7 0.2
v -0.4 0.7 0.2
v 0.5 0.7 0.1
v 0.6 0.7 0.1
v -0.5 0.7 5.96046e-08
v -0.4 0.7 5.96046e-08
v -0.6 0.7 -0.1
v -0.5 0.7 -0.1
v 0.5 0.7 -0.1
v 0.6 0.7 -0.1
v -0.6 0.7 -0.2
v -0.5 0.7 -0.2
v 0.5 0.8 0.5
v 0.6 0.8 0.5
v 0.3 0.8 0.4
v 0.4 0.8 0.4
v 0.5 0.8 0.4
v 0.6 0.8 0.4
v 0.3 0.8 0.3
v 0.4 0.8 0.3
v -0.2 0.9 0.5
v -5.96046e-08 0.9 0.5
v 0.2 0.9 0.5
v 0.5 0.9 0.5
v -0.3 0.9 0.4
v -0.2 0.9 0.4
v 0.1 0.9 0.4
v 0.2 0.9 0.4
v 0.3 0.9 0.4
v 0.4 0.9 0.4
v -0.3 0.9 0.3
v -5.96046e-08 0.9 0.3
v 0.1 0.9 0.3
v 0.2 0.9 0.3
v 0.3 0.9 0.3
v 0.4 0.9 0.3
v -5.96046e-08 0.9 0.2
v 0.1 0.9 0.2
v 0.4 0.9 0.2
v 0.5 0.9 0.2
v -5.96046e-08 0.9 0.1
v 0.1 0.9 0.1
v -0.5 0.9 5.96046e-08
v -0.4 0.9 5.96046e-08
v 0.3 0.9 5.96046e-08
v 0.4 0.9 5.96046e-08
v 0.5 0.9 5.96046e-08
v 0.4 0.9 -0.1
v 0.5 0.9 -0.1
v -0.5 0.9 -0.2
v -0.4 0.9 -0.2
v 0.1 0.9 -0.2
v 0.2 0.9 -0.2
v -0.6 1 0.4
v -0.4 1 0.4
v -0.4 1 0.3
v -5.96046e-08 1 0.3
v 0.1 1 0.3
v 0.2 1 0.3
v 0.3 1 0.3
v -0.6 1 0.2
v -0.5 1 0.2
v -5.96046e-08 1 0.2
v 0.1 1 0.2
v 0.4 1 0.2
v 0.5 1 0.2
v -0.2 1 0.1
v -5.96046e-08 1 0.1
v -0.5 1 5.96046e-08
v -0.4 1 5.96046e-08
v 0.3 1 5.96046e-08
v 0.4 1 5.96046e-08
v 0.5 1 5.96046e-08
v 0.4 1 -0.1
v 0.5 1 -0.1
v -0.6 1 -0.2
v -0.4 1 -0.2
v -0.2 1 -0.2
v -5.96046e-08 1 -0.2
v 0.1 1 -0.2
v 0.2 1 -0.2
v 0.5 1 -0.2
v 0.6 1 -0.2
v 0.3 1 -0.5
v 0.4 1 -0.5
v -0.6 1 -0.6
v 0.3 1 -0.6
v 0.4 1 -0.6
v 0.6 1 -0.6
v -0.2 1.1 0.1
v 0.1 1.1 0.1
v -5.96046e-08 1.1 -0.1
v 0.1 1.1 -0.1
v -0.2 1.1 -0.2
v -5.96046e-08 1.1 -0.2
v 0.1 1.1 -0.2

# faces
f 3/1/1 2/1/1 1/1/1
f 4/1/1 2/1/1 3/1/1
f 5/1/1 3/1/1 1/1/1
f 6/1/1 3/1/1 5/1/1
f 7/2/1 6/2/1 5/2/1
f 8/1/1 3/1/1 6/1/1
f 8/2/1 6/2/1 7/2/1
f 9/1/1 3/1/1 8/1/1
f 10/2/1 9/2/1 8/2/1
f 11/2/1 9/2/1 10/2/1
f 14/1/1 2/1/1 4/1/1
f 15/2/1 12/2/1 11/2/1
f 16/2/1 12/2/1 15/2/1
f 17/1/1 14/1/1 13/1/1
f 18/1/1 2/1/1 14/1/1
f 18/1/1 14/1/1 17/1/1
f 21/1/1 20/1/1 19/1/1
f 22/1/1 20/1/1 21/1/1
f 23/1/1 2/1/1 18/1/1
f 24/1/1 2/1/1 23/1/1
f 27/1/1 26/1/1 25/1/1
f 28/1/1 26/1/1 27/1/1
f 29/2/1 28/2/1 27/2/1
f 30/1/1 26/1/1 28/1/1
f 30/2/1 28/2/1 29/2/1
f 31/1/1 26/1/1 30/1/1
f 32/2/1 30/2/1 29/2/1
f 32/2/1 31/2/1 30/2/1
f 33/2/1 31/2/1 32/2/1
f 34/2/1 31/2/1 33/2/1
f 35/2/1 31/2/1 34/2/1
f 36/2/1 31/2/1 35/2/1
f 38/2/1 34/2/1 33/2/1
f 39/2/1 34/2/1 38/2/1
f 40/1/1 35/1/1 34/1/1
f 40/2/1 34/2/1 39/2/1
f 41/1/1 35/1/1 40/1/1
f 44/1/1 42/1/1 41/1/1
f 44/1/1 41/1/1 40/1/1
f 45/1/1 39/1/1 38/1/1
f 45/1/1 38/1/1 37/1/1
f 46/1/1 39/1/1 45/1/1
f 47/1/1 44/1/1 43/1/1
f 48/1/1 42/1/1 44/1/1
f 48/1/1 44/1/1 47/1/1
f 49/1/1 42/1/1 48/1/1
f 50/1/1 47/1/1 46/1/1
f 50/1/1 48/1/1 47/1/1
f 51/1/1 48/1/1 50/1/1
f 54/1/1 53/1/1 52/1/1
f 55/1/1 53/1/1 54/1/1
f 56/2/1 55/2/1 54/2/1
f 57/2/1 55/2/1 56/2/1
f 60/1/1 59/1/1 58/1/1
f 61/1/1 59/1/1 60/1/1
f 64/1/1 63/1/1 62/1/1
f 65/1/1 63/1/1 64/1/1
f 66/1/1 64/1/1 62/1/1
f 67/1/1 64/1/1 66/1/1
f 70/1/1 69/1/1 68/1/1
f 71/1/1 69/1/1 70/1/1
f 74/1/1 73/1/1 72/1/1
f 75/1/1 73/1/1 74/1/1
f 78/1/1 77/1/1 76/1/1
f 79/1/1 77/1/1 78/1/1
f 82/2/1 81/2/1 80/2/1
f 83/2/1 81/2/1 82/2/1
f 86/1/1 85/1/1 84/1/1
f 87/1/1 85/1/1 86/1/1
f 90/1/1 89/1/1 88/1/1
f 91/1/1 89/1/1 90/1/1
f 94/2/1 93/2/1 92/2/1
f 95/2/1 93/2/1 94/2/1
f 98/1/1 97/1/1 96/1/1
f 99/1/1 97/1/1 98/1/1
f 102/1/1 101/1/1 100/1/1
f 103/1/1 101/1/1 102/1/1
f 104/2/1 103/2/1 102/2/1
f 105/2/1 103/2/1 104/2/1
f 108/2/1 107/2/1 106/2/1
f 109/2/1 107/2/1 108/2/1
f 112/1/1 111/1/1 110/1/1
f 113/1/1 111/1/1 112/1/1
f 116/1/1 115/1/1 114/1/1
f 117/1/1 115/1/1 116/1/1
f 118/1/2 119/1/2 120/1/2
f 120/1/2 119/1/2 121/1/2
f 120/2/2 121/2/2 122/2/2
f 122/2/2 121/2/2 123/2/2
f 124/1/2 125/1/2 126/1/2
f 126/1/2 125/1/2 127/1/2
f 128/1/2 129/1/2 130/1/2
f 130/1/2 129/1/2 131/1/2
f 130/2/2 131/2/2 132/2/2
f 132/2/2 131/2/2 133/2/2
f 134/1/2 135/1/2 136/1/2
f 136/1/2 135/1/2 137/1/2
f 138/1/2 139/1/2 140/1/2
f 140/1/2 139/1/2 141/1/2
f 142/2/2 143/2/2 144/2/2
f 144/2/2 143/2/2 145/2/2
f 146/2/2 147/2/2 150/2/2
f 150/2/2 147/2/2 151/2/2
f 148/1/2 149/1/2 152/1/2
f 152/1/2 149/1/2 153/1/2
f 153/1/2 149/1/2 154/1/2
f 152/2/2 153/2/2 155/2/2
f 153/1/2 154/1/2 156/1/2
f 155/2/2 153/2/2 156/2/2
f 156/1/2 154/1/2 157/1/2
f 158/1/2 159/1/2 160/1/2
f 160/1/2 159/1/2 161/1/2
f 161/1/2 162/1/2 163/1/2
f 163/1/2 162/1/2 164/1/2
f 165/1/2 166/1/2 167/1/2
f 167/1/2 166/1/2 168/1/2
f 171/1/2 172/1/2 174/1/2
f 169/1/2 170/1/2 175/1/2
f 175/1/2 170/1/2 176/1/2
f 173/1/2 174/1/2 177/1/2
f 174/1/2 172/1/2 177/1/2
f 177/1/2 172/1/2 178/1/2
f 178/1/2 172/1/2 179/1/2
f 175/2/2 176/2/2 181/2/2
f 181/2/2 176/2/2 182/2/2
f 173/1/2 177/1/2 183/1/2
f 179/1/2 180/1/2 184/1/2
f 178/1/2 179/1/2 184/1/2
f 184/1/2 180/1/2 185/1/2
f 185/1/2 180/1/2 186/1/2
f 173/1/2 183/1/2 188/1/2
f 188/1/2 183/1/2 189/1/2
f 184/2/2 185/2/2 190/2/2
f 190/2/2 185/2/2 191/2/2
f 188/2/2 189/2/2 193/2/2
f 187/2/2 188/2/2 193/2/2
f 189/2/2 190/2/2 193/2/2
f 193/2/2 190/2/2 194/2/2
f 190/1/2 191/1/2 195/1/2
f 194/2/2 190/2/2 195/2/2
f 195/1/2 191/1/2 196/1/2
f 193/1/2 194/1/2 197/1/2
f 192/1/2 193/1/2 197/1/2
f 197/1/2 194/1/2 198/1/2
f 195/2/2 196/2/2 199/2/2
f 198/1/2 194/1/2 199/1/2
f 194/2/2 195/2/2 199/2/2
f 199/2/2 196/2/2 200/2/2
f 200/2/2 196/2/2 201/2/2
f 198/1/2 199/1/2 202/1/2
f 202/1/2 199/1/2 203/1/2
f 200/1/2 201/1/2 204/1/2
f 204/1/2 201/1/2 205/1/2
f 206/1/2 207/1/2 208/1/2
f 208/1/2 207/1/2 209/1/2
f 206/1/2 208/1/2 210/1/2
f 210/1/2 208/1/2 211/1/2
f 209/1/2 207/1/2 214/1/2
f 214/1/2 207/1/2 215/1/2
f 212/1/2 213/1/2 216/1/2
f 216/1/2 213/1/2 217/1/2
f 215/1/2 207/1/2 219/1/2
f 206/1/2 210/1/2 220/1/2
f 220/1/2 210/1/2 221/1/2
f 216/2/2 217/2/2 222/2/2
f 222/2/2 217/2/2 223/2/2
f 206/1/2 220/1/2 224/1/2
f 224/1/2 220/1/2 225/1/2
f 218/2/2 219/2/2 226/2/2
f 219/1/2 207/1/2 227/1/2
f 226/2/2 219/2/2 227/2/2
f 226/1/2 227/1/2 228/1/2
f 227/1/2 207/1/2 229/1/2
f 228/1/2 227/1/2 229/1/2
f 233/1/3 231/1/3 230/1/3
f 234/2/3 232/2/3 231/2/3
f 234/1/3 231/1/3 233/1/3
f 235/2/3 232/2/3 234/2/3
f 236/1/3 233/1/3 230/1/3
f 239/1/3 236/1/3 230/1/3
f 239/1/3 237/1/3 236/1/3
f 240/2/3 238/2/3 237/2/3
f 240/1/3 237/1/3 239/1/3
f 241/2/3 238/2/3 240/2/3
f 242/1/3 239/1/3 230/1/3
f 244/1/3 243/1/3 242/1/3
f 246/1/3 242/1/3 230/1/3
f 246/1/3 245/1/3 244/1/3
f 246/1/3 244/1/3 242/1/3
f 247/1/3 245/1/3 246/1/3
f 251/1/3 249/1/3 248/1/3
f 252/2/3 250/2/3 249/2/3
f 252/1/3 249/1/3 251/1/3
f 253/2/3 250/2/3 252/2/3
f 258/2/3 255/2/3 254/2/3
f 259/2/3 255/2/3 258/2/3
f 260/1/3 257/1/3 256/1/3
f 261/2/3 258/2/3 257/2/3
f 261/1/3 257/1/3 260/1/3
f 262/1/3 259/1/3 258/1/3
f 262/2/3 258/2/3 261/2/3
f 263/1/3 259/1/3 262/1/3
f 267/1/3 263/1/3 262/1/3
f 267/1/3 264/1/3 263/1/3
f 268/1/3 264/1/3 267/1/3
f 269/1/3 264/1/3 268/1/3
f 272/1/3 266/1/3 265/1/3
f 272/1/3 267/1/3 266/1/3
f 272/1/3 268/1/3 267/1/3
f 273/1/3 268/1/3 272/1/3
f 274/1/3 268/1/3 273/1/3
f 275/1/3 268/1/3 274/1/3
f 276/2/3 269/2/3 268/2/3
f 277/1/3 271/1/3 270/1/3
f 278/1/3 271/1/3 277/1/3
f 280/1/3 268/1/3 275/1/3
f 281/2/3 276/2/3 268/2/3
f 281/2/3 278/2/3 277/2/3
f 281/2/3 277/2/3 276/2/3
f 282/2/3 278/2/3 281/2/3
f 283/2/3 278/2/3 282/2/3
f 284/2/3 278/2/3 283/2/3
f 285/1/3 280/1/3 279/1/3
f 286/1/3 268/1/3 280/1/3
f 286/1/3 280/1/3 285/1/3
f 287/2/3 281/2/3 268/2/3
f 287/1/3 268/1/3 286/1/3
f 288/2/3 281/2/3 287/2/3
f 289/1/3 284/1/3 283/1/3
f 290/2/3 289/2/3 288/2/3
f 290/2/3 288/2/3 287/2/3
f 291/1/3 284/1/3 289/1/3
f 291/2/3 289/2/3 290/2/3
f 294/1/3 291/1/3 290/1/3
f 295/1/3 284/1/3 291/1/3
f 295/1/3 291/1/3 294/1/3
f 296/1/3 284/1/3 295/1/3
f 297/1/3 293/1/3 292/1/3
f 297/1/3 294/1/3 293/1/3
f 297/1/3 295/1/3 294/1/3
f 298/1/3 295/1/3 297/1/3
f 303/2/3 300/2/3 299/2/3
f 304/2/3 300/2/3 303/2/3
f 305/1/3 302/1/3 301/1/3
f 306/1/3 304/1/3 303/1/3
f 306/1/3 305/1/3 304/1/3
f 307/1/3 305/1/3 306/1/3
f 308/1/3 302/1/3 305/1/3
f 308/1/3 305/1/3 307/1/3
f 311/1/3 310/1/3 309/1/3
f 312/1/3 310/1/3 311/1/3
f 313/1/3 311/1/3 309/1/3
f 314/1/3 311/1/3 313/1/3
f 317/2/3 316/2/3 315/2/3
f 318/2/3 317/2/3 315/2/3
f 319/2/3 317/2/3 318/2/3
f 322/1/3 321/1/3 320/1/3
f 323/1/3 321/1/3 322/1/3
f 324/1/3 321/1/3 323/1/3
f 325/1/3 321/1/3 324/1/3
f 326/2/3 325/2/3 324/2/3
f 327/2/3 325/2/3 326/2/3
f 331/1/3 329/1/3 328/1/3
f 332/1/3 329/1/3 331/1/3
f 333/1/3 331/1/3 330/1/3
f 334/1/3 331/1/3 333/1/3
f 337/1/3 336/1/3 335/1/3
f 338/1/3 336/1/3 337/1/3
f 341/1/3 340/1/3 339/1/3
f 342/1/3 340/1/3 341/1/3
f 346/2/3 344/2/3 343/2/3
f 347/1/3 346/1/3 345/1/3
f 348/2/3 344/2/3 346/2/3
f 348/1/3 346/1/3 347/1/3
f 349/2/3 344/2/3 348/2/3
f 353/1/3 351/1/3 350/1/3
f 354/2/3 352/2/3 351/2/3
f 354/1/3 351/1/3 353/1/3
f 355/2/3 352/2/3 354/2/3
f 358/1/3 357/1/3 356/1/3
f 359/1/3 357/1/3 358/1/3
f 362/1/3 361/1/3 360/1/3
f 363/1/3 361/1/3 362/1/3
f 366/1/3 365/1/3 364/1/3
f 367/1/3 365/1/3 366/1/3
f 370/1/3 369/1/3 368/1/3
f 371/1/3 369/1/3 370/1/3
f 376/1/3 373/1/3 372/1/3
f 377/1/3 373/1/3 376/1/3
f 378/1/3 373/1/3 377/1/3
f 379/1/3 375/1/3 374/1/3
f 380/1/3 375/1/3 379/1/3
f 381/1/3 375/1/3 380/1/3
f 382/1/3 375/1/3 381/1/3
f 385/1/3 384/1/3 383/1/3
f 386/1/3 384/1/3 385/1/3
f 394/1/3 388/1/3 387/1/3
f 395/1/3 388/1/3 394/1/3
f 396/2/3 390/2/3 389/2/3
f 396/2/3 391/2/3 390/2/3
f 396/2/3 392/2/3 391/2/3
f 397/1/3 393/1/3 392/1/3
f 397/2/3 392/2/3 396/2/3
f 398/1/3 393/1/3 397/1/3
f 401/1/3 400/1/3 399/1/3
f 402/1/3 400/1/3 401/1/3
f 403/1/4 404/1/4 406/1/4
f 406/1/4 404/1/4 407/1/4
f 404/2/4 405/2/4 408/2/4
f 407/1/4 404/1/4 408/1/4
f 408/2/4 405/2/4 409/2/4
f 410/1/4 411/1/4 412/1/4
f 412/1/4 411/1/4 413/1/4
f 414/1/4 415/1/4 416/1/4
f 416/1/4 415/1/4 417/1/4
f 418/2/4 419/2/4 420/2/4
f 420/2/4 419/2/4 421/2/4
f 422/1/4 423/1/4 424/1/4
f 424/1/4 423/1/4 425/1/4
f 426/1/4 427/1/4 429/1/4
f 429/1/4 427/1/4 430/1/4
f 428/1/4 429/1/4 431/1/4
f 431/1/4 429/1/4 432/1/4
f 433/2/4 434/2/4 435/2/4
f 435/2/4 434/2/4 436/2/4
f 437/1/4 438/1/4 439/1/4
f 439/1/4 438/1/4 440/1/4
f 441/1/4 442/1/4 443/1/4
f 443/1/4 442/1/4 444/1/4
f 445/1/4 446/1/4 447/1/4
f 447/1/4 446/1/4 448/1/4
f 449/1/4 450/1/4 452/1/4
f 450/2/4 451/2/4 453/2/4
f 452/1/4 450/1/4 453/1/4
f 453/2/4 451/2/4 454/2/4
f 455/2/4 456/2/4 457/2/4
f 457/2/4 456/2/4 458/2/4
f 457/1/4 458/1/4 459/1/4
f 459/1/4 458/1/4 460/1/4
f 461/1/4 462/1/4 463/1/4
f 463/1/4 462/1/4 464/1/4
f 464/1/4 462/1/4 465/1/4
f 465/1/4 462/1/4 466/1/4
f 463/2/4 464/2/4 467/2/4
f 464/1/4 465/1/4 467/1/4
f 465/2/4 466/2/4 468/2/4
f 467/1/4 465/1/4 468/1/4
f 461/1/4 463/1/4 469/1/4
f 463/2/4 467/2/4 470/2/4
f 469/1/4 463/1/4 470/1/4
f 467/2/4 468/2/4 470/2/4
f 468/2/4 466/2/4 471/2/4
f 470/2/4 468/2/4 471/2/4
f 466/1/4 462/1/4 472/1/4
f 471/2/4 466/2/4 472/2/4
f 469/2/4 470/2/4 473/2/4
f 470/2/4 471/2/4 473/2/4
f 471/1/4 472/1/4 473/1/4
f 472/1/4 462/1/4 474/1/4
f 473/1/4 472/1/4 474/1/4
f 473/2/4 474/2/4 475/2/4
f 474/1/4 462/1/4 475/1/4
f 475/1/4 462/1/4 476/1/4
f 469/2/4 473/2/4 477/2/4
f 473/2/4 475/2/4 477/2/4
f 475/2/4 476/2/4 477/2/4
f 477/2/4 476/2/4 478/2/4
f 461/1/4 469/1/4 479/1/4
f 469/2/4 477/2/4 479/2/4
f 479/2/4 477/2/4 480/2/4
f 480/2/4 477/2/4 481/2/4
f 477/1/4 478/1/4 482/1/4
f 481/2/4 477/2/4 482/2/4
f 476/1/4 462/1/4 483/1/4
f 478/2/4 476/2/4 483/2/4
f 483/1/4 462/1/4 484/1/4
f 480/2/4 481/2/4 485/2/4
f 479/1/4 480/1/4 485/1/4
f 481/1/4 482/1/4 486/1/4
f 485/2/4 481/2/4 486/2/4
f 483/2/4 484/2/4 487/2/4
f 487/2/4 484/2/4 488/2/4
f 482/1/4 478/1/4 489/1/4
f 486/1/4 482/1/4 489/1/4
f 478/2/4 483/2/4 489/2/4
f 483/2/4 487/2/4 489/2/4
f 485/1/4 486/1/4 489/1/4
f 487/1/4 488/1/4 490/1/4
f 489/2/4 487/2/4 490/2/4
f 479/1/4 485/1/4 491/1/4
f 461/1/4 479/1/4 491/1/4
f 489/1/4 490/1/4 491/1/4
f 485/1/4 489/1/4 491/1/4
f 490/1/4 488/1/4 492/1/4
f 491/1/4 490/1/4 492/1/4
f 497/1/5 494/1/5 493/1/5
f 498/1/5 496/1/5 495/1/5
f 499/1/5 496/1/5 498/1/5
f 501/1/5 497/1/5 493/1/5
f 501/1/5 500/1/5 499/1/5
f 501/1/5 499/1/5 498/1/5
f 501/1/5 498/1/5 497/1/5
f 502/1/5 500/1/5 501/1/5
f 505/1/5 504/1/5 503/1/5
f 506/1/5 504/1/5 505/1/5
f 509/2/5 508/2/5 507/2/5
f 510/2/5 508/2/5 509/2/5
f 513/1/5 512/1/5 511/1/5
f 514/1/5 512/1/5 513/1/5
f 517/2/5 516/2/5 515/2/5
f 518/2/5 516/2/5 517/2/5
f 524/1/5 520/1/5 519/1/5
f 525/1/5 520/1/5 524/1/5
f 526/2/5 522/2/5 521/2/5
f 527/1/5 523/1/5 522/1/5
f 527/2/5 522/2/5 526/2/5
f 528/1/5 523/1/5 527/1/5
f 531/1/5 530/1/5 529/1/5
f 532/1/5 530/1/5 531/1/5
f 535/1/5 534/1/5 533/1/5
f 536/1/5 534/1/5 535/1/5
f 538/1/5 537/1/5 536/1/5
f 539/1/5 537/1/5 538/1/5
f 540/1/6 541/1/6 542/1/6
f 542/1/6 541/1/6 543/1/6
f 544/1/6 545/1/6 546/1/6
f 546/1/6 545/1/6 547/1/6
f 548/1/6 549/1/6 550/1/6
f 550/1/6 549/1/6 551/1/6
f 552/1/6 553/1/6 554/1/6
f 554/1/6 553/1/6 555/1/6
f 556/1/6 557/1/6 558/1/6
f 558/1/6 557/1/6 559/1/6
f 560/1/6 561/1/6 562/1/6
f 562/1/6 561/1/6 563/1/6
f 564/2/6 565/2/6 570/2/6
f 570/2/6 565/2/6 571/2/6
f 566/2/6 567/2/6 572/2/6
f 572/2/6 567/2/6 573/2/6
f 568/1/6 569/1/6 574/1/6
f 574/1/6 569/1/6 575/1/6
f 576/1/6 577/1/6 578/1/6
f 578/1/6 577/1/6 579/1/6
f 580/2/6 581/2/6 585/2/6
f 585/2/6 581/2/6 586/2/6
f 586/2/6 581/2/6 587/2/6
f 582/2/6 583/2/6 588/2/6
f 583/1/6 584/1/6 589/1/6
f 588/2/6 583/2/6 589/2/6
f 589/1/6 584/1/6 590/1/6
f 591/1/6 592/1/6 598/1/6
f 592/2/6 593/2/6 599/2/6
f 598/1/6 592/1/6 599/1/6
f 599/2/6 593/2/6 600/2/6
f 594/2/6 595/2/6 601/2/6
f 601/2/6 595/2/6 602/2/6
f 596/2/6 597/2/6 605/2/6
f 605/2/6 597/2/6 606/2/6
f 598/1/6 599/1/6 607/1/6
f 607/1/6 599/1/6 608/1/6
f 603/1/6 604/1/6 609/1/6
f 609/1/6 604/1/6 610/1/6
f 611/2/6 612/2/6 615/2/6
f 615/2/6 612/2/6 616/2/6
f 613/2/6 614/2/6 619/2/6
f 619/2/6 614/2/6 620/2/6
f 617/1/6 618/1/6 621/1/6
f 621/1/6 618/1/6 622/1/6
f 623/1/6 624/1/6 627/1/6
f 627/1/6 624/1/6 628/1/6
f 625/1/6 626/1/6 629/1/6
f 629/1/6 626/1/6 630/1/6
f 631/1/6 632/1/6 636/1/6
f 632/2/6 633/2/6 637/2/6
f 633/1/6 634/1/6 638/1/6
f 637/2/6 633/2/6 638/2/6
f 638/1/6 634/1/6 639/1/6
f 639/1/6 634/1/6 640/1/6
f 635/1/6 636/1/6 641/1/6
f 632/2/6 637/2/6 642/2/6
f 641/1/6 636/1/6 642/1/6
f 636/1/6 632/1/6 642/1/6
f 638/1/6 639/1/6 643/1/6
f 642/2/6 637/2/6 643/2/6
f 637/1/6 638/1/6 643/1/6
f 643/1/6 639/1/6 644/1/6
f 644/1/6 639/1/6 645/1/6
f 640/1/6 634/1/6 646/1/6
f 643/1/6 644/1/6 648/1/6
f 645/1/6 646/1/6 649/1/6
f 646/1/6 634/1/6 649/1/6
f 649/1/6 634/1/6 650/1/6
f 647/1/6 648/1/6 651/1/6
f 648/1/6 644/1/6 652/1/6
f 651/1/6 648/1/6 652/1/6
f 645/1/6 649/1/6 655/1/6
f 655/1/6 649/1/6 656/1/6
f 656/2/6 657/2/6 658/2/6
f 658/2/6 657/2/6 659/2/6
f 653/1/6 654/1/6 660/1/6
f 660/1/6 654/1/6 661/1/6
f 652/1/6 644/1/6 662/1/6
f 662/1/6 644/1/6 663/1/6
f 664/1/6 665/1/6 666/1/6
f 664/1/6 666/1/6 671/1/6
f 666/1/6 667/1/6 671/1/6
f 671/1/6 667/1/6 672/1/6
f 667/2/6 668/2/6 673/2/6
f 672/1/6 667/1/6 673/1/6
f 673/2/6 668/2/6 674/2/6
f 672/1/6 673/1/6 677/1/6
f 677/1/6 673/1/6 678/1/6
f 672/1/6 677/1/6 679/1/6
f 679/1/6 677/1/6 680/1/6
f 669/1/6 670/1/6 681/1/6
f 675/1/6 676/1/6 682/1/6
f 682/1/6 676/1/6 683/1/6
f 681/1/6 682/1/6 684/1/6
f 680/1/6 677/1/6 687/1/6
f 687/1/6 677/1/6 688/1/6
f 684/1/6 685/1/6 691/1/6
f 669/1/6 681/1/6 691/1/6
f 681/1/6 684/1/6 691/1/6
f 691/1/6 685/1/6 692/1/6
f 689/1/6 690/1/6 694/1/6
f 692/1/6 693/1/6 694/1/6
f 690/1/6 691/1/6 694/1/6
f 688/1/6 689/1/6 694/1/6
f 686/1/6 687/1/6 694/1/6
f 691/1/6 692/1/6 694/1/6
f 687/1/6 688/1/6 694/1/6
f 694/1/6 693/1/6 695/1/6
f 686/1/6 694/1/6 696/1/6
f 694/2/6 695/2/6 697/2/6
f 696/1/6 694/1/6 697/1/6
f 695/1/6 693/1/6 698/1/6
f 697/2/6 695/2/6 698/2/6
f 698/1/6 693/1/6 699/1/6
f 700/2/6 701/2/6 702/2/6
f 702/2/6 701/2/6 703/2/6
f 700/2/6 702/2/6 704/2/6
f 702/1/6 703/1/6 705/1/6
f 704/2/6 702/2/6 705/2/6
f 705/1/6 703/1/6 706/1/6
