# MagicaVoxel @ Ephtracy

# group
o 

# material
mtllib solid_elephant.mtl
usemtl palette

# normals
vn -1 0 0
vn 1 0 0
vn 0 0 1
vn 0 0 -1
vn 0 -1 0
vn 0 1 0

# texcoords
vt 0.974609 0.5
vt 0.982422 0.5
vt 0.986328 0.5
vt 0.990234 0.5

# verts
v -0.6 0.8 0.2
v -0.6 0.8 0.1
v -0.6 0.9 0.2
v -0.6 0.9 0.1
v -0.5 0.2 0.4
v -0.5 0.2 -0.2
v -0.5 0.3 0.4
v -0.5 0.3 -0.2
v -0.5 0.7 0.2
v -0.5 0.7 0.1
v -0.5 0.8 0.2
v -0.5 0.8 0.1
v -0.5 0.9 0.2
v -0.5 0.9 0.1
v -0.5 1.1 0.2
v -0.5 1.1 0.1
v -0.4 0.3 0.1
v -0.4 0.3 -0.1
v -0.4 0.5 0.1
v -0.4 0.5 -0.1
v -0.4 0.7 0.1
v -0.4 0.8 0.1
v -0.4 0.9 0.1
v -0.4 0.9 0
v -0.4 0.9 -0.1
v -0.4 1 0.1
v -0.4 1 0
v -0.4 1 -0.1
v -0.4 1.1 0
v -0.4 1.1 -0.1
v -0.3 0.9 0
v -0.3 0.9 -0.1
v -0.3 1 0.1
v -0.3 1 0
v -0.3 1 -0.1
v -0.3 1.1 0
v -0.3 1.2 0.1
v -0.3 1.2 0
v -0.1 0.2 0.3
v -0.1 0.2 0.2
v -0.1 0.3 0.3
v -0.1 0.3 0.2
v -5.96046e-08 0.3 0.1
v -5.96046e-08 0.3 -0.1
v -5.96046e-08 0.5 0.1
v -5.96046e-08 0.5 -0.1
v -5.96046e-08 0.6 0.1
v -5.96046e-08 0.6 -0.1
v -5.96046e-08 0.8 0.2
v -5.96046e-08 0.8 0.1
v -5.96046e-08 0.9 0
v -5.96046e-08 0.9 -0.1
v -5.96046e-08 1 0.2
v -5.96046e-08 1 0.1
v -5.96046e-08 1 0
v -5.96046e-08 1 -0.1
v -0.4 0.2 0.4
v -0.4 0.2 0.3
v -0.4 0.3 0.4
v -0.4 0.3 0.3
v -0.4 0.7 0.2
v -0.4 0.7 0.1
v -0.4 0.8 0.2
v -0.4 0.8 0.1
v -0.4 0.9 0.2
v -0.4 0.9 0.1
v -0.4 1 0.1
v -0.4 1.1 0.2
v -0.4 1.1 0.1
v -0.3 0.8 0.2
v -0.3 0.8 0.1
v -0.3 0.9 0.2
v -0.3 0.9 0.1
v -0.2 0.2 0.3
v -0.2 0.2 0.2
v -0.2 0.3 0.3
v -0.2 0.3 0.2
v -0.2 0.3 0.1
v -0.2 0.3 -0.1
v -0.2 0.5 0.1
v -0.2 0.5 -0.1
v -0.2 0.6 0.1
v -0.2 0.6 -0.1
v -0.2 1 0
v -0.2 1 -0.1
v -0.2 1.1 0.1
v -0.2 1.1 0
v -0.2 1.1 -0.1
v -0.2 1.2 0.1
v -0.2 1.2 0
v -0.1 0.9 0
v -0.1 0.9 -0.1
v -0.1 1 0
v -0.1 1 -0.1
v -5.96046e-08 1 0.1
v -5.96046e-08 1 0
v -5.96046e-08 1.1 0.1
v -5.96046e-08 1.1 0
v 0.1 0.2 0.3
v 0.1 0.2 0.2
v 0.1 0.3 0.3
v 0.1 0.3 0.2
v 0.1 0.9 0.1
v 0.1 0.9 0
v 0.1 1 0.1
v 0.1 1 0
v 0.2 0.3 0.1
v 0.2 0.3 -0.1
v 0.2 0.5 0.1
v 0.2 0.5 -0.1
v 0.2 0.8 0.1
v 0.2 0.9 0.2
v 0.2 0.9 0.1
v 0.2 0.9 0
v 0.2 1 0.2
v 0.2 1 0.1
v 0.2 1 0
v 0.2 1 -0.1
v 0.3 0.2 0.2
v 0.3 0.2 -0.2
v 0.3 0.3 0.2
v 0.3 0.3 -0.2
v 0.3 0.8 0.2
v 0.3 0.8 0.1
v 0.3 0.9 0.2
v 0.3 0.9 0.1
v -0.5 0.2 0.4
v -0.5 0.3 0.4
v -0.4 0.2 0.4
v -0.4 0.3 0.4
v -0.4 0.2 0.3
v -0.4 0.3 0.3
v -0.2 0.2 0.3
v -0.2 0.3 0.3
v -0.1 0.2 0.3
v -0.1 0.3 0.3
v 0.1 0.2 0.3
v 0.1 0.3 0.3
v -0.6 0.8 0.2
v -0.6 0.9 0.2
v -0.5 0.7 0.2
v -0.5 0.8 0.2
v -0.5 0.9 0.2
v -0.5 1.1 0.2
v -0.4 0.7 0.2
v -0.4 0.8 0.2
v -0.4 0.9 0.2
v -0.4 1.1 0.2
v -0.3 0.8 0.2
v -0.3 0.9 0.2
v -0.2 0.2 0.2
v -0.2 0.3 0.2
v -0.1 0.2 0.2
v -0.1 0.3 0.2
v -5.96046e-08 0.8 0.2
v -5.96046e-08 1 0.2
v 0.1 0.2 0.2
v 0.1 0.3 0.2
v 0.1 0.9 0.2
v 0.1 1 0.2
v 0.2 0.9 0.2
v 0.2 1 0.2
v 0.3 0.2 0.2
v 0.3 0.3 0.2
v 0.3 0.8 0.2
v 0.3 0.9 0.2
v -0.4 0.3 0.1
v -0.4 0.5 0.1
v -0.4 0.7 0.1
v -0.4 0.8 0.1
v -0.4 0.9 0.1
v -0.4 1 0.1
v -0.3 0.8 0.1
v -0.3 0.9 0.1
v -0.3 1 0.1
v -0.3 1.2 0.1
v -0.2 0.3 0.1
v -0.2 0.5 0.1
v -0.2 0.6 0.1
v -0.2 0.9 0.1
v -0.2 1.1 0.1
v -0.2 1.2 0.1
v -5.96046e-08 0.3 0.1
v -5.96046e-08 0.5 0.1
v -5.96046e-08 0.6 0.1
v -5.96046e-08 0.8 0.1
v -5.96046e-08 1 0.1
v -5.96046e-08 1.1 0.1
v 0.2 0.3 0.1
v 0.2 0.5 0.1
v 0.2 0.8 0.1
v -0.4 1 0
v -0.4 1.1 0
v -0.3 1 0
v -0.3 1.1 0
v 0.1 0.9 0
v 0.1 1 0
v 0.2 0.9 0
v 0.2 1 0
v -0.6 0.8 0.1
v -0.6 0.9 0.1
v -0.5 0.7 0.1
v -0.5 0.8 0.1
v -0.5 0.9 0.1
v -0.5 1.1 0.1
v -0.4 0.7 0.1
v -0.4 0.8 0.1
v -0.4 0.9 0.1
v -0.4 1 0.1
v -0.4 1.1 0.1
v 0.1 0.9 0.1
v 0.1 1 0.1
v 0.2 0.8 0.1
v 0.2 0.9 0.1
v 0.2 1 0.1
v 0.3 0.8 0.1
v 0.3 0.9 0.1
v -0.4 0.9 0
v -0.4 1 0
v -0.3 0.9 0
v -0.3 1 0
v -0.3 1.1 0
v -0.3 1.2 0
v -0.2 1 0
v -0.2 1.1 0
v -0.2 1.2 0
v -0.1 0.9 0
v -0.1 1 0
v -5.96046e-08 0.9 0
v -5.96046e-08 1 0
v -5.96046e-08 1.1 0
v -0.4 0.3 -0.1
v -0.4 0.5 -0.1
v -0.4 0.9 -0.1
v -0.4 1 -0.1
v -0.4 1.1 -0.1
v -0.3 0.9 -0.1
v -0.3 1 -0.1
v -0.2 0.3 -0.1
v -0.2 0.5 -0.1
v -0.2 0.6 -0.1
v -0.2 1 -0.1
v -0.2 1.1 -0.1
v -0.1 0.9 -0.1
v -0.1 1 -0.1
v -5.96046e-08 0.3 -0.1
v -5.96046e-08 0.5 -0.1
v -5.96046e-08 0.6 -0.1
v -5.96046e-08 0.9 -0.1
v -5.96046e-08 1 -0.1
v 0.2 0.3 -0.1
v 0.2 0.5 -0.1
v 0.2 1 -0.1
v -0.5 0.2 -0.2
v -0.5 0.3 -0.2
v 0.3 0.2 -0.2
v 0.3 0.3 -0.2
v -0.5 0.2 0.4
v -0.4 0.2 0.4
v -0.4 0.2 0.3
v -0.2 0.2 0.3
v -0.1 0.2 0.3
v 0.1 0.2 0.3
v -0.2 0.2 0.2
v -0.1 0.2 0.2
v 0.1 0.2 0.2
v 0.3 0.2 0.2
v -0.5 0.2 -0.2
v 0.3 0.2 -0.2
v -0.2 0.6 0.1
v -5.96046e-08 0.6 0.1
v -0.2 0.6 -0.1
v -5.96046e-08 0.6 -0.1
v -0.5 0.7 0.2
v -0.4 0.7 0.2
v -0.5 0.7 0.1
v -0.4 0.7 0.1
v -0.6 0.8 0.2
v -0.5 0.8 0.2
v -0.4 0.8 0.2
v -0.3 0.8 0.2
v -5.96046e-08 0.8 0.2
v 0.3 0.8 0.2
v -0.6 0.8 0.1
v -0.5 0.8 0.1
v -0.4 0.8 0.1
v -0.3 0.8 0.1
v -5.96046e-08 0.8 0.1
v 0.2 0.8 0.1
v 0.3 0.8 0.1
v -0.4 1 0
v -0.3 1 0
v -0.4 1 -0.1
v -0.3 1 -0.1
v -0.5 0.3 0.4
v -0.4 0.3 0.4
v -0.4 0.3 0.3
v -0.2 0.3 0.3
v -0.1 0.3 0.3
v 0.1 0.3 0.3
v -0.2 0.3 0.2
v -0.1 0.3 0.2
v 0.1 0.3 0.2
v 0.3 0.3 0.2
v -0.4 0.3 0.1
v -0.2 0.3 0.1
v -5.96046e-08 0.3 0.1
v 0.2 0.3 0.1
v -0.4 0.3 -0.1
v -0.2 0.3 -0.1
v -5.96046e-08 0.3 -0.1
v 0.2 0.3 -0.1
v -0.5 0.3 -0.2
v 0.3 0.3 -0.2
v -0.6 0.9 0.2
v -0.5 0.9 0.2
v -0.4 0.9 0.2
v -0.3 0.9 0.2
v 0.2 0.9 0.2
v 0.3 0.9 0.2
v -0.6 0.9 0.1
v -0.5 0.9 0.1
v -0.4 0.9 0.1
v -0.3 0.9 0.1
v 0.1 0.9 0.1
v 0.2 0.9 0.1
v 0.3 0.9 0.1
v -0.4 0.9 0
v -0.3 0.9 0
v -0.1 0.9 0
v -5.96046e-08 0.9 0
v 0.1 0.9 0
v 0.2 0.9 0
v -0.4 0.9 -0.1
v -0.3 0.9 -0.1
v -0.1 0.9 -0.1
v -5.96046e-08 0.9 -0.1
v -5.96046e-08 1 0.2
v 0.1 1 0.2
v 0.2 1 0.2
v -0.4 1 0.1
v -0.3 1 0.1
v -5.96046e-08 1 0.1
v 0.1 1 0.1
v 0.2 1 0.1
v -0.4 1 0
v -0.3 1 0
v -0.2 1 0
v -0.1 1 0
v -5.96046e-08 1 0
v 0.1 1 0
v 0.2 1 0
v -0.2 1 -0.1
v -0.1 1 -0.1
v -5.96046e-08 1 -0.1
v 0.2 1 -0.1
v -0.5 1.1 0.2
v -0.4 1.1 0.2
v -0.5 1.1 0.1
v -0.4 1.1 0.1
v -0.2 1.1 0.1
v -5.96046e-08 1.1 0.1
v -0.4 1.1 0
v -0.3 1.1 0
v -0.2 1.1 0
v -5.96046e-08 1.1 0
v -0.4 1.1 -0.1
v -0.2 1.1 -0.1
v -0.3 1.2 0.1
v -0.2 1.2 0.1
v -0.3 1.2 0
v -0.2 1.2 0

# faces
f 3/3/1 2/3/1 1/3/1
f 4/3/1 2/3/1 3/3/1
f 7/1/1 6/1/1 5/1/1
f 8/1/1 6/1/1 7/1/1
f 11/1/1 10/1/1 9/1/1
f 12/1/1 10/1/1 11/1/1
f 15/2/1 14/2/1 13/2/1
f 16/2/1 14/2/1 15/2/1
f 19/3/1 18/3/1 17/3/1
f 20/3/1 18/3/1 19/3/1
f 21/1/1 20/1/1 19/1/1
f 22/1/1 20/1/1 21/1/1
f 23/1/1 20/1/1 22/1/1
f 24/1/1 20/1/1 23/1/1
f 25/1/1 20/1/1 24/1/1
f 26/1/1 24/1/1 23/1/1
f 27/1/1 24/1/1 26/1/1
f 29/1/1 28/1/1 27/1/1
f 30/1/1 28/1/1 29/1/1
f 34/1/1 32/1/1 31/1/1
f 35/1/1 32/1/1 34/1/1
f 36/1/1 34/1/1 33/1/1
f 37/1/1 36/1/1 33/1/1
f 38/1/1 36/1/1 37/1/1
f 41/1/1 40/1/1 39/1/1
f 42/1/1 40/1/1 41/1/1
f 45/3/1 44/3/1 43/3/1
f 46/3/1 44/3/1 45/3/1
f 47/1/1 46/1/1 45/1/1
f 48/1/1 46/1/1 47/1/1
f 53/3/1 50/3/1 49/3/1
f 54/3/1 50/3/1 53/3/1
f 55/1/1 52/1/1 51/1/1
f 56/1/1 52/1/1 55/1/1
f 57/1/2 58/1/2 59/1/2
f 59/1/2 58/1/2 60/1/2
f 61/1/2 62/1/2 63/1/2
f 63/1/2 62/1/2 64/1/2
f 65/2/2 66/2/2 67/2/2
f 65/2/2 67/2/2 68/2/2
f 68/2/2 67/2/2 69/2/2
f 70/3/2 71/3/2 72/3/2
f 72/3/2 71/3/2 73/3/2
f 74/1/2 75/1/2 76/1/2
f 76/1/2 75/1/2 77/1/2
f 78/3/2 79/3/2 80/3/2
f 80/3/2 79/3/2 81/3/2
f 80/1/2 81/1/2 82/1/2
f 82/1/2 81/1/2 83/1/2
f 84/1/2 85/1/2 87/1/2
f 87/1/2 85/1/2 88/1/2
f 86/1/2 87/1/2 89/1/2
f 89/1/2 87/1/2 90/1/2
f 91/1/2 92/1/2 93/1/2
f 93/1/2 92/1/2 94/1/2
f 95/3/2 96/3/2 97/3/2
f 97/3/2 96/3/2 98/3/2
f 99/1/2 100/1/2 101/1/2
f 101/1/2 100/1/2 102/1/2
f 103/1/2 104/1/2 105/1/2
f 105/1/2 104/1/2 106/1/2
f 107/3/2 108/3/2 109/3/2
f 109/3/2 108/3/2 110/3/2
f 109/1/2 110/1/2 111/1/2
f 111/1/2 110/1/2 113/1/2
f 113/1/2 110/1/2 114/1/2
f 112/1/2 113/1/2 115/1/2
f 115/1/2 113/1/2 116/1/2
f 114/1/2 110/1/2 117/1/2
f 117/1/2 110/1/2 118/1/2
f 119/1/2 120/1/2 121/1/2
f 121/1/2 120/1/2 122/1/2
f 123/3/2 124/3/2 125/3/2
f 125/3/2 124/3/2 126/3/2
f 129/1/3 128/1/3 127/1/3
f 130/1/3 128/1/3 129/1/3
f 133/1/3 132/1/3 131/1/3
f 134/1/3 132/1/3 133/1/3
f 137/1/3 136/1/3 135/1/3
f 138/1/3 136/1/3 137/1/3
f 142/3/3 140/3/3 139/3/3
f 143/3/3 140/3/3 142/3/3
f 145/1/3 142/1/3 141/1/3
f 146/4/3 143/4/3 142/4/3
f 146/1/3 142/1/3 145/1/3
f 147/2/3 144/2/3 143/2/3
f 147/4/3 143/4/3 146/4/3
f 148/2/3 144/2/3 147/2/3
f 149/3/3 147/3/3 146/3/3
f 150/3/3 147/3/3 149/3/3
f 153/1/3 152/1/3 151/1/3
f 154/1/3 152/1/3 153/1/3
f 159/3/3 156/3/3 155/3/3
f 160/3/3 156/3/3 159/3/3
f 161/3/3 159/3/3 155/3/3
f 161/1/3 160/1/3 159/1/3
f 162/1/3 160/1/3 161/1/3
f 163/1/3 158/1/3 157/1/3
f 164/1/3 158/1/3 163/1/3
f 165/3/3 161/3/3 155/3/3
f 166/3/3 161/3/3 165/3/3
f 173/1/3 169/1/3 168/1/3
f 173/1/3 170/1/3 169/1/3
f 174/1/3 172/1/3 171/1/3
f 175/1/3 172/1/3 174/1/3
f 177/3/3 168/3/3 167/3/3
f 178/1/3 173/1/3 168/1/3
f 178/3/3 168/3/3 177/3/3
f 179/1/3 173/1/3 178/1/3
f 180/1/3 176/1/3 175/1/3
f 180/3/3 174/3/3 173/3/3
f 180/1/3 175/1/3 174/1/3
f 181/1/3 176/1/3 180/1/3
f 182/1/3 176/1/3 181/1/3
f 185/1/3 173/1/3 179/1/3
f 186/3/3 181/3/3 180/3/3
f 186/3/3 180/3/3 173/3/3
f 186/1/3 173/1/3 185/1/3
f 187/3/3 181/3/3 186/3/3
f 188/3/3 181/3/3 187/3/3
f 189/3/3 184/3/3 183/3/3
f 190/1/3 185/1/3 184/1/3
f 190/3/3 184/3/3 189/3/3
f 190/1/3 186/1/3 185/1/3
f 191/1/3 186/1/3 190/1/3
f 194/1/3 193/1/3 192/1/3
f 195/1/3 193/1/3 194/1/3
f 198/1/3 197/1/3 196/1/3
f 199/1/3 197/1/3 198/1/3
f 200/3/4 201/3/4 203/3/4
f 203/3/4 201/3/4 204/3/4
f 202/1/4 203/1/4 206/1/4
f 203/4/4 204/4/4 207/4/4
f 206/1/4 203/1/4 207/1/4
f 204/2/4 205/2/4 208/2/4
f 207/4/4 204/4/4 208/4/4
f 208/2/4 205/2/4 209/2/4
f 209/2/4 205/2/4 210/2/4
f 211/1/4 212/1/4 214/1/4
f 214/1/4 212/1/4 215/1/4
f 213/3/4 214/3/4 216/3/4
f 216/3/4 214/3/4 217/3/4
f 218/1/4 219/1/4 220/1/4
f 220/1/4 219/1/4 221/1/4
f 222/1/4 223/1/4 225/1/4
f 225/1/4 223/1/4 226/1/4
f 224/3/4 225/3/4 228/3/4
f 227/3/4 228/3/4 229/3/4
f 228/3/4 225/3/4 230/3/4
f 229/3/4 228/3/4 230/3/4
f 230/3/4 225/3/4 231/3/4
f 233/1/4 234/1/4 237/1/4
f 235/1/4 236/1/4 238/1/4
f 232/3/4 233/3/4 239/3/4
f 237/1/4 238/1/4 240/1/4
f 239/3/4 233/3/4 240/3/4
f 233/1/4 237/1/4 240/1/4
f 240/1/4 238/1/4 241/1/4
f 238/1/4 236/1/4 242/1/4
f 241/1/4 238/1/4 242/1/4
f 242/1/4 236/1/4 243/1/4
f 241/1/4 242/1/4 244/1/4
f 244/1/4 242/1/4 245/1/4
f 241/1/4 244/1/4 248/1/4
f 248/1/4 244/1/4 249/1/4
f 246/3/4 247/3/4 251/3/4
f 249/1/4 250/1/4 252/1/4
f 251/3/4 247/3/4 252/3/4
f 247/1/4 248/1/4 252/1/4
f 248/1/4 249/1/4 252/1/4
f 252/1/4 250/1/4 253/1/4
f 254/1/4 255/1/4 256/1/4
f 256/1/4 255/1/4 257/1/4
f 260/1/5 259/1/5 258/1/5
f 264/1/5 261/1/5 260/1/5
f 265/1/5 263/1/5 262/1/5
f 266/1/5 263/1/5 265/1/5
f 268/1/5 260/1/5 258/1/5
f 268/1/5 267/1/5 266/1/5
f 268/1/5 266/1/5 265/1/5
f 268/1/5 265/1/5 264/1/5
f 268/1/5 264/1/5 260/1/5
f 269/1/5 267/1/5 268/1/5
f 272/1/5 271/1/5 270/1/5
f 273/1/5 271/1/5 272/1/5
f 276/1/5 275/1/5 274/1/5
f 277/1/5 275/1/5 276/1/5
f 284/3/5 279/3/5 278/3/5
f 285/3/5 279/3/5 284/3/5
f 286/3/5 281/3/5 280/3/5
f 287/3/5 281/3/5 286/3/5
f 288/3/5 283/3/5 282/3/5
f 289/3/5 283/3/5 288/3/5
f 290/3/5 283/3/5 289/3/5
f 293/1/5 292/1/5 291/1/5
f 294/1/5 292/1/5 293/1/5
f 295/1/6 296/1/6 297/1/6
f 297/1/6 298/1/6 301/1/6
f 299/1/6 300/1/6 302/1/6
f 302/1/6 300/1/6 303/1/6
f 295/1/6 297/1/6 305/1/6
f 303/1/6 304/1/6 305/1/6
f 302/1/6 303/1/6 305/1/6
f 301/1/6 302/1/6 305/1/6
f 297/1/6 301/1/6 305/1/6
f 305/1/6 304/1/6 306/1/6
f 306/1/6 304/1/6 307/1/6
f 307/1/6 304/1/6 308/1/6
f 295/1/6 305/1/6 309/1/6
f 306/1/6 307/1/6 310/1/6
f 310/1/6 307/1/6 311/1/6
f 308/1/6 304/1/6 312/1/6
f 310/1/6 311/1/6 313/1/6
f 311/1/6 312/1/6 313/1/6
f 295/1/6 309/1/6 313/1/6
f 309/1/6 310/1/6 313/1/6
f 312/1/6 304/1/6 314/1/6
f 313/1/6 312/1/6 314/1/6
f 315/3/6 316/3/6 321/3/6
f 321/3/6 316/3/6 322/3/6
f 317/3/6 318/3/6 323/3/6
f 323/3/6 318/3/6 324/3/6
f 319/3/6 320/3/6 326/3/6
f 326/3/6 320/3/6 327/3/6
f 325/1/6 326/1/6 332/1/6
f 332/1/6 326/1/6 333/1/6
f 328/1/6 329/1/6 334/1/6
f 334/1/6 329/1/6 335/1/6
f 330/1/6 331/1/6 336/1/6
f 336/1/6 331/1/6 337/1/6
f 338/3/6 339/3/6 343/3/6
f 339/1/6 340/1/6 344/1/6
f 343/3/6 339/3/6 344/3/6
f 344/1/6 340/1/6 345/1/6
f 341/1/6 342/1/6 346/1/6
f 346/1/6 342/1/6 347/1/6
f 343/1/6 344/1/6 350/1/6
f 350/1/6 344/1/6 351/1/6
f 348/1/6 349/1/6 353/1/6
f 353/1/6 349/1/6 354/1/6
f 351/1/6 352/1/6 355/1/6
f 350/1/6 351/1/6 355/1/6
f 355/1/6 352/1/6 356/1/6
f 357/2/6 358/2/6 359/2/6
f 359/2/6 358/2/6 360/2/6
f 361/3/6 362/3/6 365/3/6
f 365/3/6 362/3/6 366/3/6
f 363/1/6 364/1/6 367/1/6
f 364/1/6 365/1/6 367/1/6
f 367/1/6 365/1/6 368/1/6
f 369/1/6 370/1/6 371/1/6
f 371/1/6 370/1/6 372/1/6
