# MagicaVoxel @ Ephtracy

# group
o 

# material
mtllib solid_knight.mtl
usemtl palette

# normals
vn -1 0 0
vn 1 0 0
vn 0 0 1
vn 0 0 -1
vn 0 -1 0
vn 0 1 0

# texcoords
vt 0.970703 0.5
vt 0.974609 0.5
vt 0.978516 0.5
vt 0.982422 0.5
vt 0.986328 0.5
vt 0.990234 0.5

# verts
v -0.5 0.6 0.2
v -0.5 0.6 0.1
v -0.5 0.7 0.2
v -0.5 0.7 0.1
v -0.4 0 0.4
v -0.4 0 -0.4
v -0.4 0.1 0.4
v -0.4 0.1 -0.4
v -0.4 0.5 0.2
v -0.4 0.5 0.1
v -0.4 0.6 0.2
v -0.4 0.6 0.1
v -0.4 0.7 0.2
v -0.4 0.7 0.1
v -0.4 1 0.2
v -0.4 1 0.1
v -0.3 0.1 0.1
v -0.3 0.1 -0.1
v -0.3 0.3 0.1
v -0.3 0.3 -0.1
v -0.3 0.5 0.1
v -0.3 0.6 0.1
v -0.3 0.6 0
v -0.3 0.7 0.1
v -0.3 0.7 0
v -0.3 0.9 0
v -0.3 0.9 -0.1
v -0.3 1 0.1
v -0.3 1 -0.1
v -0.1 1 0.1
v -0.1 1 -0.1
v -0.1 1.2 0.1
v -0.1 1.2 -0.1
v 0.1 0.1 0.1
v 0.1 0.1 -0.1
v 0.1 0.3 0.1
v 0.1 0.3 -0.1
v 0.1 0.4 0.1
v 0.1 0.4 -0.1
v 0.2 0.5 0.2
v 0.2 0.5 0.1
v 0.2 0.6 0.1
v 0.2 0.7 0.1
v 0.2 0.8 0.2
v 0.2 0.8 0.1
v -0.3 0.5 0.2
v -0.3 0.5 0.1
v -0.3 0.6 0.2
v -0.3 0.6 0.1
v -0.3 0.7 0.2
v -0.3 0.7 0.1
v -0.3 1 0.2
v -0.3 1 0.1
v -0.2 0.6 0.2
v -0.2 0.6 0.1
v -0.2 0.7 0.2
v -0.2 0.7 0.1
v -0.1 0.1 0.1
v -0.1 0.1 -0.1
v -0.1 0.3 0.1
v -0.1 0.3 -0.1
v -0.1 0.4 0.1
v -0.1 0.4 -0.1
v 0.1 1 0.1
v 0.1 1 -0.1
v 0.1 1.2 0.1
v 0.1 1.2 -0.1
v 0.3 0.1 0.1
v 0.3 0.1 -0.1
v 0.3 0.3 0.1
v 0.3 0.3 -0.1
v 0.3 0.5 0.1
v 0.3 0.6 0.1
v 0.3 0.6 0
v 0.3 0.7 0.1
v 0.3 0.7 0
v 0.3 0.7 -0.1
v 0.3 0.8 0.1
v 0.3 1 0.1
v 0.3 1 -0.1
v 0.4 0 0.4
v 0.4 0 -0.4
v 0.4 0.1 0.4
v 0.4 0.1 -0.4
v 0.5 0.5 0.2
v 0.5 0.5 0.1
v 0.5 0.8 0.2
v 0.5 0.8 0.1
v -0.4 0 0.4
v -0.4 0.1 0.4
v 0.4 0 0.4
v 0.4 0.1 0.4
v -0.5 0.6 0.2
v -0.5 0.7 0.2
v -0.4 0.5 0.2
v -0.4 0.6 0.2
v -0.4 0.7 0.2
v -0.4 1 0.2
v -0.3 0.5 0.2
v -0.3 0.6 0.2
v -0.3 0.7 0.2
v -0.3 1 0.2
v -0.2 0.6 0.2
v -0.2 0.7 0.2
v 0.2 0.5 0.2
v 0.2 0.8 0.2
v 0.3 0.6 0.2
v 0.3 0.7 0.2
v 0.4 0.6 0.2
v 0.4 0.7 0.2
v 0.5 0.5 0.2
v 0.5 0.8 0.2
v -0.3 0.1 0.1
v -0.3 0.3 0.1
v -0.3 0.5 0.1
v -0.3 0.6 0.1
v -0.3 0.7 0.1
v -0.3 1 0.1
v -0.2 0.6 0.1
v -0.2 0.7 0.1
v -0.1 0.1 0.1
v -0.1 0.3 0.1
v -0.1 0.4 0.1
v -0.1 0.7 0.1
v -0.1 1 0.1
v -0.1 1.2 0.1
v 0.1 0.1 0.1
v 0.1 0.3 0.1
v 0.1 0.4 0.1
v 0.1 0.7 0.1
v 0.1 1 0.1
v 0.1 1.2 0.1
v 0.2 0.5 0.1
v 0.2 0.6 0.1
v 0.2 0.7 0.1
v 0.2 0.8 0.1
v 0.3 0.1 0.1
v 0.3 0.3 0.1
v 0.3 0.5 0.1
v 0.3 0.8 0.1
v 0.3 1 0.1
v -0.5 0.6 0.1
v -0.5 0.7 0.1
v -0.4 0.5 0.1
v -0.4 0.6 0.1
v -0.4 0.7 0.1
v -0.4 1 0.1
v -0.3 0.5 0.1
v -0.3 0.6 0.1
v -0.3 0.7 0.1
v -0.3 1 0.1
v 0.3 0.5 0.1
v 0.3 0.6 0.1
v 0.3 0.7 0.1
v 0.3 0.8 0.1
v 0.4 0.6 0.1
v 0.4 0.7 0.1
v 0.5 0.5 0.1
v 0.5 0.8 0.1
v -0.3 0.1 -0.1
v -0.3 0.3 -0.1
v -0.3 0.9 -0.1
v -0.3 1 -0.1
v -0.1 0.1 -0.1
v -0.1 0.3 -0.1
v -0.1 0.4 -0.1
v -0.1 1 -0.1
v -0.1 1.2 -0.1
v 0.1 0.1 -0.1
v 0.1 0.3 -0.1
v 0.1 0.4 -0.1
v 0.1 1 -0.1
v 0.1 1.2 -0.1
v 0.2 0.7 -0.1
v 0.2 0.9 -0.1
v 0.3 0.1 -0.1
v 0.3 0.3 -0.1
v 0.3 0.7 -0.1
v 0.3 1 -0.1
v -0.4 0 -0.4
v -0.4 0.1 -0.4
v 0.4 0 -0.4
v 0.4 0.1 -0.4
v -0.4 0 0.4
v 0.4 0 0.4
v -0.4 0 -0.4
v 0.4 0 -0.4
v -0.1 0.4 0.1
v 0.1 0.4 0.1
v -0.1 0.4 -0.1
v 0.1 0.4 -0.1
v -0.4 0.5 0.2
v -0.3 0.5 0.2
v 0.2 0.5 0.2
v 0.5 0.5 0.2
v -0.4 0.5 0.1
v -0.3 0.5 0.1
v 0.2 0.5 0.1
v 0.3 0.5 0.1
v 0.5 0.5 0.1
v -0.5 0.6 0.2
v -0.4 0.6 0.2
v -0.3 0.6 0.2
v -0.2 0.6 0.2
v -0.5 0.6 0.1
v -0.4 0.6 0.1
v -0.3 0.6 0.1
v -0.2 0.6 0.1
v -0.4 0.1 0.4
v 0.4 0.1 0.4
v -0.3 0.1 0.1
v -0.1 0.1 0.1
v 0.1 0.1 0.1
v 0.3 0.1 0.1
v -0.3 0.1 -0.1
v -0.1 0.1 -0.1
v 0.1 0.1 -0.1
v 0.3 0.1 -0.1
v -0.4 0.1 -0.4
v 0.4 0.1 -0.4
v -0.5 0.7 0.2
v -0.4 0.7 0.2
v -0.3 0.7 0.2
v -0.2 0.7 0.2
v -0.5 0.7 0.1
v -0.4 0.7 0.1
v -0.3 0.7 0.1
v -0.2 0.7 0.1
v 0.2 0.8 0.2
v 0.5 0.8 0.2
v 0.2 0.8 0.1
v 0.3 0.8 0.1
v 0.5 0.8 0.1
v -0.4 1 0.2
v -0.3 1 0.2
v -0.4 1 0.1
v -0.3 1 0.1
v -0.1 1 0.1
v 0.1 1 0.1
v 0.3 1 0.1
v -0.3 1 -0.1
v -0.1 1 -0.1
v 0.1 1 -0.1
v 0.3 1 -0.1
v -0.1 1.2 0.1
v 0.1 1.2 0.1
v -0.1 1.2 -0.1
v 0.1 1.2 -0.1

# faces
f 3/4/1 2/4/1 1/4/1
f 4/4/1 2/4/1 3/4/1
f 7/2/1 6/2/1 5/2/1
f 8/2/1 6/2/1 7/2/1
f 11/4/1 10/4/1 9/4/1
f 12/4/1 10/4/1 11/4/1
f 15/3/1 14/3/1 13/3/1
f 16/3/1 14/3/1 15/3/1
f 19/5/1 18/5/1 17/5/1
f 20/5/1 18/5/1 19/5/1
f 21/3/1 20/3/1 19/3/1
f 22/3/1 20/3/1 21/3/1
f 23/3/1 20/3/1 22/3/1
f 24/5/1 23/5/1 22/5/1
f 25/3/1 20/3/1 23/3/1
f 25/5/1 23/5/1 24/5/1
f 26/1/1 25/1/1 24/1/1
f 26/3/1 20/3/1 25/3/1
f 27/3/1 20/3/1 26/3/1
f 28/1/1 26/1/1 24/1/1
f 28/1/1 27/1/1 26/1/1
f 29/1/1 27/1/1 28/1/1
f 32/4/1 31/4/1 30/4/1
f 33/4/1 31/4/1 32/4/1
f 36/5/1 35/5/1 34/5/1
f 37/5/1 35/5/1 36/5/1
f 38/3/1 37/3/1 36/3/1
f 39/3/1 37/3/1 38/3/1
f 42/6/1 41/6/1 40/6/1
f 43/6/1 42/6/1 40/6/1
f 44/6/1 43/6/1 40/6/1
f 45/6/1 43/6/1 44/6/1
f 46/4/2 47/4/2 48/4/2
f 48/4/2 47/4/2 49/4/2
f 50/3/2 51/3/2 52/3/2
f 52/3/2 51/3/2 53/3/2
f 54/4/2 55/4/2 56/4/2
f 56/4/2 55/4/2 57/4/2
f 58/5/2 59/5/2 60/5/2
f 60/5/2 59/5/2 61/5/2
f 60/3/2 61/3/2 62/3/2
f 62/3/2 61/3/2 63/3/2
f 64/4/2 65/4/2 66/4/2
f 66/4/2 65/4/2 67/4/2
f 68/5/2 69/5/2 70/5/2
f 70/5/2 69/5/2 71/5/2
f 70/3/2 71/3/2 72/3/2
f 72/3/2 71/3/2 73/3/2
f 73/3/2 71/3/2 74/3/2
f 73/5/2 74/5/2 75/5/2
f 74/3/2 71/3/2 76/3/2
f 75/5/2 74/5/2 76/5/2
f 76/3/2 71/3/2 77/3/2
f 75/1/2 76/1/2 78/1/2
f 76/1/2 77/1/2 78/1/2
f 78/1/2 77/1/2 79/1/2
f 79/1/2 77/1/2 80/1/2
f 81/2/2 82/2/2 83/2/2
f 83/2/2 82/2/2 84/2/2
f 85/6/2 86/6/2 87/6/2
f 87/6/2 86/6/2 88/6/2
f 91/2/3 90/2/3 89/2/3
f 92/2/3 90/2/3 91/2/3
f 96/4/3 94/4/3 93/4/3
f 97/4/3 94/4/3 96/4/3
f 99/4/3 96/4/3 95/4/3
f 100/6/3 97/6/3 96/6/3
f 100/4/3 96/4/3 99/4/3
f 101/3/3 98/3/3 97/3/3
f 101/6/3 97/6/3 100/6/3
f 102/3/3 98/3/3 101/3/3
f 103/4/3 101/4/3 100/4/3
f 104/4/3 101/4/3 103/4/3
f 107/6/3 106/6/3 105/6/3
f 108/6/3 106/6/3 107/6/3
f 109/6/3 107/6/3 105/6/3
f 109/1/3 108/1/3 107/1/3
f 110/6/3 106/6/3 108/6/3
f 110/1/3 108/1/3 109/1/3
f 111/6/3 109/6/3 105/6/3
f 111/6/3 110/6/3 109/6/3
f 112/6/3 106/6/3 110/6/3
f 112/6/3 110/6/3 111/6/3
f 119/3/3 115/3/3 114/3/3
f 119/3/3 116/3/3 115/3/3
f 120/1/3 118/1/3 117/1/3
f 121/5/3 114/5/3 113/5/3
f 122/3/3 119/3/3 114/3/3
f 122/5/3 114/5/3 121/5/3
f 123/3/3 119/3/3 122/3/3
f 124/5/3 120/5/3 119/5/3
f 124/1/3 118/1/3 120/1/3
f 125/1/3 118/1/3 124/1/3
f 129/3/3 119/3/3 123/3/3
f 130/6/3 125/6/3 124/6/3
f 130/5/3 124/5/3 119/5/3
f 131/4/3 126/4/3 125/4/3
f 131/6/3 125/6/3 130/6/3
f 132/4/3 126/4/3 131/4/3
f 133/3/3 129/3/3 128/3/3
f 133/3/3 119/3/3 129/3/3
f 134/5/3 130/5/3 119/5/3
f 134/3/3 119/3/3 133/3/3
f 135/1/3 131/1/3 130/1/3
f 135/5/3 130/5/3 134/5/3
f 136/1/3 131/1/3 135/1/3
f 137/5/3 128/5/3 127/5/3
f 138/3/3 133/3/3 128/3/3
f 138/5/3 128/5/3 137/5/3
f 139/3/3 133/3/3 138/3/3
f 140/1/3 131/1/3 136/1/3
f 141/1/3 131/1/3 140/1/3
f 142/4/4 143/4/4 145/4/4
f 145/4/4 143/4/4 146/4/4
f 144/4/4 145/4/4 148/4/4
f 145/6/4 146/6/4 149/6/4
f 148/4/4 145/4/4 149/4/4
f 146/3/4 147/3/4 150/3/4
f 149/6/4 146/6/4 150/6/4
f 150/3/4 147/3/4 151/3/4
f 152/6/4 153/6/4 156/6/4
f 153/1/4 154/1/4 156/1/4
f 154/6/4 155/6/4 157/6/4
f 156/1/4 154/1/4 157/1/4
f 152/6/4 156/6/4 158/6/4
f 156/6/4 157/6/4 158/6/4
f 157/6/4 155/6/4 159/6/4
f 158/6/4 157/6/4 159/6/4
f 160/5/4 161/5/4 164/5/4
f 161/3/4 162/3/4 165/3/4
f 164/5/4 161/5/4 165/5/4
f 165/3/4 162/3/4 166/3/4
f 162/1/4 163/1/4 167/1/4
f 166/3/4 162/3/4 171/3/4
f 167/4/4 168/4/4 172/4/4
f 162/1/4 167/1/4 172/1/4
f 172/4/4 168/4/4 173/4/4
f 170/3/4 171/3/4 174/3/4
f 171/3/4 162/3/4 174/3/4
f 162/1/4 172/1/4 175/1/4
f 174/3/4 162/3/4 175/3/4
f 169/5/4 170/5/4 176/5/4
f 170/3/4 174/3/4 177/3/4
f 176/5/4 170/5/4 177/5/4
f 174/1/4 175/1/4 178/1/4
f 177/3/4 174/3/4 178/3/4
f 175/1/4 172/1/4 179/1/4
f 178/1/4 175/1/4 179/1/4
f 180/2/4 181/2/4 182/2/4
f 182/2/4 181/2/4 183/2/4
f 186/2/5 185/2/5 184/2/5
f 187/2/5 185/2/5 186/2/5
f 190/3/5 189/3/5 188/3/5
f 191/3/5 189/3/5 190/3/5
f 196/4/5 193/4/5 192/4/5
f 197/4/5 193/4/5 196/4/5
f 198/6/5 195/6/5 194/6/5
f 199/6/5 195/6/5 198/6/5
f 200/6/5 195/6/5 199/6/5
f 205/4/5 202/4/5 201/4/5
f 206/4/5 202/4/5 205/4/5
f 207/4/5 204/4/5 203/4/5
f 208/4/5 204/4/5 207/4/5
f 209/2/6 210/2/6 211/2/6
f 211/2/6 210/2/6 212/2/6
f 212/2/6 210/2/6 213/2/6
f 213/2/6 210/2/6 214/2/6
f 209/2/6 211/2/6 215/2/6
f 212/2/6 213/2/6 216/2/6
f 216/2/6 213/2/6 217/2/6
f 214/2/6 210/2/6 218/2/6
f 216/2/6 217/2/6 219/2/6
f 217/2/6 218/2/6 219/2/6
f 209/2/6 215/2/6 219/2/6
f 215/2/6 216/2/6 219/2/6
f 218/2/6 210/2/6 220/2/6
f 219/2/6 218/2/6 220/2/6
f 221/4/6 222/4/6 225/4/6
f 225/4/6 222/4/6 226/4/6
f 223/4/6 224/4/6 227/4/6
f 227/4/6 224/4/6 228/4/6
f 229/6/6 230/6/6 231/6/6
f 231/6/6 230/6/6 232/6/6
f 232/6/6 230/6/6 233/6/6
f 234/3/6 235/3/6 236/3/6
f 236/3/6 235/3/6 237/3/6
f 237/1/6 238/1/6 241/1/6
f 241/1/6 238/1/6 242/1/6
f 239/1/6 240/1/6 243/1/6
f 243/1/6 240/1/6 244/1/6
f 245/4/6 246/4/6 247/4/6
f 247/4/6 246/4/6 248/4/6
