# MagicaVoxel @ Ephtracy

# group
o 

# material
mtllib solid_lamp.mtl
usemtl palette

# normals
vn -1 0 0
vn 1 0 0
vn 0 0 1
vn 0 0 -1
vn 0 -1 0
vn 0 1 0

# texcoords
vt 0.0917969 0.5
vt 0.982422 0.5
vt 0.990234 0.5

# verts
v -0.3 0.5 0.1
v -0.3 0.5 0
v -0.3 0.6 0.1
v -0.3 0.6 0
v -0.3 0.7 0.1
v -0.3 0.7 0
v -0.3 0.8 0.1
v -0.3 0.8 0
v -0.2 0 0.2
v -0.2 0 -0.1
v -0.2 0.1 0.2
v -0.2 0.1 -0.1
v -0.1 0.1 0.1
v -0.1 0.1 0
v -0.1 0.5 0.1
v -0.1 0.5 0
v -0.1 0.6 0.1
v -0.1 0.6 0
v -0.1 0.9 0.1
v -0.1 0.9 0
v -0.1 1 0.1
v -0.1 1 0
v 0.1 0.6 0.1
v 0.1 0.6 0
v 0.1 0.7 0.1
v 0.1 0.7 0
v 0.1 0.8 0.1
v 0.1 0.8 0
v -0.2 0.6 0.1
v -0.2 0.6 0
v -0.2 0.7 0.1
v -0.2 0.7 0
v -0.2 0.8 0.1
v -0.2 0.8 0
v -2.98023e-08 0.1 0.1
v -2.98023e-08 0.1 0
v -2.98023e-08 0.5 0.1
v -2.98023e-08 0.5 0
v -2.98023e-08 0.6 0.1
v -2.98023e-08 0.6 0
v -2.98023e-08 0.9 0.1
v -2.98023e-08 0.9 0
v -2.98023e-08 1 0.1
v -2.98023e-08 1 0
v 0.1 0 0.2
v 0.1 0 -0.1
v 0.1 0.1 0.2
v 0.1 0.1 -0.1
v 0.2 0.5 0.1
v 0.2 0.5 0
v 0.2 0.6 0.1
v 0.2 0.6 0
v 0.2 0.7 0.1
v 0.2 0.7 0
v 0.2 0.8 0.1
v 0.2 0.8 0
v -0.2 0 0.2
v -0.2 0.1 0.2
v 0.1 0 0.2
v 0.1 0.1 0.2
v -0.3 0.5 0.1
v -0.3 0.6 0.1
v -0.3 0.7 0.1
v -0.3 0.8 0.1
v -0.2 0.6 0.1
v -0.2 0.7 0.1
v -0.2 0.8 0.1
v -0.1 0.1 0.1
v -0.1 0.5 0.1
v -0.1 0.6 0.1
v -0.1 0.9 0.1
v -0.1 1 0.1
v -2.98023e-08 0.1 0.1
v -2.98023e-08 0.5 0.1
v -2.98023e-08 0.6 0.1
v -2.98023e-08 0.9 0.1
v -2.98023e-08 1 0.1
v 0.1 0.6 0.1
v 0.1 0.7 0.1
v 0.1 0.8 0.1
v 0.2 0.5 0.1
v 0.2 0.6 0.1
v 0.2 0.7 0.1
v 0.2 0.8 0.1
v -0.3 0.5 0
v -0.3 0.6 0
v -0.3 0.7 0
v -0.3 0.8 0
v -0.2 0.6 0
v -0.2 0.7 0
v -0.2 0.8 0
v -0.1 0.1 0
v -0.1 0.5 0
v -0.1 0.6 0
v -0.1 0.9 0
v -0.1 1 0
v -2.98023e-08 0.1 0
v -2.98023e-08 0.5 0
v -2.98023e-08 0.6 0
v -2.98023e-08 0.9 0
v -2.98023e-08 1 0
v 0.1 0.6 0
v 0.1 0.7 0
v 0.1 0.8 0
v 0.2 0.5 0
v 0.2 0.6 0
v 0.2 0.7 0
v 0.2 0.8 0
v -0.2 0 -0.1
v -0.2 0.1 -0.1
v 0.1 0 -0.1
v 0.1 0.1 -0.1
v -0.2 0 0.2
v 0.1 0 0.2
v -0.2 0 -0.1
v 0.1 0 -0.1
v -0.3 0.5 0.1
v -0.1 0.5 0.1
v -2.98023e-08 0.5 0.1
v 0.2 0.5 0.1
v -0.3 0.5 0
v -0.1 0.5 0
v -2.98023e-08 0.5 0
v 0.2 0.5 0
v -0.2 0.1 0.2
v 0.1 0.1 0.2
v -0.1 0.1 0.1
v -2.98023e-08 0.1 0.1
v -0.1 0.1 0
v -2.98023e-08 0.1 0
v -0.2 0.1 -0.1
v 0.1 0.1 -0.1
v -0.2 0.6 0.1
v -0.1 0.6 0.1
v -2.98023e-08 0.6 0.1
v 0.1 0.6 0.1
v -0.2 0.6 0
v -0.1 0.6 0
v -2.98023e-08 0.6 0
v 0.1 0.6 0
v -0.3 0.8 0.1
v -0.2 0.8 0.1
v 0.1 0.8 0.1
v 0.2 0.8 0.1
v -0.3 0.8 0
v -0.2 0.8 0
v 0.1 0.8 0
v 0.2 0.8 0
v -0.1 1 0.1
v -2.98023e-08 1 0.1
v -0.1 1 0
v -2.98023e-08 1 0

# faces
f 3/3/1 2/3/1 1/3/1
f 4/3/1 2/3/1 3/3/1
f 5/2/1 4/2/1 3/2/1
f 6/2/1 4/2/1 5/2/1
f 7/1/1 6/1/1 5/1/1
f 8/1/1 6/1/1 7/1/1
f 11/3/1 10/3/1 9/3/1
f 12/3/1 10/3/1 11/3/1
f 15/3/1 14/3/1 13/3/1
f 16/3/1 14/3/1 15/3/1
f 19/2/1 18/2/1 17/2/1
f 20/2/1 18/2/1 19/2/1
f 21/1/1 20/1/1 19/1/1
f 22/1/1 20/1/1 21/1/1
f 25/2/1 24/2/1 23/2/1
f 26/2/1 24/2/1 25/2/1
f 27/1/1 26/1/1 25/1/1
f 28/1/1 26/1/1 27/1/1
f 29/2/2 30/2/2 31/2/2
f 31/2/2 30/2/2 32/2/2
f 31/1/2 32/1/2 33/1/2
f 33/1/2 32/1/2 34/1/2
f 35/3/2 36/3/2 37/3/2
f 37/3/2 36/3/2 38/3/2
f 39/2/2 40/2/2 41/2/2
f 41/2/2 40/2/2 42/2/2
f 41/1/2 42/1/2 43/1/2
f 43/1/2 42/1/2 44/1/2
f 45/3/2 46/3/2 47/3/2
f 47/3/2 46/3/2 48/3/2
f 49/3/2 50/3/2 51/3/2
f 51/3/2 50/3/2 52/3/2
f 51/2/2 52/2/2 53/2/2
f 53/2/2 52/2/2 54/2/2
f 53/1/2 54/1/2 55/1/2
f 55/1/2 54/1/2 56/1/2
f 59/3/3 58/3/3 57/3/3
f 60/3/3 58/3/3 59/3/3
f 65/3/3 62/3/3 61/3/3
f 65/2/3 63/2/3 62/2/3
f 66/1/3 64/1/3 63/1/3
f 66/2/3 63/2/3 65/2/3
f 67/1/3 64/1/3 66/1/3
f 69/3/3 65/3/3 61/3/3
f 70/3/3 65/3/3 69/3/3
f 73/3/3 70/3/3 69/3/3
f 73/3/3 69/3/3 68/3/3
f 74/3/3 70/3/3 73/3/3
f 75/2/3 71/2/3 70/2/3
f 75/3/3 70/3/3 74/3/3
f 76/1/3 72/1/3 71/1/3
f 76/2/3 71/2/3 75/2/3
f 77/1/3 72/1/3 76/1/3
f 78/3/3 75/3/3 74/3/3
f 81/3/3 78/3/3 74/3/3
f 82/2/3 79/2/3 78/2/3
f 82/3/3 78/3/3 81/3/3
f 83/1/3 80/1/3 79/1/3
f 83/2/3 79/2/3 82/2/3
f 84/1/3 80/1/3 83/1/3
f 85/3/4 86/3/4 89/3/4
f 86/2/4 87/2/4 89/2/4
f 87/1/4 88/1/4 90/1/4
f 89/2/4 87/2/4 90/2/4
f 90/1/4 88/1/4 91/1/4
f 85/3/4 89/3/4 93/3/4
f 93/3/4 89/3/4 94/3/4
f 93/3/4 94/3/4 97/3/4
f 92/3/4 93/3/4 97/3/4
f 97/3/4 94/3/4 98/3/4
f 94/2/4 95/2/4 99/2/4
f 98/3/4 94/3/4 99/3/4
f 95/1/4 96/1/4 100/1/4
f 99/2/4 95/2/4 100/2/4
f 100/1/4 96/1/4 101/1/4
f 98/3/4 99/3/4 102/3/4
f 98/3/4 102/3/4 105/3/4
f 102/2/4 103/2/4 106/2/4
f 105/3/4 102/3/4 106/3/4
f 103/1/4 104/1/4 107/1/4
f 106/2/4 103/2/4 107/2/4
f 107/1/4 104/1/4 108/1/4
f 109/3/4 110/3/4 111/3/4
f 111/3/4 110/3/4 112/3/4
f 115/3/5 114/3/5 113/3/5
f 116/3/5 114/3/5 115/3/5
f 121/3/5 118/3/5 117/3/5
f 122/3/5 118/3/5 121/3/5
f 123/3/5 120/3/5 119/3/5
f 124/3/5 120/3/5 123/3/5
f 125/3/6 126/3/6 127/3/6
f 127/3/6 126/3/6 128/3/6
f 125/3/6 127/3/6 129/3/6
f 128/3/6 126/3/6 130/3/6
f 125/3/6 129/3/6 131/3/6
f 129/3/6 130/3/6 131/3/6
f 130/3/6 126/3/6 132/3/6
f 131/3/6 130/3/6 132/3/6
f 133/3/6 134/3/6 137/3/6
f 137/3/6 134/3/6 138/3/6
f 135/3/6 136/3/6 139/3/6
f 139/3/6 136/3/6 140/3/6
f 141/1/6 142/1/6 145/1/6
f 145/1/6 142/1/6 146/1/6
f 143/1/6 144/1/6 147/1/6
f 147/1/6 144/1/6 148/1/6
f 149/1/6 150/1/6 151/1/6
f 151/1/6 150/1/6 152/1/6
