# MagicaVoxel @ Ephtracy

# group
o 

# material
mtllib door.mtl
usemtl palette

# normals
vn -1 0 0
vn 1 0 0
vn 0 0 1
vn 0 0 -1
vn 0 -1 0
vn 0 1 0

# texcoords
vt 0.376953 0.5
vt 0.408203 0.5
vt 0.958984 0.5

# verts
v -0.6 0 -0.5
v -0.6 0 -0.6
v -0.6 2 -0.5
v -0.6 2 -0.6
v 0.6 0 -0.5
v 0.6 0 -0.6
v 0.6 2 -0.5
v 0.6 2 -0.6
v -0.6 0 -0.5
v -0.6 2 -0.5
v -0.4 0.6 -0.5
v -0.4 1.4 -0.5
v -0.3 0.8 -0.5
v -0.3 1.3 -0.5
v -0.2 0.7 -0.5
v -0.2 0.8 -0.5
v -0.2 1 -0.5
v -0.2 1.1 -0.5
v -0.1 0 -0.5
v -0.1 0.6 -0.5
v -0.1 1 -0.5
v -0.1 1.1 -0.5
v -0.1 1.4 -0.5
v -0.1 2 -0.5
v 0.1 0 -0.5
v 0.1 0.6 -0.5
v 0.1 1 -0.5
v 0.1 1.1 -0.5
v 0.1 1.4 -0.5
v 0.1 2 -0.5
v 0.2 0.7 -0.5
v 0.2 0.8 -0.5
v 0.2 1 -0.5
v 0.2 1.1 -0.5
v 0.3 0.8 -0.5
v 0.3 1.3 -0.5
v 0.4 0.6 -0.5
v 0.4 1.4 -0.5
v 0.6 0 -0.5
v 0.6 2 -0.5
v -0.6 0 -0.6
v -0.6 2 -0.6
v -0.4 0.6 -0.6
v -0.4 1.4 -0.6
v -0.3 0.8 -0.6
v -0.3 1.3 -0.6
v -0.2 0.7 -0.6
v -0.2 0.8 -0.6
v -0.2 1 -0.6
v -0.2 1.1 -0.6
v -0.1 0 -0.6
v -0.1 0.6 -0.6
v -0.1 1 -0.6
v -0.1 1.1 -0.6
v -0.1 1.4 -0.6
v -0.1 2 -0.6
v 0.1 0 -0.6
v 0.1 0.6 -0.6
v 0.1 1 -0.6
v 0.1 1.1 -0.6
v 0.1 1.4 -0.6
v 0.1 2 -0.6
v 0.2 0.7 -0.6
v 0.2 0.8 -0.6
v 0.2 1 -0.6
v 0.2 1.1 -0.6
v 0.3 0.8 -0.6
v 0.3 1.3 -0.6
v 0.4 0.6 -0.6
v 0.4 1.4 -0.6
v 0.6 0 -0.6
v 0.6 2 -0.6
v -0.6 0 -0.5
v -0.1 0 -0.5
v 0.1 0 -0.5
v 0.6 0 -0.5
v -0.6 0 -0.6
v -0.1 0 -0.6
v 0.1 0 -0.6
v 0.6 0 -0.6
v -0.6 2 -0.5
v -0.1 2 -0.5
v 0.1 2 -0.5
v 0.6 2 -0.5
v -0.6 2 -0.6
v -0.1 2 -0.6
v 0.1 2 -0.6
v 0.6 2 -0.6

# faces
f 3/2/1 2/2/1 1/2/1
f 4/2/1 2/2/1 3/2/1
f 5/2/2 6/2/2 7/2/2
f 7/2/2 6/2/2 8/2/2
f 11/2/3 10/2/3 9/2/3
f 12/2/3 10/2/3 11/2/3
f 13/1/3 12/1/3 11/1/3
f 14/1/3 12/1/3 13/1/3
f 15/1/3 13/1/3 11/1/3
f 16/3/3 14/3/3 13/3/3
f 16/1/3 13/1/3 15/1/3
f 17/3/3 14/3/3 16/3/3
f 18/3/3 14/3/3 17/3/3
f 19/2/3 11/2/3 9/2/3
f 20/1/3 15/1/3 11/1/3
f 20/2/3 11/2/3 19/2/3
f 21/3/3 16/3/3 15/3/3
f 21/3/3 17/3/3 16/3/3
f 21/2/3 18/2/3 17/2/3
f 22/3/3 14/3/3 18/3/3
f 22/2/3 18/2/3 21/2/3
f 23/2/3 10/2/3 12/2/3
f 23/1/3 12/1/3 14/1/3
f 24/2/3 10/2/3 23/2/3
f 25/1/3 20/1/3 19/1/3
f 26/1/3 15/1/3 20/1/3
f 26/1/3 20/1/3 25/1/3
f 27/3/3 21/3/3 15/3/3
f 27/3/3 22/3/3 21/3/3
f 28/3/3 14/3/3 22/3/3
f 28/3/3 22/3/3 27/3/3
f 29/1/3 23/1/3 14/1/3
f 29/1/3 24/1/3 23/1/3
f 30/1/3 24/1/3 29/1/3
f 31/1/3 15/1/3 26/1/3
f 31/3/3 27/3/3 15/3/3
f 32/3/3 27/3/3 31/3/3
f 33/2/3 28/2/3 27/2/3
f 33/3/3 27/3/3 32/3/3
f 34/3/3 14/3/3 28/3/3
f 34/2/3 28/2/3 33/2/3
f 35/3/3 33/3/3 32/3/3
f 35/1/3 32/1/3 31/1/3
f 35/3/3 34/3/3 33/3/3
f 36/3/3 14/3/3 34/3/3
f 36/3/3 34/3/3 35/3/3
f 36/1/3 29/1/3 14/1/3
f 37/2/3 26/2/3 25/2/3
f 37/1/3 35/1/3 31/1/3
f 37/1/3 36/1/3 35/1/3
f 37/1/3 31/1/3 26/1/3
f 38/2/3 30/2/3 29/2/3
f 38/1/3 36/1/3 37/1/3
f 38/1/3 29/1/3 36/1/3
f 39/2/3 37/2/3 25/2/3
f 39/2/3 38/2/3 37/2/3
f 40/2/3 30/2/3 38/2/3
f 40/2/3 38/2/3 39/2/3
f 41/2/4 42/2/4 43/2/4
f 43/2/4 42/2/4 44/2/4
f 43/1/4 44/1/4 45/1/4
f 45/1/4 44/1/4 46/1/4
f 43/1/4 45/1/4 47/1/4
f 45/3/4 46/3/4 48/3/4
f 47/1/4 45/1/4 48/1/4
f 48/3/4 46/3/4 49/3/4
f 49/3/4 46/3/4 50/3/4
f 41/2/4 43/2/4 51/2/4
f 43/1/4 47/1/4 52/1/4
f 51/2/4 43/2/4 52/2/4
f 47/3/4 48/3/4 53/3/4
f 48/3/4 49/3/4 53/3/4
f 49/2/4 50/2/4 53/2/4
f 50/3/4 46/3/4 54/3/4
f 53/2/4 50/2/4 54/2/4
f 44/2/4 42/2/4 55/2/4
f 46/1/4 44/1/4 55/1/4
f 55/2/4 42/2/4 56/2/4
f 51/1/4 52/1/4 57/1/4
f 52/1/4 47/1/4 58/1/4
f 57/1/4 52/1/4 58/1/4
f 47/3/4 53/3/4 59/3/4
f 53/3/4 54/3/4 59/3/4
f 54/3/4 46/3/4 60/3/4
f 59/3/4 54/3/4 60/3/4
f 46/1/4 55/1/4 61/1/4
f 55/1/4 56/1/4 61/1/4
f 61/1/4 56/1/4 62/1/4
f 58/1/4 47/1/4 63/1/4
f 47/3/4 59/3/4 63/3/4
f 63/3/4 59/3/4 64/3/4
f 59/2/4 60/2/4 65/2/4
f 64/3/4 59/3/4 65/3/4
f 60/3/4 46/3/4 66/3/4
f 65/2/4 60/2/4 66/2/4
f 64/3/4 65/3/4 67/3/4
f 63/1/4 64/1/4 67/1/4
f 65/3/4 66/3/4 67/3/4
f 66/3/4 46/3/4 68/3/4
f 67/3/4 66/3/4 68/3/4
f 46/1/4 61/1/4 68/1/4
f 57/2/4 58/2/4 69/2/4
f 63/1/4 67/1/4 69/1/4
f 67/1/4 68/1/4 69/1/4
f 58/1/4 63/1/4 69/1/4
f 61/2/4 62/2/4 70/2/4
f 69/1/4 68/1/4 70/1/4
f 68/1/4 61/1/4 70/1/4
f 57/2/4 69/2/4 71/2/4
f 69/2/4 70/2/4 71/2/4
f 70/2/4 62/2/4 72/2/4
f 71/2/4 70/2/4 72/2/4
f 77/2/5 74/2/5 73/2/5
f 78/1/5 75/1/5 74/1/5
f 78/2/5 74/2/5 77/2/5
f 79/2/5 76/2/5 75/2/5
f 79/1/5 75/1/5 78/1/5
f 80/2/5 76/2/5 79/2/5
f 81/2/6 82/2/6 85/2/6
f 82/1/6 83/1/6 86/1/6
f 85/2/6 82/2/6 86/2/6
f 83/2/6 84/2/6 87/2/6
f 86/1/6 83/1/6 87/1/6
f 87/2/6 84/2/6 88/2/6
