# MagicaVoxel @ Ephtracy

# group
o 

# material
mtllib floor_cube.mtl
usemtl palette

# normals
vn -1 0 0
vn 1 0 0
vn 0 0 1
vn 0 0 -1
vn 0 -1 0
vn 0 1 0

# texcoords
vt 0.306641 0.5
vt 0.376953 0.5
vt 0.380859 0.5

# verts
v -0.6 0 0.5
v -0.6 0 -0.7
v -0.6 0.1 0.4
v -0.6 0.1 -0.6
v -0.6 1.1 0.4
v -0.6 1.1 -0.6
v -0.6 1.2 0.5
v -0.6 1.2 -0.7
v 0.6 0 0.5
v 0.6 0 -0.7
v 0.6 0.1 0.4
v 0.6 0.1 -0.6
v 0.6 1.1 0.4
v 0.6 1.1 -0.6
v 0.6 1.2 0.5
v 0.6 1.2 -0.7
v -0.6 0 0.5
v -0.6 1.2 0.5
v -0.5 0.1 0.5
v -0.5 1.1 0.5
v 0.5 0.1 0.5
v 0.5 1.1 0.5
v 0.6 0 0.5
v 0.6 1.2 0.5
v -0.6 0 -0.7
v -0.6 1.2 -0.7
v -0.5 0.1 -0.7
v -0.5 1.1 -0.7
v 0.5 0.1 -0.7
v 0.5 1.1 -0.7
v 0.6 0 -0.7
v 0.6 1.2 -0.7
v -0.6 0 0.5
v 0.6 0 0.5
v -0.5 0 0.4
v 0.5 0 0.4
v -0.5 0 -0.6
v 0.5 0 -0.6
v -0.6 0 -0.7
v 0.6 0 -0.7
v -0.6 1.2 0.5
v 0.6 1.2 0.5
v -0.5 1.2 0.4
v 0.5 1.2 0.4
v -0.5 1.2 -0.6
v 0.5 1.2 -0.6
v -0.6 1.2 -0.7
v 0.6 1.2 -0.7

# faces
f 3/2/1 2/2/1 1/2/1
f 4/2/1 2/2/1 3/2/1
f 5/2/1 3/2/1 1/2/1
f 5/3/1 4/3/1 3/3/1
f 6/2/1 2/2/1 4/2/1
f 6/3/1 4/3/1 5/3/1
f 7/2/1 5/2/1 1/2/1
f 7/2/1 6/2/1 5/2/1
f 8/2/1 2/2/1 6/2/1
f 8/2/1 6/2/1 7/2/1
f 9/2/2 10/2/2 11/2/2
f 11/2/2 10/2/2 12/2/2
f 9/2/2 11/2/2 13/2/2
f 11/3/2 12/3/2 13/3/2
f 12/2/2 10/2/2 14/2/2
f 13/3/2 12/3/2 14/3/2
f 9/2/2 13/2/2 15/2/2
f 13/2/2 14/2/2 15/2/2
f 14/2/2 10/2/2 16/2/2
f 15/2/2 14/2/2 16/2/2
f 19/2/3 18/2/3 17/2/3
f 20/2/3 18/2/3 19/2/3
f 21/2/3 19/2/3 17/2/3
f 21/3/3 20/3/3 19/3/3
f 22/2/3 18/2/3 20/2/3
f 22/3/3 20/3/3 21/3/3
f 23/2/3 21/2/3 17/2/3
f 23/2/3 22/2/3 21/2/3
f 24/2/3 18/2/3 22/2/3
f 24/2/3 22/2/3 23/2/3
f 25/2/4 26/2/4 27/2/4
f 27/2/4 26/2/4 28/2/4
f 25/2/4 27/2/4 29/2/4
f 27/3/4 28/3/4 29/3/4
f 28/2/4 26/2/4 30/2/4
f 29/3/4 28/3/4 30/3/4
f 25/2/4 29/2/4 31/2/4
f 29/2/4 30/2/4 31/2/4
f 30/2/4 26/2/4 32/2/4
f 31/2/4 30/2/4 32/2/4
f 35/2/5 34/2/5 33/2/5
f 36/2/5 34/2/5 35/2/5
f 37/2/5 35/2/5 33/2/5
f 37/3/5 36/3/5 35/3/5
f 38/2/5 34/2/5 36/2/5
f 38/3/5 36/3/5 37/3/5
f 39/2/5 37/2/5 33/2/5
f 39/2/5 38/2/5 37/2/5
f 40/2/5 34/2/5 38/2/5
f 40/2/5 38/2/5 39/2/5
f 41/2/6 42/2/6 43/2/6
f 43/2/6 42/2/6 44/2/6
f 41/2/6 43/2/6 45/2/6
f 43/3/6 44/3/6 45/3/6
f 44/2/6 42/2/6 46/2/6
f 45/3/6 44/3/6 46/3/6
f 41/2/6 45/2/6 47/2/6
f 45/2/6 46/2/6 47/2/6
f 46/2/6 42/2/6 48/2/6
f 47/2/6 46/2/6 48/2/6
