# MagicaVoxel @ Ephtracy

# group
o 

# material
mtllib wall2.mtl
usemtl palette

# normals
vn -1 0 0
vn 1 0 0
vn 0 0 1
vn 0 0 -1
vn 0 -1 0
vn 0 1 0

# texcoords
vt 0.380859 0.5
vt 0.408203 0.5

# verts
v -0.6 0 -0.5
v -0.6 0 -0.6
v -0.6 2 -0.5
v -0.6 2 -0.6
v -0.5 0.2 -0.4
v -0.5 0.2 -0.5
v -0.5 0.3 -0.4
v -0.5 0.3 -0.5
v -0.5 1.6 -0.4
v -0.5 1.6 -0.5
v -0.5 1.7 -0.4
v -0.5 1.7 -0.5
v -0.3 1.1 -0.4
v -0.3 1.1 -0.5
v -0.3 1.3 -0.4
v -0.3 1.3 -0.5
v -0.3 1.8 -0.4
v -0.3 1.8 -0.5
v -0.3 1.9 -0.4
v -0.3 1.9 -0.5
v -0.2 0.5 -0.4
v -0.2 0.5 -0.5
v -0.2 0.6 -0.4
v -0.2 0.6 -0.5
v 0.1 0 -0.3
v 0.1 0 -0.5
v 0.1 0.1 -0.3
v 0.1 0.1 -0.5
v 0.1 1.9 -0.3
v 0.1 1.9 -0.5
v 0.1 2 -0.3
v 0.1 2 -0.5
v 0.2 0.1 -0.4
v 0.2 0.1 -0.5
v 0.2 1.9 -0.4
v 0.2 1.9 -0.5
v -0.2 0.2 -0.4
v -0.2 0.2 -0.5
v -0.2 0.3 -0.4
v -0.2 0.3 -0.5
v -0.2 1.6 -0.4
v -0.2 1.6 -0.5
v -0.2 1.7 -0.4
v -0.2 1.7 -0.5
v -0.1 0.5 -0.4
v -0.1 0.5 -0.5
v -0.1 0.6 -0.4
v -0.1 0.6 -0.5
v -0.1 1.8 -0.4
v -0.1 1.8 -0.5
v -0.1 1.9 -0.4
v -0.1 1.9 -0.5
v -5.96046e-08 1.1 -0.4
v -5.96046e-08 1.1 -0.5
v -5.96046e-08 1.3 -0.4
v -5.96046e-08 1.3 -0.5
v 0.4 0.1 -0.4
v 0.4 0.1 -0.5
v 0.4 1.9 -0.4
v 0.4 1.9 -0.5
v 0.5 0 -0.3
v 0.5 0 -0.5
v 0.5 0.1 -0.3
v 0.5 0.1 -0.5
v 0.5 1.9 -0.3
v 0.5 1.9 -0.5
v 0.5 2 -0.3
v 0.5 2 -0.5
v 0.6 0 -0.5
v 0.6 0 -0.6
v 0.6 2 -0.5
v 0.6 2 -0.6
v 0.1 0 -0.3
v 0.1 0.1 -0.3
v 0.1 1.9 -0.3
v 0.1 2 -0.3
v 0.5 0 -0.3
v 0.5 0.1 -0.3
v 0.5 1.9 -0.3
v 0.5 2 -0.3
v -0.5 0.2 -0.4
v -0.5 0.3 -0.4
v -0.5 1.6 -0.4
v -0.5 1.7 -0.4
v -0.3 1.1 -0.4
v -0.3 1.3 -0.4
v -0.3 1.8 -0.4
v -0.3 1.9 -0.4
v -0.2 0.2 -0.4
v -0.2 0.3 -0.4
v -0.2 0.5 -0.4
v -0.2 0.6 -0.4
v -0.2 1.6 -0.4
v -0.2 1.7 -0.4
v -0.1 0.5 -0.4
v -0.1 0.6 -0.4
v -0.1 1.8 -0.4
v -0.1 1.9 -0.4
v -5.96046e-08 1.1 -0.4
v -5.96046e-08 1.3 -0.4
v 0.2 0.1 -0.4
v 0.2 1.9 -0.4
v 0.4 0.1 -0.4
v 0.4 1.9 -0.4
v -0.6 0 -0.5
v -0.6 2 -0.5
v -0.5 0.2 -0.5
v -0.5 0.3 -0.5
v -0.5 1.6 -0.5
v -0.5 1.7 -0.5
v -0.3 1.1 -0.5
v -0.3 1.3 -0.5
v -0.3 1.8 -0.5
v -0.3 1.9 -0.5
v -0.2 0.2 -0.5
v -0.2 0.3 -0.5
v -0.2 0.5 -0.5
v -0.2 0.6 -0.5
v -0.2 1.6 -0.5
v -0.2 1.7 -0.5
v -0.1 0.5 -0.5
v -0.1 0.6 -0.5
v -0.1 1.8 -0.5
v -0.1 1.9 -0.5
v -5.96046e-08 1.1 -0.5
v -5.96046e-08 1.3 -0.5
v 0.1 0 -0.5
v 0.1 0.1 -0.5
v 0.1 1.9 -0.5
v 0.1 2 -0.5
v 0.2 0.1 -0.5
v 0.2 1.9 -0.5
v 0.4 0.1 -0.5
v 0.4 1.9 -0.5
v 0.5 0 -0.5
v 0.5 0.1 -0.5
v 0.5 1.9 -0.5
v 0.5 2 -0.5
v 0.6 0 -0.5
v 0.6 2 -0.5
v -0.6 0 -0.6
v -0.6 2 -0.6
v 0.6 0 -0.6
v 0.6 2 -0.6
v 0.1 0 -0.3
v 0.5 0 -0.3
v -0.6 0 -0.5
v 0.1 0 -0.5
v 0.5 0 -0.5
v 0.6 0 -0.5
v -0.6 0 -0.6
v 0.6 0 -0.6
v -0.5 0.2 -0.4
v -0.2 0.2 -0.4
v -0.5 0.2 -0.5
v -0.2 0.2 -0.5
v -0.2 0.5 -0.4
v -0.1 0.5 -0.4
v -0.2 0.5 -0.5
v -0.1 0.5 -0.5
v -0.3 1.1 -0.4
v -5.96046e-08 1.1 -0.4
v -0.3 1.1 -0.5
v -5.96046e-08 1.1 -0.5
v -0.5 1.6 -0.4
v -0.2 1.6 -0.4
v -0.5 1.6 -0.5
v -0.2 1.6 -0.5
v -0.3 1.8 -0.4
v -0.1 1.8 -0.4
v -0.3 1.8 -0.5
v -0.1 1.8 -0.5
v 0.1 1.9 -0.3
v 0.5 1.9 -0.3
v 0.2 1.9 -0.4
v 0.4 1.9 -0.4
v 0.1 1.9 -0.5
v 0.2 1.9 -0.5
v 0.4 1.9 -0.5
v 0.5 1.9 -0.5
v 0.1 0.1 -0.3
v 0.5 0.1 -0.3
v 0.2 0.1 -0.4
v 0.4 0.1 -0.4
v 0.1 0.1 -0.5
v 0.2 0.1 -0.5
v 0.4 0.1 -0.5
v 0.5 0.1 -0.5
v -0.5 0.3 -0.4
v -0.2 0.3 -0.4
v -0.5 0.3 -0.5
v -0.2 0.3 -0.5
v -0.2 0.6 -0.4
v -0.1 0.6 -0.4
v -0.2 0.6 -0.5
v -0.1 0.6 -0.5
v -0.3 1.3 -0.4
v -5.96046e-08 1.3 -0.4
v -0.3 1.3 -0.5
v -5.96046e-08 1.3 -0.5
v -0.5 1.7 -0.4
v -0.2 1.7 -0.4
v -0.5 1.7 -0.5
v -0.2 1.7 -0.5
v -0.3 1.9 -0.4
v -0.1 1.9 -0.4
v -0.3 1.9 -0.5
v -0.1 1.9 -0.5
v 0.1 2 -0.3
v 0.5 2 -0.3
v -0.6 2 -0.5
v 0.1 2 -0.5
v 0.5 2 -0.5
v 0.6 2 -0.5
v -0.6 2 -0.6
v 0.6 2 -0.6

# faces
f 3/2/1 2/2/1 1/2/1
f 4/2/1 2/2/1 3/2/1
f 7/2/1 6/2/1 5/2/1
f 8/2/1 6/2/1 7/2/1
f 11/2/1 10/2/1 9/2/1
f 12/2/1 10/2/1 11/2/1
f 15/2/1 14/2/1 13/2/1
f 16/2/1 14/2/1 15/2/1
f 19/2/1 18/2/1 17/2/1
f 20/2/1 18/2/1 19/2/1
f 23/2/1 22/2/1 21/2/1
f 24/2/1 22/2/1 23/2/1
f 27/2/1 26/2/1 25/2/1
f 28/2/1 26/2/1 27/2/1
f 31/2/1 30/2/1 29/2/1
f 32/2/1 30/2/1 31/2/1
f 35/1/1 34/1/1 33/1/1
f 36/1/1 34/1/1 35/1/1
f 37/2/2 38/2/2 39/2/2
f 39/2/2 38/2/2 40/2/2
f 41/2/2 42/2/2 43/2/2
f 43/2/2 42/2/2 44/2/2
f 45/2/2 46/2/2 47/2/2
f 47/2/2 46/2/2 48/2/2
f 49/2/2 50/2/2 51/2/2
f 51/2/2 50/2/2 52/2/2
f 53/2/2 54/2/2 55/2/2
f 55/2/2 54/2/2 56/2/2
f 57/1/2 58/1/2 59/1/2
f 59/1/2 58/1/2 60/1/2
f 61/2/2 62/2/2 63/2/2
f 63/2/2 62/2/2 64/2/2
f 65/2/2 66/2/2 67/2/2
f 67/2/2 66/2/2 68/2/2
f 69/2/2 70/2/2 71/2/2
f 71/2/2 70/2/2 72/2/2
f 77/2/3 74/2/3 73/2/3
f 78/2/3 74/2/3 77/2/3
f 79/2/3 76/2/3 75/2/3
f 80/2/3 76/2/3 79/2/3
f 89/2/3 82/2/3 81/2/3
f 90/2/3 82/2/3 89/2/3
f 93/2/3 84/2/3 83/2/3
f 94/2/3 84/2/3 93/2/3
f 95/2/3 92/2/3 91/2/3
f 96/2/3 92/2/3 95/2/3
f 97/2/3 88/2/3 87/2/3
f 98/2/3 88/2/3 97/2/3
f 99/2/3 86/2/3 85/2/3
f 100/2/3 86/2/3 99/2/3
f 103/1/3 102/1/3 101/1/3
f 104/1/3 102/1/3 103/1/3
f 107/2/3 106/2/3 105/2/3
f 108/2/3 106/2/3 107/2/3
f 109/2/3 106/2/3 108/2/3
f 110/2/3 106/2/3 109/2/3
f 111/2/3 109/2/3 108/2/3
f 112/2/3 109/2/3 111/2/3
f 113/2/3 106/2/3 110/2/3
f 114/2/3 106/2/3 113/2/3
f 115/2/3 107/2/3 105/2/3
f 116/2/3 111/2/3 108/2/3
f 117/2/3 111/2/3 116/2/3
f 118/2/3 111/2/3 117/2/3
f 119/2/3 109/2/3 112/2/3
f 120/2/3 113/2/3 110/2/3
f 121/2/3 116/2/3 115/2/3
f 121/2/3 117/2/3 116/2/3
f 122/2/3 111/2/3 118/2/3
f 123/2/3 120/2/3 119/2/3
f 123/2/3 113/2/3 120/2/3
f 124/2/3 106/2/3 114/2/3
f 125/2/3 122/2/3 121/2/3
f 125/2/3 111/2/3 122/2/3
f 126/2/3 123/2/3 119/2/3
f 126/2/3 119/2/3 112/2/3
f 126/2/3 124/2/3 123/2/3
f 127/2/3 125/2/3 121/2/3
f 127/2/3 126/2/3 125/2/3
f 127/2/3 121/2/3 115/2/3
f 127/2/3 115/2/3 105/2/3
f 128/2/3 126/2/3 127/2/3
f 129/2/3 124/2/3 126/2/3
f 129/2/3 126/2/3 128/2/3
f 129/2/3 106/2/3 124/2/3
f 130/2/3 106/2/3 129/2/3
f 131/2/3 129/2/3 128/2/3
f 132/2/3 129/2/3 131/2/3
f 136/2/3 134/2/3 133/2/3
f 137/2/3 134/2/3 136/2/3
f 139/2/3 137/2/3 136/2/3
f 139/2/3 138/2/3 137/2/3
f 139/2/3 136/2/3 135/2/3
f 140/2/3 138/2/3 139/2/3
f 141/2/4 142/2/4 143/2/4
f 143/2/4 142/2/4 144/2/4
f 148/2/5 146/2/5 145/2/5
f 149/2/5 146/2/5 148/2/5
f 151/2/5 148/2/5 147/2/5
f 151/2/5 150/2/5 149/2/5
f 151/2/5 149/2/5 148/2/5
f 152/2/5 150/2/5 151/2/5
f 155/2/5 154/2/5 153/2/5
f 156/2/5 154/2/5 155/2/5
f 159/2/5 158/2/5 157/2/5
f 160/2/5 158/2/5 159/2/5
f 163/2/5 162/2/5 161/2/5
f 164/2/5 162/2/5 163/2/5
f 167/2/5 166/2/5 165/2/5
f 168/2/5 166/2/5 167/2/5
f 171/2/5 170/2/5 169/2/5
f 172/2/5 170/2/5 171/2/5
f 175/2/5 174/2/5 173/2/5
f 176/2/5 174/2/5 175/2/5
f 177/2/5 175/2/5 173/2/5
f 178/2/5 175/2/5 177/2/5
f 179/2/5 174/2/5 176/2/5
f 180/2/5 174/2/5 179/2/5
f 181/2/6 182/2/6 183/2/6
f 183/2/6 182/2/6 184/2/6
f 181/2/6 183/2/6 185/2/6
f 185/2/6 183/2/6 186/2/6
f 184/2/6 182/2/6 187/2/6
f 187/2/6 182/2/6 188/2/6
f 189/2/6 190/2/6 191/2/6
f 191/2/6 190/2/6 192/2/6
f 193/2/6 194/2/6 195/2/6
f 195/2/6 194/2/6 196/2/6
f 197/2/6 198/2/6 199/2/6
f 199/2/6 198/2/6 200/2/6
f 201/2/6 202/2/6 203/2/6
f 203/2/6 202/2/6 204/2/6
f 205/2/6 206/2/6 207/2/6
f 207/2/6 206/2/6 208/2/6
f 209/2/6 210/2/6 212/2/6
f 212/2/6 210/2/6 213/2/6
f 211/2/6 212/2/6 215/2/6
f 213/2/6 214/2/6 215/2/6
f 212/2/6 213/2/6 215/2/6
f 215/2/6 214/2/6 216/2/6
