# MagicaVoxel @ Ephtracy

# group
o 

# material
mtllib axe.mtl
usemtl palette

# normals
vn -1 0 0
vn 1 0 0
vn 0 0 1
vn 0 0 -1
vn 0 -1 0
vn 0 1 0

# texcoords
vt 0.537109 0.5
vt 0.978516 0.5

# verts
v -0.2 1.4 2.23517e-08
v -0.2 1.4 -0.1
v -0.2 1.8 2.23517e-08
v -0.2 1.8 -0.1
v 0 0.6 2.23517e-08
v 0 0.6 -0.1
v 0 1.5 2.23517e-08
v 0 1.5 -0.1
v 0 1.7 2.23517e-08
v 0 1.7 -0.1
v 0 1.8 2.23517e-08
v 0 1.8 -0.1
v -0.1 1.4 2.23517e-08
v -0.1 1.4 -0.1
v -0.1 1.5 2.23517e-08
v -0.1 1.5 -0.1
v -0.1 1.7 2.23517e-08
v -0.1 1.7 -0.1
v -0.1 1.8 2.23517e-08
v -0.1 1.8 -0.1
v 0.1 0.6 2.23517e-08
v 0.1 0.6 -0.1
v 0.1 1.8 2.23517e-08
v 0.1 1.8 -0.1
v -0.2 1.4 2.23517e-08
v -0.2 1.8 2.23517e-08
v -0.1 1.4 2.23517e-08
v -0.1 1.5 2.23517e-08
v -0.1 1.7 2.23517e-08
v -0.1 1.8 2.23517e-08
v 0 0.6 2.23517e-08
v 0 1.5 2.23517e-08
v 0 1.7 2.23517e-08
v 0 1.8 2.23517e-08
v 0.1 0.6 2.23517e-08
v 0.1 1.8 2.23517e-08
v -0.2 1.4 -0.1
v -0.2 1.8 -0.1
v -0.1 1.4 -0.1
v -0.1 1.5 -0.1
v -0.1 1.7 -0.1
v -0.1 1.8 -0.1
v 0 0.6 -0.1
v 0 1.5 -0.1
v 0 1.7 -0.1
v 0 1.8 -0.1
v 0.1 0.6 -0.1
v 0.1 1.8 -0.1
v 0 0.6 2.23517e-08
v 0.1 0.6 2.23517e-08
v 0 0.6 -0.1
v 0.1 0.6 -0.1
v -0.2 1.4 2.23517e-08
v -0.1 1.4 2.23517e-08
v -0.2 1.4 -0.1
v -0.1 1.4 -0.1
v -0.1 1.5 2.23517e-08
v 0 1.5 2.23517e-08
v -0.1 1.5 -0.1
v 0 1.5 -0.1
v -0.1 1.7 2.23517e-08
v 0 1.7 2.23517e-08
v -0.1 1.7 -0.1
v 0 1.7 -0.1
v -0.2 1.8 2.23517e-08
v -0.1 1.8 2.23517e-08
v 0 1.8 2.23517e-08
v 0.1 1.8 2.23517e-08
v -0.2 1.8 -0.1
v -0.1 1.8 -0.1
v 0 1.8 -0.1
v 0.1 1.8 -0.1

# faces
f 3/2/1 2/2/1 1/2/1
f 4/2/1 2/2/1 3/2/1
f 7/1/1 6/1/1 5/1/1
f 8/1/1 6/1/1 7/1/1
f 11/1/1 10/1/1 9/1/1
f 12/1/1 10/1/1 11/1/1
f 13/2/2 14/2/2 15/2/2
f 15/2/2 14/2/2 16/2/2
f 17/2/2 18/2/2 19/2/2
f 19/2/2 18/2/2 20/2/2
f 21/1/2 22/1/2 23/1/2
f 23/1/2 22/1/2 24/1/2
f 27/2/3 26/2/3 25/2/3
f 28/2/3 26/2/3 27/2/3
f 29/2/3 26/2/3 28/2/3
f 30/2/3 26/2/3 29/2/3
f 32/2/3 29/2/3 28/2/3
f 33/2/3 29/2/3 32/2/3
f 35/1/3 32/1/3 31/1/3
f 35/1/3 34/1/3 33/1/3
f 35/1/3 33/1/3 32/1/3
f 36/1/3 34/1/3 35/1/3
f 37/2/4 38/2/4 39/2/4
f 39/2/4 38/2/4 40/2/4
f 40/2/4 38/2/4 41/2/4
f 41/2/4 38/2/4 42/2/4
f 40/2/4 41/2/4 44/2/4
f 44/2/4 41/2/4 45/2/4
f 43/1/4 44/1/4 47/1/4
f 45/1/4 46/1/4 47/1/4
f 44/1/4 45/1/4 47/1/4
f 47/1/4 46/1/4 48/1/4
f 51/1/5 50/1/5 49/1/5
f 52/1/5 50/1/5 51/1/5
f 55/2/5 54/2/5 53/2/5
f 56/2/5 54/2/5 55/2/5
f 59/2/5 58/2/5 57/2/5
f 60/2/5 58/2/5 59/2/5
f 61/2/6 62/2/6 63/2/6
f 63/2/6 62/2/6 64/2/6
f 65/2/6 66/2/6 69/2/6
f 69/2/6 66/2/6 70/2/6
f 67/1/6 68/1/6 71/1/6
f 71/1/6 68/1/6 72/1/6
