# MagicaVoxel @ Ephtracy

# group
o 

# material
mtllib axe_base_obs.mtl
usemtl palette

# normals
vn -1 0 0
vn 1 0 0
vn 0 0 1
vn 0 0 -1
vn 0 -1 0
vn 0 1 0

# texcoords
vt 0.0957031 0.5
vt 0.689453 0.5
vt 0.958984 0.5

# verts
v -0.4 0 0.4
v -0.4 0 -0.4
v -0.4 0.1 0.4
v -0.4 0.1 0.2
v -0.4 0.1 -0.2
v -0.4 0.1 -0.4
v -0.4 0.2 0.3
v -0.4 0.2 0.2
v -0.4 0.2 -0.2
v -0.4 0.2 -0.3
v -0.4 0.4 0.2
v -0.4 0.4 0.1
v -0.4 0.4 -0.1
v -0.4 0.4 -0.2
v -0.4 0.5 0.2
v -0.4 0.5 0.1
v -0.4 0.5 -0.1
v -0.4 0.5 -0.2
v -0.4 0.6 0.4
v -0.4 0.6 0.3
v -0.4 0.6 -0.3
v -0.4 0.6 -0.4
v -0.4 0.7 0.4
v -0.4 0.7 -0.4
v -0.2 0.7 0.2
v -0.2 0.7 -0.2
v -0.2 0.8 0.2
v -0.2 0.8 -0.2
v -0.1 0.3 0.1
v -0.1 0.3 -0.1
v -0.1 0.7 0.1
v -0.1 0.7 -0.1
v -0.1 0.8 0.1
v -0.1 0.8 -0.1
v 0.2 0.7 0.2
v 0.2 0.7 0.1
v 0.2 0.7 -0.1
v 0.2 0.7 -0.2
v 0.2 0.8 0.2
v 0.2 0.8 0.1
v 0.2 0.8 -0.1
v 0.2 0.8 -0.2
v 0.4 0 0.4
v 0.4 0 -0.4
v 0.4 0.1 0.4
v 0.4 0.1 -0.4
v 0.4 0.2 0.2
v 0.4 0.2 -0.2
v 0.4 0.5 0.2
v 0.4 0.5 0.1
v 0.4 0.5 -0.1
v 0.4 0.5 -0.2
v 0.4 0.6 0.4
v 0.4 0.6 0.1
v 0.4 0.6 -0.1
v 0.4 0.6 -0.4
v 0.4 0.7 0.4
v 0.4 0.7 0.1
v 0.4 0.7 -0.1
v 0.4 0.7 -0.4
v 0.5 0.2 0.2
v 0.5 0.2 -0.2
v 0.5 0.3 0.1
v 0.5 0.3 -0.1
v 0.5 0.5 0.2
v 0.5 0.5 0.1
v 0.5 0.5 -0.1
v 0.5 0.5 -0.2
v -0.4 0 0.4
v -0.4 0.1 0.4
v -0.4 0.6 0.4
v -0.4 0.7 0.4
v -0.3 0.2 0.4
v -0.3 0.6 0.4
v -0.2 0.1 0.4
v -0.2 0.2 0.4
v -0.2 0.4 0.4
v -0.2 0.5 0.4
v -0.1 0.4 0.4
v -0.1 0.5 0.4
v 0.1 0.4 0.4
v 0.1 0.5 0.4
v 0.2 0.1 0.4
v 0.2 0.2 0.4
v 0.2 0.4 0.4
v 0.2 0.5 0.4
v 0.3 0.2 0.4
v 0.3 0.6 0.4
v 0.4 0 0.4
v 0.4 0.1 0.4
v 0.4 0.6 0.4
v 0.4 0.7 0.4
v -0.2 0.7 0.2
v -0.2 0.8 0.2
v 0.2 0.7 0.2
v 0.2 0.8 0.2
v 0.4 0.2 0.2
v 0.4 0.5 0.2
v 0.5 0.2 0.2
v 0.5 0.5 0.2
v -0.1 0.3 -0.1
v -0.1 0.7 -0.1
v -0.1 0.8 -0.1
v 0.2 0.7 -0.1
v 0.2 0.8 -0.1
v 0.3 0.6 -0.1
v 0.3 0.7 -0.1
v 0.4 0.3 -0.1
v 0.4 0.5 -0.1
v 0.4 0.6 -0.1
v 0.4 0.7 -0.1
v 0.5 0.3 -0.1
v 0.5 0.5 -0.1
v -0.1 0.3 0.1
v -0.1 0.7 0.1
v -0.1 0.8 0.1
v 0.2 0.7 0.1
v 0.2 0.8 0.1
v 0.3 0.6 0.1
v 0.3 0.7 0.1
v 0.4 0.3 0.1
v 0.4 0.5 0.1
v 0.4 0.6 0.1
v 0.4 0.7 0.1
v 0.5 0.3 0.1
v 0.5 0.5 0.1
v -0.2 0.7 -0.2
v -0.2 0.8 -0.2
v 0.2 0.7 -0.2
v 0.2 0.8 -0.2
v 0.4 0.2 -0.2
v 0.4 0.5 -0.2
v 0.5 0.2 -0.2
v 0.5 0.5 -0.2
v -0.4 0 -0.4
v -0.4 0.1 -0.4
v -0.4 0.6 -0.4
v -0.4 0.7 -0.4
v -0.3 0.2 -0.4
v -0.3 0.6 -0.4
v -0.2 0.1 -0.4
v -0.2 0.2 -0.4
v -0.2 0.4 -0.4
v -0.2 0.5 -0.4
v -0.1 0.4 -0.4
v -0.1 0.5 -0.4
v 0.1 0.4 -0.4
v 0.1 0.5 -0.4
v 0.2 0.1 -0.4
v 0.2 0.2 -0.4
v 0.2 0.4 -0.4
v 0.2 0.5 -0.4
v 0.3 0.2 -0.4
v 0.3 0.6 -0.4
v 0.4 0 -0.4
v 0.4 0.1 -0.4
v 0.4 0.6 -0.4
v 0.4 0.7 -0.4
v -0.4 0 0.4
v 0.4 0 0.4
v -0.4 0 -0.4
v 0.4 0 -0.4
v 0.4 0.2 0.2
v 0.5 0.2 0.2
v 0.4 0.2 -0.2
v 0.5 0.2 -0.2
v -0.1 0.3 0.1
v 0.4 0.3 0.1
v 0.5 0.3 0.1
v -0.1 0.3 -0.1
v 0.4 0.3 -0.1
v 0.5 0.3 -0.1
v 0.4 0.5 0.2
v 0.5 0.5 0.2
v 0.4 0.5 0.1
v 0.5 0.5 0.1
v 0.4 0.5 -0.1
v 0.5 0.5 -0.1
v 0.4 0.5 -0.2
v 0.5 0.5 -0.2
v -0.4 0.7 0.4
v 0.4 0.7 0.4
v -0.3 0.7 0.3
v 0.3 0.7 0.3
v -0.2 0.7 0.2
v 0.2 0.7 0.2
v 0.2 0.7 0.1
v 0.3 0.7 0.1
v 0.4 0.7 0.1
v 0.2 0.7 -0.1
v 0.3 0.7 -0.1
v 0.4 0.7 -0.1
v -0.2 0.7 -0.2
v 0.2 0.7 -0.2
v -0.3 0.7 -0.3
v 0.3 0.7 -0.3
v -0.4 0.7 -0.4
v 0.4 0.7 -0.4
v -0.2 0.8 0.2
v 0.2 0.8 0.2
v -0.1 0.8 0.1
v 0.2 0.8 0.1
v -0.1 0.8 -0.1
v 0.2 0.8 -0.1
v -0.2 0.8 -0.2
v 0.2 0.8 -0.2

# faces
f 3/1/1 2/1/1 1/1/1
f 4/1/1 2/1/1 3/1/1
f 5/1/1 2/1/1 4/1/1
f 6/1/1 2/1/1 5/1/1
f 7/2/1 4/2/1 3/2/1
f 8/3/1 5/3/1 4/3/1
f 8/2/1 4/2/1 7/2/1
f 9/2/1 6/2/1 5/2/1
f 9/3/1 5/3/1 8/3/1
f 10/2/1 6/2/1 9/2/1
f 11/3/1 8/3/1 7/3/1
f 11/3/1 9/3/1 8/3/1
f 11/3/1 10/3/1 9/3/1
f 12/3/1 10/3/1 11/3/1
f 13/3/1 10/3/1 12/3/1
f 14/3/1 10/3/1 13/3/1
f 15/3/1 11/3/1 7/3/1
f 15/2/1 12/2/1 11/2/1
f 16/3/1 13/3/1 12/3/1
f 16/2/1 12/2/1 15/2/1
f 17/2/1 14/2/1 13/2/1
f 17/3/1 13/3/1 16/3/1
f 18/3/1 10/3/1 14/3/1
f 18/2/1 14/2/1 17/2/1
f 19/2/1 7/2/1 3/2/1
f 20/3/1 17/3/1 16/3/1
f 20/2/1 7/2/1 19/2/1
f 20/3/1 16/3/1 15/3/1
f 20/3/1 18/3/1 17/3/1
f 20/3/1 15/3/1 7/3/1
f 21/3/1 10/3/1 18/3/1
f 21/3/1 18/3/1 20/3/1
f 21/2/1 6/2/1 10/2/1
f 22/2/1 6/2/1 21/2/1
f 23/1/1 20/1/1 19/1/1
f 23/1/1 21/1/1 20/1/1
f 23/1/1 22/1/1 21/1/1
f 24/1/1 22/1/1 23/1/1
f 27/1/1 26/1/1 25/1/1
f 28/1/1 26/1/1 27/1/1
f 29/2/2 30/2/2 31/2/2
f 31/2/2 30/2/2 32/2/2
f 31/1/2 32/1/2 33/1/2
f 33/1/2 32/1/2 34/1/2
f 35/1/2 36/1/2 39/1/2
f 39/1/2 36/1/2 40/1/2
f 37/1/2 38/1/2 41/1/2
f 41/1/2 38/1/2 42/1/2
f 43/1/2 44/1/2 45/1/2
f 45/1/2 44/1/2 46/1/2
f 45/2/2 46/2/2 47/2/2
f 47/2/2 46/2/2 48/2/2
f 45/2/2 47/2/2 49/2/2
f 48/2/2 46/2/2 52/2/2
f 49/2/2 50/2/2 53/2/2
f 45/2/2 49/2/2 53/2/2
f 53/2/2 50/2/2 54/2/2
f 51/2/2 52/2/2 55/2/2
f 52/2/2 46/2/2 56/2/2
f 55/2/2 52/2/2 56/2/2
f 53/1/2 54/1/2 57/1/2
f 57/1/2 54/1/2 58/1/2
f 55/1/2 56/1/2 59/1/2
f 59/1/2 56/1/2 60/1/2
f 61/1/2 62/1/2 63/1/2
f 63/1/2 62/1/2 64/1/2
f 61/1/2 63/1/2 65/1/2
f 65/1/2 63/1/2 66/1/2
f 64/1/2 62/1/2 67/1/2
f 67/1/2 62/1/2 68/1/2
f 73/2/3 71/2/3 70/2/3
f 74/1/3 72/1/3 71/1/3
f 74/2/3 71/2/3 73/2/3
f 75/1/3 70/1/3 69/1/3
f 75/2/3 73/2/3 70/2/3
f 76/3/3 74/3/3 73/3/3
f 76/2/3 73/2/3 75/2/3
f 77/3/3 74/3/3 76/3/3
f 78/3/3 74/3/3 77/3/3
f 79/3/3 76/3/3 75/3/3
f 79/3/3 77/3/3 76/3/3
f 79/2/3 78/2/3 77/2/3
f 80/3/3 74/3/3 78/3/3
f 80/2/3 78/2/3 79/2/3
f 81/3/3 79/3/3 75/3/3
f 81/3/3 80/3/3 79/3/3
f 82/3/3 74/3/3 80/3/3
f 82/3/3 80/3/3 81/3/3
f 83/1/3 75/1/3 69/1/3
f 83/3/3 81/3/3 75/3/3
f 84/3/3 81/3/3 83/3/3
f 85/2/3 82/2/3 81/2/3
f 85/3/3 81/3/3 84/3/3
f 86/3/3 74/3/3 82/3/3
f 86/2/3 82/2/3 85/2/3
f 87/3/3 85/3/3 84/3/3
f 87/2/3 84/2/3 83/2/3
f 87/3/3 86/3/3 85/3/3
f 88/1/3 72/1/3 74/1/3
f 88/3/3 86/3/3 87/3/3
f 88/3/3 74/3/3 86/3/3
f 89/1/3 83/1/3 69/1/3
f 90/2/3 87/2/3 83/2/3
f 90/1/3 83/1/3 89/1/3
f 90/2/3 88/2/3 87/2/3
f 91/1/3 72/1/3 88/1/3
f 91/2/3 88/2/3 90/2/3
f 92/1/3 72/1/3 91/1/3
f 95/1/3 94/1/3 93/1/3
f 96/1/3 94/1/3 95/1/3
f 99/1/3 98/1/3 97/1/3
f 100/1/3 98/1/3 99/1/3
f 104/2/3 102/2/3 101/2/3
f 104/1/3 103/1/3 102/1/3
f 105/1/3 103/1/3 104/1/3
f 106/2/3 104/2/3 101/2/3
f 107/2/3 104/2/3 106/2/3
f 108/2/3 106/2/3 101/2/3
f 109/2/3 106/2/3 108/2/3
f 110/1/3 107/1/3 106/1/3
f 110/2/3 106/2/3 109/2/3
f 111/1/3 107/1/3 110/1/3
f 112/1/3 109/1/3 108/1/3
f 113/1/3 109/1/3 112/1/3
f 114/2/4 115/2/4 117/2/4
f 115/1/4 116/1/4 117/1/4
f 117/1/4 116/1/4 118/1/4
f 114/2/4 117/2/4 119/2/4
f 119/2/4 117/2/4 120/2/4
f 114/2/4 119/2/4 121/2/4
f 121/2/4 119/2/4 122/2/4
f 119/1/4 120/1/4 123/1/4
f 122/2/4 119/2/4 123/2/4
f 123/1/4 120/1/4 124/1/4
f 121/1/4 122/1/4 125/1/4
f 125/1/4 122/1/4 126/1/4
f 127/1/4 128/1/4 129/1/4
f 129/1/4 128/1/4 130/1/4
f 131/1/4 132/1/4 133/1/4
f 133/1/4 132/1/4 134/1/4
f 136/2/4 137/2/4 139/2/4
f 137/1/4 138/1/4 140/1/4
f 139/2/4 137/2/4 140/2/4
f 135/1/4 136/1/4 141/1/4
f 136/2/4 139/2/4 141/2/4
f 139/3/4 140/3/4 142/3/4
f 141/2/4 139/2/4 142/2/4
f 142/3/4 140/3/4 143/3/4
f 143/3/4 140/3/4 144/3/4
f 141/3/4 142/3/4 145/3/4
f 142/3/4 143/3/4 145/3/4
f 143/2/4 144/2/4 145/2/4
f 144/3/4 140/3/4 146/3/4
f 145/2/4 144/2/4 146/2/4
f 141/3/4 145/3/4 147/3/4
f 145/3/4 146/3/4 147/3/4
f 146/3/4 140/3/4 148/3/4
f 147/3/4 146/3/4 148/3/4
f 135/1/4 141/1/4 149/1/4
f 141/3/4 147/3/4 149/3/4
f 149/3/4 147/3/4 150/3/4
f 147/2/4 148/2/4 151/2/4
f 150/3/4 147/3/4 151/3/4
f 148/3/4 140/3/4 152/3/4
f 151/2/4 148/2/4 152/2/4
f 150/3/4 151/3/4 153/3/4
f 149/2/4 150/2/4 153/2/4
f 151/3/4 152/3/4 153/3/4
f 140/1/4 138/1/4 154/1/4
f 153/3/4 152/3/4 154/3/4
f 152/3/4 140/3/4 154/3/4
f 135/1/4 149/1/4 155/1/4
f 149/2/4 153/2/4 156/2/4
f 155/1/4 149/1/4 156/1/4
f 153/2/4 154/2/4 156/2/4
f 154/1/4 138/1/4 157/1/4
f 156/2/4 154/2/4 157/2/4
f 157/1/4 138/1/4 158/1/4
f 161/1/5 160/1/5 159/1/5
f 162/1/5 160/1/5 161/1/5
f 165/1/5 164/1/5 163/1/5
f 166/1/5 164/1/5 165/1/5
f 167/2/6 168/2/6 170/2/6
f 168/1/6 169/1/6 171/1/6
f 170/2/6 168/2/6 171/2/6
f 171/1/6 169/1/6 172/1/6
f 173/1/6 174/1/6 175/1/6
f 175/1/6 174/1/6 176/1/6
f 177/1/6 178/1/6 179/1/6
f 179/1/6 178/1/6 180/1/6
f 181/1/6 182/1/6 183/1/6
f 183/1/6 182/1/6 184/1/6
f 183/2/6 184/2/6 185/2/6
f 185/2/6 184/2/6 186/2/6
f 186/2/6 184/2/6 187/2/6
f 184/1/6 182/1/6 188/1/6
f 187/2/6 184/2/6 188/2/6
f 188/1/6 182/1/6 189/1/6
f 183/2/6 185/2/6 193/2/6
f 190/2/6 191/2/6 194/2/6
f 181/1/6 183/1/6 195/1/6
f 193/2/6 194/2/6 195/2/6
f 183/2/6 193/2/6 195/2/6
f 194/2/6 191/2/6 196/2/6
f 195/2/6 194/2/6 196/2/6
f 191/1/6 192/1/6 196/1/6
f 181/1/6 195/1/6 197/1/6
f 195/1/6 196/1/6 197/1/6
f 196/1/6 192/1/6 198/1/6
f 197/1/6 196/1/6 198/1/6
f 199/1/6 200/1/6 201/1/6
f 201/1/6 200/1/6 202/1/6
f 199/1/6 201/1/6 203/1/6
f 199/1/6 203/1/6 205/1/6
f 203/1/6 204/1/6 205/1/6
f 205/1/6 204/1/6 206/1/6
