# MagicaVoxel @ Ephtracy

# group
o 

# material
mtllib floor_trap.mtl
usemtl palette

# normals
vn -1 0 0
vn 1 0 0
vn 0 0 1
vn 0 0 -1
vn 0 -1 0
vn 0 1 0

# texcoords
vt 0.376953 0.5
vt 0.380859 0.5
vt 0.412109 0.5

# verts
v -0.6 0 0.5
v -0.6 0 -0.7
v -0.6 0.1 0.4
v -0.6 0.1 -0.6
v -0.6 1 0.4
v -0.6 1 -0.6
v -0.6 1.1 0.5
v -0.6 1.1 -0.7
v -0.6 1.2 0.5
v -0.6 1.2 -0.7
v -0.4 0.8 0.4
v -0.4 0.8 0.3
v -0.4 0.8 -0.5
v -0.4 0.8 -0.6
v -0.4 1 0.4
v -0.4 1 0.3
v -0.4 1 -0.5
v -0.4 1 -0.6
v -0.4 1.1 0.4
v -0.4 1.1 0.3
v -0.4 1.1 -0.5
v -0.4 1.1 -0.6
v -0.4 1.2 0.4
v -0.4 1.2 0.3
v -0.4 1.2 -0.5
v -0.4 1.2 -0.6
v -0.3 0.7 -0.4
v -0.3 0.7 -0.5
v -0.3 0.8 0.3
v -0.3 0.8 0.2
v -0.3 1.1 0.3
v -0.3 1.1 0.2
v -0.3 1.1 -0.4
v -0.3 1.1 -0.5
v -0.3 1.2 0.3
v -0.3 1.2 0.2
v -0.3 1.2 -0.4
v -0.3 1.2 -0.5
v -0.2 0.7 -0.3
v -0.2 0.7 -0.4
v -0.2 0.8 0.2
v -0.2 0.8 0.1
v -0.2 1.1 0.2
v -0.2 1.1 0.1
v -0.2 1.1 -0.3
v -0.2 1.1 -0.4
v -0.2 1.2 0.2
v -0.2 1.2 0.1
v -0.2 1.2 -0.3
v -0.2 1.2 -0.4
v -0.1 0.8 0.1
v -0.1 0.8 0
v -0.1 0.8 -0.2
v -0.1 0.8 -0.3
v -0.1 1.1 0.1
v -0.1 1.1 -0.3
v -0.1 1.2 0.1
v -0.1 1.2 0
v -0.1 1.2 -0.2
v -0.1 1.2 -0.3
v -5.96046e-08 0.8 0
v -5.96046e-08 0.8 -0.1
v -5.96046e-08 1.1 0
v -5.96046e-08 1.1 -0.1
v -5.96046e-08 1.2 0
v -5.96046e-08 1.2 -0.1
v 0.2 0.7 0.1
v 0.2 0.7 0
v 0.2 0.8 -0.2
v 0.2 0.8 -0.3
v 0.2 1.1 0.1
v 0.2 1.1 0
v 0.2 1.1 -0.2
v 0.2 1.1 -0.3
v 0.2 1.2 0.1
v 0.2 1.2 0
v 0.2 1.2 -0.2
v 0.2 1.2 -0.3
v 0.3 0.8 0.2
v 0.3 0.8 0.1
v 0.3 0.8 -0.3
v 0.3 0.8 -0.4
v 0.3 1.1 0.2
v 0.3 1.1 0.1
v 0.3 1.1 -0.3
v 0.3 1.1 -0.4
v 0.3 1.2 0.2
v 0.3 1.2 0.1
v 0.3 1.2 -0.3
v 0.3 1.2 -0.4
v 0.4 0.8 0.3
v 0.4 0.8 0.2
v 0.4 0.8 -0.4
v 0.4 0.8 -0.5
v 0.4 1.1 0.3
v 0.4 1.1 0.2
v 0.4 1.1 -0.4
v 0.4 1.1 -0.5
v 0.4 1.2 0.3
v 0.4 1.2 0.2
v 0.4 1.2 -0.4
v 0.4 1.2 -0.5
v 0.5 0.8 0.4
v 0.5 0.8 0.3
v 0.5 0.8 -0.5
v 0.5 0.8 -0.6
v 0.5 1 0.4
v 0.5 1 0.3
v 0.5 1 -0.5
v 0.5 1 -0.6
v 0.5 1.1 0.4
v 0.5 1.1 0.3
v 0.5 1.1 -0.5
v 0.5 1.1 -0.6
v 0.5 1.2 0.4
v 0.5 1.2 0.3
v 0.5 1.2 -0.5
v 0.5 1.2 -0.6
v -0.5 0.8 0.4
v -0.5 0.8 0.3
v -0.5 0.8 -0.5
v -0.5 0.8 -0.6
v -0.5 1 0.4
v -0.5 1 0.3
v -0.5 1 -0.5
v -0.5 1 -0.6
v -0.5 1.1 0.4
v -0.5 1.1 0.3
v -0.5 1.1 -0.5
v -0.5 1.1 -0.6
v -0.5 1.2 0.4
v -0.5 1.2 0.3
v -0.5 1.2 -0.5
v -0.5 1.2 -0.6
v -0.4 0.7 -0.4
v -0.4 0.7 -0.5
v -0.4 0.8 0.3
v -0.4 0.8 0.2
v -0.4 1 0.3
v -0.4 1 0.2
v -0.4 1 -0.4
v -0.4 1 -0.5
v -0.4 1.1 0.3
v -0.4 1.1 0.2
v -0.4 1.1 -0.4
v -0.4 1.1 -0.5
v -0.4 1.2 0.3
v -0.4 1.2 0.2
v -0.4 1.2 -0.4
v -0.4 1.2 -0.5
v -0.3 0.7 -0.3
v -0.3 0.7 -0.4
v -0.3 0.8 0.2
v -0.3 0.8 0.1
v -0.3 1.1 0.2
v -0.3 1.1 0.1
v -0.3 1.1 -0.3
v -0.3 1.1 -0.4
v -0.3 1.2 0.2
v -0.3 1.2 0.1
v -0.3 1.2 -0.3
v -0.3 1.2 -0.4
v -0.2 0.8 0.1
v -0.2 0.8 0
v -0.2 0.8 -0.2
v -0.2 0.8 -0.3
v -0.2 1.1 0.1
v -0.2 1.1 0
v -0.2 1.1 -0.2
v -0.2 1.1 -0.3
v -0.2 1.2 0.1
v -0.2 1.2 0
v -0.2 1.2 -0.2
v -0.2 1.2 -0.3
v -0.1 0.8 0
v -0.1 0.8 -0.1
v -0.1 1.1 -0.1
v -0.1 1.2 0
v -0.1 1.2 -0.1
v 0.1 0.7 0.1
v 0.1 0.7 0
v 0.1 0.8 -0.2
v 0.1 0.8 -0.3
v 0.1 1.1 0.1
v 0.1 1.1 -0.3
v 0.1 1.2 0.1
v 0.1 1.2 0
v 0.1 1.2 -0.2
v 0.1 1.2 -0.3
v 0.2 0.8 0.2
v 0.2 0.8 0.1
v 0.2 0.8 -0.3
v 0.2 0.8 -0.4
v 0.2 1.1 0.2
v 0.2 1.1 0.1
v 0.2 1.1 -0.3
v 0.2 1.1 -0.4
v 0.2 1.2 0.2
v 0.2 1.2 0.1
v 0.2 1.2 -0.3
v 0.2 1.2 -0.4
v 0.3 0.8 0.3
v 0.3 0.8 0.2
v 0.3 0.8 -0.4
v 0.3 0.8 -0.5
v 0.3 1.1 0.3
v 0.3 1.1 0.2
v 0.3 1.1 -0.4
v 0.3 1.1 -0.5
v 0.3 1.2 0.3
v 0.3 1.2 0.2
v 0.3 1.2 -0.4
v 0.3 1.2 -0.5
v 0.4 0.8 0.4
v 0.4 0.8 0.3
v 0.4 0.8 -0.5
v 0.4 0.8 -0.6
v 0.4 1 0.4
v 0.4 1 -0.6
v 0.4 1.1 0.4
v 0.4 1.1 0.3
v 0.4 1.1 -0.5
v 0.4 1.1 -0.6
v 0.4 1.2 0.4
v 0.4 1.2 0.3
v 0.4 1.2 -0.5
v 0.4 1.2 -0.6
v 0.6 0 0.5
v 0.6 0 -0.7
v 0.6 0.1 0.4
v 0.6 0.1 -0.6
v 0.6 1 0.4
v 0.6 1 -0.6
v 0.6 1.1 0.5
v 0.6 1.1 -0.7
v 0.6 1.2 0.5
v 0.6 1.2 -0.7
v -0.6 0 0.5
v -0.6 1.1 0.5
v -0.6 1.2 0.5
v -0.5 0.1 0.5
v -0.5 1 0.5
v 0.5 0.1 0.5
v 0.5 1 0.5
v 0.6 0 0.5
v 0.6 1.1 0.5
v 0.6 1.2 0.5
v -0.5 0.8 0.3
v -0.5 1 0.3
v -0.5 1.1 0.3
v -0.5 1.2 0.3
v -0.4 0.8 0.3
v -0.4 1 0.3
v -0.4 1.1 0.3
v -0.4 1.2 0.3
v 0.4 0.8 0.3
v 0.4 1.1 0.3
v 0.4 1.2 0.3
v 0.5 0.8 0.3
v 0.5 1 0.3
v 0.5 1.1 0.3
v 0.5 1.2 0.3
v -0.4 0.8 0.2
v -0.4 1 0.2
v -0.4 1.1 0.2
v -0.4 1.2 0.2
v -0.3 0.8 0.2
v -0.3 1.1 0.2
v -0.3 1.2 0.2
v 0.3 0.8 0.2
v 0.3 1.1 0.2
v 0.3 1.2 0.2
v 0.4 0.8 0.2
v 0.4 1.1 0.2
v 0.4 1.2 0.2
v -0.3 0.8 0.1
v -0.3 1.1 0.1
v -0.3 1.2 0.1
v -0.2 0.8 0.1
v -0.2 1.1 0.1
v -0.2 1.2 0.1
v 0.2 0.8 0.1
v 0.2 1.1 0.1
v 0.2 1.2 0.1
v 0.3 0.8 0.1
v 0.3 1.1 0.1
v 0.3 1.2 0.1
v -0.2 0.8 0
v -0.2 1.1 0
v -0.2 1.2 0
v -0.1 0.8 0
v -0.1 1.2 0
v 0.1 0.7 0
v 0.1 1.2 0
v 0.2 0.7 0
v 0.2 1.1 0
v 0.2 1.2 0
v -0.1 0.8 -0.1
v -0.1 1.1 -0.1
v -0.1 1.2 -0.1
v -5.96046e-08 0.8 -0.1
v -5.96046e-08 1.1 -0.1
v -5.96046e-08 1.2 -0.1
v -0.2 0.8 -0.3
v -0.2 1.1 -0.3
v -0.2 1.2 -0.3
v -0.1 0.8 -0.3
v -0.1 1.1 -0.3
v -0.1 1.2 -0.3
v 0.1 0.8 -0.3
v 0.1 1.1 -0.3
v 0.1 1.2 -0.3
v 0.2 0.8 -0.3
v 0.2 1.1 -0.3
v 0.2 1.2 -0.3
v -0.3 0.7 -0.4
v -0.3 1.1 -0.4
v -0.3 1.2 -0.4
v -0.2 0.7 -0.4
v -0.2 1.1 -0.4
v -0.2 1.2 -0.4
v 0.2 0.8 -0.4
v 0.2 1.1 -0.4
v 0.2 1.2 -0.4
v 0.3 0.8 -0.4
v 0.3 1.1 -0.4
v 0.3 1.2 -0.4
v -0.4 0.7 -0.5
v -0.4 1 -0.5
v -0.4 1.1 -0.5
v -0.4 1.2 -0.5
v -0.3 0.7 -0.5
v -0.3 1.1 -0.5
v -0.3 1.2 -0.5
v 0.3 0.8 -0.5
v 0.3 1.1 -0.5
v 0.3 1.2 -0.5
v 0.4 0.8 -0.5
v 0.4 1.1 -0.5
v 0.4 1.2 -0.5
v -0.5 0.8 -0.6
v -0.5 1 -0.6
v -0.5 1.1 -0.6
v -0.5 1.2 -0.6
v -0.4 0.8 -0.6
v -0.4 1 -0.6
v -0.4 1.1 -0.6
v -0.4 1.2 -0.6
v 0.4 0.8 -0.6
v 0.4 1 -0.6
v 0.4 1.1 -0.6
v 0.4 1.2 -0.6
v 0.5 0.8 -0.6
v 0.5 1 -0.6
v 0.5 1.1 -0.6
v 0.5 1.2 -0.6
v -0.5 0.8 0.4
v -0.5 1 0.4
v -0.5 1.1 0.4
v -0.5 1.2 0.4
v -0.4 0.8 0.4
v -0.4 1 0.4
v -0.4 1.1 0.4
v -0.4 1.2 0.4
v 0.4 0.8 0.4
v 0.4 1 0.4
v 0.4 1.1 0.4
v 0.4 1.2 0.4
v 0.5 0.8 0.4
v 0.5 1 0.4
v 0.5 1.1 0.4
v 0.5 1.2 0.4
v -0.4 0.8 0.3
v -0.4 1 0.3
v -0.4 1.1 0.3
v -0.4 1.2 0.3
v -0.3 0.8 0.3
v -0.3 1.1 0.3
v -0.3 1.2 0.3
v 0.3 0.8 0.3
v 0.3 1.1 0.3
v 0.3 1.2 0.3
v 0.4 0.8 0.3
v 0.4 1.1 0.3
v 0.4 1.2 0.3
v -0.3 0.8 0.2
v -0.3 1.1 0.2
v -0.3 1.2 0.2
v -0.2 0.8 0.2
v -0.2 1.1 0.2
v -0.2 1.2 0.2
v 0.2 0.8 0.2
v 0.2 1.1 0.2
v 0.2 1.2 0.2
v 0.3 0.8 0.2
v 0.3 1.1 0.2
v 0.3 1.2 0.2
v -0.2 0.8 0.1
v -0.2 1.1 0.1
v -0.2 1.2 0.1
v -0.1 0.8 0.1
v -0.1 1.1 0.1
v -0.1 1.2 0.1
v 0.1 0.7 0.1
v 0.1 1.1 0.1
v 0.1 1.2 0.1
v 0.2 0.7 0.1
v 0.2 1.1 0.1
v 0.2 1.2 0.1
v -0.1 0.8 0
v -0.1 1.2 0
v -5.96046e-08 0.8 0
v -5.96046e-08 1.1 0
v -5.96046e-08 1.2 0
v -0.2 0.8 -0.2
v -0.2 1.1 -0.2
v -0.2 1.2 -0.2
v -0.1 0.8 -0.2
v -0.1 1.2 -0.2
v 0.1 0.8 -0.2
v 0.1 1.2 -0.2
v 0.2 0.8 -0.2
v 0.2 1.1 -0.2
v 0.2 1.2 -0.2
v -0.3 0.7 -0.3
v -0.3 1.1 -0.3
v -0.3 1.2 -0.3
v -0.2 0.7 -0.3
v -0.2 1.1 -0.3
v -0.2 1.2 -0.3
v 0.2 0.8 -0.3
v 0.2 1.1 -0.3
v 0.2 1.2 -0.3
v 0.3 0.8 -0.3
v 0.3 1.1 -0.3
v 0.3 1.2 -0.3
v -0.4 0.7 -0.4
v -0.4 1 -0.4
v -0.4 1.1 -0.4
v -0.4 1.2 -0.4
v -0.3 0.7 -0.4
v -0.3 1.1 -0.4
v -0.3 1.2 -0.4
v 0.3 0.8 -0.4
v 0.3 1.1 -0.4
v 0.3 1.2 -0.4
v 0.4 0.8 -0.4
v 0.4 1.1 -0.4
v 0.4 1.2 -0.4
v -0.5 0.8 -0.5
v -0.5 1 -0.5
v -0.5 1.1 -0.5
v -0.5 1.2 -0.5
v -0.4 0.8 -0.5
v -0.4 1 -0.5
v -0.4 1.1 -0.5
v -0.4 1.2 -0.5
v 0.4 0.8 -0.5
v 0.4 1.1 -0.5
v 0.4 1.2 -0.5
v 0.5 0.8 -0.5
v 0.5 1 -0.5
v 0.5 1.1 -0.5
v 0.5 1.2 -0.5
v -0.6 0 -0.7
v -0.6 1.1 -0.7
v -0.6 1.2 -0.7
v -0.5 0.1 -0.7
v -0.5 1 -0.7
v 0.5 0.1 -0.7
v 0.5 1 -0.7
v 0.6 0 -0.7
v 0.6 1.1 -0.7
v 0.6 1.2 -0.7
v -0.6 0 0.5
v 0.6 0 0.5
v -0.5 0 0.4
v 0.5 0 0.4
v -0.5 0 -0.6
v 0.5 0 -0.6
v -0.6 0 -0.7
v 0.6 0 -0.7
v 0.1 0.7 0.1
v 0.2 0.7 0.1
v 0.1 0.7 0
v 0.2 0.7 0
v -0.3 0.7 -0.3
v -0.2 0.7 -0.3
v -0.4 0.7 -0.4
v -0.3 0.7 -0.4
v -0.2 0.7 -0.4
v -0.4 0.7 -0.5
v -0.3 0.7 -0.5
v -0.5 0.8 0.4
v -0.4 0.8 0.4
v 0.4 0.8 0.4
v 0.5 0.8 0.4
v -0.5 0.8 0.3
v -0.4 0.8 0.3
v -0.3 0.8 0.3
v 0.3 0.8 0.3
v 0.4 0.8 0.3
v 0.5 0.8 0.3
v -0.4 0.8 0.2
v -0.3 0.8 0.2
v -0.2 0.8 0.2
v 0.2 0.8 0.2
v 0.3 0.8 0.2
v 0.4 0.8 0.2
v -0.3 0.8 0.1
v -0.2 0.8 0.1
v -0.1 0.8 0.1
v 0.2 0.8 0.1
v 0.3 0.8 0.1
v -0.2 0.8 0
v -0.1 0.8 0
v -5.96046e-08 0.8 0
v -0.1 0.8 -0.1
v -5.96046e-08 0.8 -0.1
v -0.2 0.8 -0.2
v -0.1 0.8 -0.2
v 0.1 0.8 -0.2
v 0.2 0.8 -0.2
v -0.2 0.8 -0.3
v -0.1 0.8 -0.3
v 0.1 0.8 -0.3
v 0.2 0.8 -0.3
v 0.3 0.8 -0.3
v 0.2 0.8 -0.4
v 0.3 0.8 -0.4
v 0.4 0.8 -0.4
v -0.5 0.8 -0.5
v -0.4 0.8 -0.5
v 0.3 0.8 -0.5
v 0.4 0.8 -0.5
v 0.5 0.8 -0.5
v -0.5 0.8 -0.6
v -0.4 0.8 -0.6
v 0.4 0.8 -0.6
v 0.5 0.8 -0.6
v -0.6 1.2 0.5
v 0.6 1.2 0.5
v -0.5 1.2 0.4
v -0.4 1.2 0.4
v -0.1 1.2 0.4
v 0.1 1.2 0.4
v 0.4 1.2 0.4
v 0.5 1.2 0.4
v -0.5 1.2 0.3
v -0.4 1.2 0.3
v -0.3 1.2 0.3
v 0.3 1.2 0.3
v 0.4 1.2 0.3
v 0.5 1.2 0.3
v -0.4 1.2 0.2
v -0.3 1.2 0.2
v -0.2 1.2 0.2
v 0.2 1.2 0.2
v 0.3 1.2 0.2
v 0.4 1.2 0.2
v -0.3 1.2 0.1
v -0.2 1.2 0.1
v -0.1 1.2 0.1
v 0.1 1.2 0.1
v 0.2 1.2 0.1
v 0.3 1.2 0.1
v -0.5 1.2 0
v -0.2 1.2 0
v -0.1 1.2 0
v -5.96046e-08 1.2 0
v 0.1 1.2 0
v 0.2 1.2 0
v 0.5 1.2 0
v -0.1 1.2 -0.1
v -5.96046e-08 1.2 -0.1
v -0.5 1.2 -0.2
v -0.2 1.2 -0.2
v -0.1 1.2 -0.2
v 0.1 1.2 -0.2
v 0.2 1.2 -0.2
v 0.5 1.2 -0.2
v -0.3 1.2 -0.3
v -0.2 1.2 -0.3
v -0.1 1.2 -0.3
v 0.1 1.2 -0.3
v 0.2 1.2 -0.3
v 0.3 1.2 -0.3
v -0.4 1.2 -0.4
v -0.3 1.2 -0.4
v -0.2 1.2 -0.4
v 0.2 1.2 -0.4
v 0.3 1.2 -0.4
v 0.4 1.2 -0.4
v -0.5 1.2 -0.5
v -0.4 1.2 -0.5
v -0.3 1.2 -0.5
v 0.3 1.2 -0.5
v 0.4 1.2 -0.5
v 0.5 1.2 -0.5
v -0.5 1.2 -0.6
v -0.4 1.2 -0.6
v -0.1 1.2 -0.6
v 0.1 1.2 -0.6
v 0.4 1.2 -0.6
v 0.5 1.2 -0.6
v -0.6 1.2 -0.7
v 0.6 1.2 -0.7

# faces
f 3/1/1 2/1/1 1/1/1
f 4/1/1 2/1/1 3/1/1
f 5/1/1 3/1/1 1/1/1
f 5/2/1 4/2/1 3/2/1
f 6/1/1 2/1/1 4/1/1
f 6/2/1 4/2/1 5/2/1
f 7/1/1 5/1/1 1/1/1
f 7/1/1 6/1/1 5/1/1
f 8/1/1 2/1/1 6/1/1
f 8/1/1 6/1/1 7/1/1
f 9/2/1 8/2/1 7/2/1
f 10/2/1 8/2/1 9/2/1
f 15/2/1 12/2/1 11/2/1
f 16/2/1 12/2/1 15/2/1
f 17/2/1 14/2/1 13/2/1
f 18/2/1 14/2/1 17/2/1
f 19/2/1 16/2/1 15/2/1
f 20/2/1 16/2/1 19/2/1
f 21/2/1 18/2/1 17/2/1
f 22/2/1 18/2/1 21/2/1
f 23/3/1 20/3/1 19/3/1
f 24/3/1 20/3/1 23/3/1
f 25/3/1 22/3/1 21/3/1
f 26/3/1 22/3/1 25/3/1
f 31/2/1 30/2/1 29/2/1
f 32/2/1 30/2/1 31/2/1
f 33/2/1 28/2/1 27/2/1
f 34/2/1 28/2/1 33/2/1
f 35/3/1 32/3/1 31/3/1
f 36/3/1 32/3/1 35/3/1
f 37/3/1 34/3/1 33/3/1
f 38/3/1 34/3/1 37/3/1
f 43/2/1 42/2/1 41/2/1
f 44/2/1 42/2/1 43/2/1
f 45/2/1 40/2/1 39/2/1
f 46/2/1 40/2/1 45/2/1
f 47/3/1 44/3/1 43/3/1
f 48/3/1 44/3/1 47/3/1
f 49/3/1 46/3/1 45/3/1
f 50/3/1 46/3/1 49/3/1
f 55/2/1 52/2/1 51/2/1
f 56/2/1 54/2/1 53/2/1
f 57/2/1 52/2/1 55/2/1
f 58/2/1 52/2/1 57/2/1
f 59/2/1 56/2/1 53/2/1
f 60/2/1 56/2/1 59/2/1
f 63/2/1 62/2/1 61/2/1
f 64/2/1 62/2/1 63/2/1
f 65/3/1 64/3/1 63/3/1
f 66/3/1 64/3/1 65/3/1
f 71/2/1 68/2/1 67/2/1
f 72/2/1 68/2/1 71/2/1
f 73/2/1 70/2/1 69/2/1
f 74/2/1 70/2/1 73/2/1
f 75/3/1 72/3/1 71/3/1
f 76/3/1 72/3/1 75/3/1
f 77/3/1 74/3/1 73/3/1
f 78/3/1 74/3/1 77/3/1
f 83/2/1 80/2/1 79/2/1
f 84/2/1 80/2/1 83/2/1
f 85/2/1 82/2/1 81/2/1
f 86/2/1 82/2/1 85/2/1
f 87/3/1 84/3/1 83/3/1
f 88/3/1 84/3/1 87/3/1
f 89/3/1 86/3/1 85/3/1
f 90/3/1 86/3/1 89/3/1
f 95/2/1 92/2/1 91/2/1
f 96/2/1 92/2/1 95/2/1
f 97/2/1 94/2/1 93/2/1
f 98/2/1 94/2/1 97/2/1
f 99/3/1 96/3/1 95/3/1
f 100/3/1 96/3/1 99/3/1
f 101/3/1 98/3/1 97/3/1
f 102/3/1 98/3/1 101/3/1
f 107/2/1 104/2/1 103/2/1
f 108/2/1 104/2/1 107/2/1
f 109/2/1 106/2/1 105/2/1
f 110/2/1 106/2/1 109/2/1
f 111/1/1 108/1/1 107/1/1
f 112/1/1 108/1/1 111/1/1
f 113/1/1 110/1/1 109/1/1
f 114/1/1 110/1/1 113/1/1
f 115/2/1 112/2/1 111/2/1
f 116/2/1 112/2/1 115/2/1
f 117/2/1 114/2/1 113/2/1
f 118/2/1 114/2/1 117/2/1
f 119/2/2 120/2/2 123/2/2
f 123/2/2 120/2/2 124/2/2
f 121/2/2 122/2/2 125/2/2
f 125/2/2 122/2/2 126/2/2
f 123/1/2 124/1/2 127/1/2
f 127/1/2 124/1/2 128/1/2
f 125/1/2 126/1/2 129/1/2
f 129/1/2 126/1/2 130/1/2
f 127/2/2 128/2/2 131/2/2
f 131/2/2 128/2/2 132/2/2
f 129/2/2 130/2/2 133/2/2
f 133/2/2 130/2/2 134/2/2
f 137/2/2 138/2/2 139/2/2
f 139/2/2 138/2/2 140/2/2
f 135/2/2 136/2/2 141/2/2
f 141/2/2 136/2/2 142/2/2
f 139/1/2 140/1/2 143/1/2
f 143/1/2 140/1/2 144/1/2
f 141/1/2 142/1/2 145/1/2
f 145/1/2 142/1/2 146/1/2
f 143/3/2 144/3/2 147/3/2
f 147/3/2 144/3/2 148/3/2
f 145/3/2 146/3/2 149/3/2
f 149/3/2 146/3/2 150/3/2
f 153/2/2 154/2/2 155/2/2
f 155/2/2 154/2/2 156/2/2
f 151/2/2 152/2/2 157/2/2
f 157/2/2 152/2/2 158/2/2
f 155/3/2 156/3/2 159/3/2
f 159/3/2 156/3/2 160/3/2
f 157/3/2 158/3/2 161/3/2
f 161/3/2 158/3/2 162/3/2
f 163/2/2 164/2/2 167/2/2
f 167/2/2 164/2/2 168/2/2
f 165/2/2 166/2/2 169/2/2
f 169/2/2 166/2/2 170/2/2
f 167/3/2 168/3/2 171/3/2
f 171/3/2 168/3/2 172/3/2
f 169/3/2 170/3/2 173/3/2
f 173/3/2 170/3/2 174/3/2
f 175/2/2 176/2/2 177/2/2
f 175/2/2 177/2/2 178/2/2
f 178/2/2 177/2/2 179/2/2
f 180/2/2 181/2/2 184/2/2
f 182/2/2 183/2/2 185/2/2
f 184/2/2 181/2/2 186/2/2
f 186/2/2 181/2/2 187/2/2
f 182/2/2 185/2/2 188/2/2
f 188/2/2 185/2/2 189/2/2
f 190/2/2 191/2/2 194/2/2
f 194/2/2 191/2/2 195/2/2
f 192/2/2 193/2/2 196/2/2
f 196/2/2 193/2/2 197/2/2
f 194/3/2 195/3/2 198/3/2
f 198/3/2 195/3/2 199/3/2
f 196/3/2 197/3/2 200/3/2
f 200/3/2 197/3/2 201/3/2
f 202/2/2 203/2/2 206/2/2
f 206/2/2 203/2/2 207/2/2
f 204/2/2 205/2/2 208/2/2
f 208/2/2 205/2/2 209/2/2
f 206/3/2 207/3/2 210/3/2
f 210/3/2 207/3/2 211/3/2
f 208/3/2 209/3/2 212/3/2
f 212/3/2 209/3/2 213/3/2
f 214/2/2 215/2/2 218/2/2
f 216/2/2 217/2/2 219/2/2
f 218/2/2 215/2/2 220/2/2
f 220/2/2 215/2/2 221/2/2
f 216/2/2 219/2/2 222/2/2
f 222/2/2 219/2/2 223/2/2
f 220/3/2 221/3/2 224/3/2
f 224/3/2 221/3/2 225/3/2
f 222/3/2 223/3/2 226/3/2
f 226/3/2 223/3/2 227/3/2
f 228/1/2 229/1/2 230/1/2
f 230/1/2 229/1/2 231/1/2
f 228/1/2 230/1/2 232/1/2
f 230/2/2 231/2/2 232/2/2
f 231/1/2 229/1/2 233/1/2
f 232/2/2 231/2/2 233/2/2
f 228/1/2 232/1/2 234/1/2
f 232/1/2 233/1/2 234/1/2
f 233/1/2 229/1/2 235/1/2
f 234/1/2 233/1/2 235/1/2
f 234/2/2 235/2/2 236/2/2
f 236/2/2 235/2/2 237/2/2
f 241/1/3 239/1/3 238/1/3
f 242/1/3 239/1/3 241/1/3
f 243/1/3 241/1/3 238/1/3
f 243/2/3 242/2/3 241/2/3
f 244/1/3 239/1/3 242/1/3
f 244/2/3 242/2/3 243/2/3
f 245/1/3 243/1/3 238/1/3
f 245/1/3 244/1/3 243/1/3
f 246/2/3 240/2/3 239/2/3
f 246/1/3 244/1/3 245/1/3
f 246/1/3 239/1/3 244/1/3
f 247/2/3 240/2/3 246/2/3
f 252/2/3 249/2/3 248/2/3
f 253/1/3 250/1/3 249/1/3
f 253/2/3 249/2/3 252/2/3
f 254/3/3 251/3/3 250/3/3
f 254/1/3 250/1/3 253/1/3
f 255/3/3 251/3/3 254/3/3
f 259/2/3 257/2/3 256/2/3
f 260/2/3 257/2/3 259/2/3
f 261/3/3 258/3/3 257/3/3
f 261/2/3 257/2/3 260/2/3
f 262/3/3 258/3/3 261/3/3
f 267/2/3 264/2/3 263/2/3
f 267/2/3 265/2/3 264/2/3
f 268/3/3 266/3/3 265/3/3
f 268/2/3 265/2/3 267/2/3
f 269/3/3 266/3/3 268/3/3
f 273/2/3 271/2/3 270/2/3
f 274/3/3 272/3/3 271/3/3
f 274/2/3 271/2/3 273/2/3
f 275/3/3 272/3/3 274/3/3
f 279/2/3 277/2/3 276/2/3
f 280/3/3 278/3/3 277/3/3
f 280/2/3 277/2/3 279/2/3
f 281/3/3 278/3/3 280/3/3
f 285/2/3 283/2/3 282/2/3
f 286/3/3 284/3/3 283/3/3
f 286/2/3 283/2/3 285/2/3
f 287/3/3 284/3/3 286/3/3
f 291/2/3 289/2/3 288/2/3
f 291/2/3 290/2/3 289/2/3
f 292/2/3 290/2/3 291/2/3
f 295/2/3 294/2/3 293/2/3
f 296/2/3 294/2/3 295/2/3
f 297/2/3 294/2/3 296/2/3
f 301/2/3 299/2/3 298/2/3
f 302/3/3 300/3/3 299/3/3
f 302/2/3 299/2/3 301/2/3
f 303/3/3 300/3/3 302/3/3
f 307/2/3 305/2/3 304/2/3
f 308/3/3 306/3/3 305/3/3
f 308/2/3 305/2/3 307/2/3
f 309/3/3 306/3/3 308/3/3
f 313/2/3 311/2/3 310/2/3
f 314/3/3 312/3/3 311/3/3
f 314/2/3 311/2/3 313/2/3
f 315/3/3 312/3/3 314/3/3
f 319/2/3 317/2/3 316/2/3
f 320/3/3 318/3/3 317/3/3
f 320/2/3 317/2/3 319/2/3
f 321/3/3 318/3/3 320/3/3
f 325/2/3 323/2/3 322/2/3
f 326/3/3 324/3/3 323/3/3
f 326/2/3 323/2/3 325/2/3
f 327/3/3 324/3/3 326/3/3
f 332/2/3 329/2/3 328/2/3
f 332/2/3 330/2/3 329/2/3
f 333/3/3 331/3/3 330/3/3
f 333/2/3 330/2/3 332/2/3
f 334/3/3 331/3/3 333/3/3
f 338/2/3 336/2/3 335/2/3
f 339/3/3 337/3/3 336/3/3
f 339/2/3 336/2/3 338/2/3
f 340/3/3 337/3/3 339/3/3
f 345/2/3 342/2/3 341/2/3
f 346/1/3 343/1/3 342/1/3
f 346/2/3 342/2/3 345/2/3
f 347/2/3 344/2/3 343/2/3
f 347/1/3 343/1/3 346/1/3
f 348/2/3 344/2/3 347/2/3
f 353/2/3 350/2/3 349/2/3
f 354/1/3 351/1/3 350/1/3
f 354/2/3 350/2/3 353/2/3
f 355/2/3 352/2/3 351/2/3
f 355/1/3 351/1/3 354/1/3
f 356/2/3 352/2/3 355/2/3
f 357/2/4 358/2/4 361/2/4
f 358/1/4 359/1/4 362/1/4
f 361/2/4 358/2/4 362/2/4
f 359/2/4 360/2/4 363/2/4
f 362/1/4 359/1/4 363/1/4
f 363/2/4 360/2/4 364/2/4
f 365/2/4 366/2/4 369/2/4
f 366/1/4 367/1/4 370/1/4
f 369/2/4 366/2/4 370/2/4
f 367/2/4 368/2/4 371/2/4
f 370/1/4 367/1/4 371/1/4
f 371/2/4 368/2/4 372/2/4
f 373/2/4 374/2/4 377/2/4
f 374/2/4 375/2/4 377/2/4
f 375/3/4 376/3/4 378/3/4
f 377/2/4 375/2/4 378/2/4
f 378/3/4 376/3/4 379/3/4
f 380/2/4 381/2/4 383/2/4
f 381/3/4 382/3/4 384/3/4
f 383/2/4 381/2/4 384/2/4
f 384/3/4 382/3/4 385/3/4
f 386/2/4 387/2/4 389/2/4
f 387/3/4 388/3/4 390/3/4
f 389/2/4 387/2/4 390/2/4
f 390/3/4 388/3/4 391/3/4
f 392/2/4 393/2/4 395/2/4
f 393/3/4 394/3/4 396/3/4
f 395/2/4 393/2/4 396/2/4
f 396/3/4 394/3/4 397/3/4
f 398/2/4 399/2/4 401/2/4
f 399/3/4 400/3/4 402/3/4
f 401/2/4 399/2/4 402/2/4
f 402/3/4 400/3/4 403/3/4
f 404/2/4 405/2/4 407/2/4
f 405/3/4 406/3/4 408/3/4
f 407/2/4 405/2/4 408/2/4
f 408/3/4 406/3/4 409/3/4
f 410/2/4 411/2/4 412/2/4
f 412/2/4 411/2/4 413/2/4
f 413/2/4 411/2/4 414/2/4
f 415/2/4 416/2/4 418/2/4
f 416/2/4 417/2/4 418/2/4
f 418/2/4 417/2/4 419/2/4
f 420/2/4 421/2/4 422/2/4
f 422/2/4 421/2/4 423/2/4
f 423/2/4 421/2/4 424/2/4
f 425/2/4 426/2/4 428/2/4
f 426/3/4 427/3/4 429/3/4
f 428/2/4 426/2/4 429/2/4
f 429/3/4 427/3/4 430/3/4
f 431/2/4 432/2/4 434/2/4
f 432/3/4 433/3/4 435/3/4
f 434/2/4 432/2/4 435/2/4
f 435/3/4 433/3/4 436/3/4
f 437/2/4 438/2/4 441/2/4
f 438/2/4 439/2/4 441/2/4
f 439/3/4 440/3/4 442/3/4
f 441/2/4 439/2/4 442/2/4
f 442/3/4 440/3/4 443/3/4
f 444/2/4 445/2/4 447/2/4
f 445/3/4 446/3/4 448/3/4
f 447/2/4 445/2/4 448/2/4
f 448/3/4 446/3/4 449/3/4
f 450/2/4 451/2/4 454/2/4
f 451/1/4 452/1/4 455/1/4
f 454/2/4 451/2/4 455/2/4
f 452/3/4 453/3/4 456/3/4
f 455/1/4 452/1/4 456/1/4
f 456/3/4 453/3/4 457/3/4
f 458/2/4 459/2/4 461/2/4
f 461/2/4 459/2/4 462/2/4
f 459/3/4 460/3/4 463/3/4
f 462/2/4 459/2/4 463/2/4
f 463/3/4 460/3/4 464/3/4
f 465/1/4 466/1/4 468/1/4
f 468/1/4 466/1/4 469/1/4
f 465/1/4 468/1/4 470/1/4
f 468/2/4 469/2/4 470/2/4
f 469/1/4 466/1/4 471/1/4
f 470/2/4 469/2/4 471/2/4
f 465/1/4 470/1/4 472/1/4
f 470/1/4 471/1/4 472/1/4
f 466/2/4 467/2/4 473/2/4
f 472/1/4 471/1/4 473/1/4
f 471/1/4 466/1/4 473/1/4
f 473/2/4 467/2/4 474/2/4
f 477/1/5 476/1/5 475/1/5
f 478/1/5 476/1/5 477/1/5
f 479/1/5 477/1/5 475/1/5
f 479/2/5 478/2/5 477/2/5
f 480/1/5 476/1/5 478/1/5
f 480/2/5 478/2/5 479/2/5
f 481/1/5 479/1/5 475/1/5
f 481/1/5 480/1/5 479/1/5
f 482/1/5 476/1/5 480/1/5
f 482/1/5 480/1/5 481/1/5
f 483/2/6 484/2/6 485/2/6
f 485/2/6 484/2/6 486/2/6
f 487/2/6 488/2/6 490/2/6
f 490/2/6 488/2/6 491/2/6
f 489/2/6 490/2/6 492/2/6
f 492/2/6 490/2/6 493/2/6
f 494/2/6 495/2/6 498/2/6
f 498/2/6 495/2/6 499/2/6
f 496/2/6 497/2/6 502/2/6
f 502/2/6 497/2/6 503/2/6
f 499/2/6 500/2/6 504/2/6
f 504/2/6 500/2/6 505/2/6
f 501/2/6 502/2/6 508/2/6
f 508/2/6 502/2/6 509/2/6
f 505/2/6 506/2/6 510/2/6
f 510/2/6 506/2/6 511/2/6
f 507/2/6 508/2/6 513/2/6
f 513/2/6 508/2/6 514/2/6
f 511/2/6 512/2/6 515/2/6
f 515/2/6 512/2/6 516/2/6
f 516/2/6 517/2/6 518/2/6
f 518/2/6 517/2/6 519/2/6
f 520/2/6 521/2/6 524/2/6
f 524/2/6 521/2/6 525/2/6
f 522/2/6 523/2/6 526/2/6
f 526/2/6 523/2/6 527/2/6
f 527/2/6 528/2/6 529/2/6
f 529/2/6 528/2/6 530/2/6
f 530/2/6 531/2/6 534/2/6
f 534/2/6 531/2/6 535/2/6
f 532/2/6 533/2/6 537/2/6
f 537/2/6 533/2/6 538/2/6
f 535/2/6 536/2/6 539/2/6
f 539/2/6 536/2/6 540/2/6
f 541/2/6 542/2/6 543/2/6
f 543/2/6 542/2/6 544/2/6
f 544/2/6 542/2/6 545/2/6
f 545/2/6 542/2/6 546/2/6
f 546/2/6 542/2/6 547/2/6
f 547/2/6 542/2/6 548/2/6
f 541/2/6 543/2/6 549/2/6
f 544/3/6 545/3/6 550/3/6
f 550/3/6 545/3/6 551/3/6
f 546/3/6 547/3/6 552/3/6
f 552/3/6 547/3/6 553/3/6
f 548/2/6 542/2/6 554/2/6
f 549/3/6 550/3/6 555/3/6
f 551/3/6 545/3/6 556/3/6
f 556/3/6 545/3/6 557/3/6
f 546/3/6 552/3/6 558/3/6
f 558/3/6 552/3/6 559/3/6
f 553/3/6 554/3/6 560/3/6
f 555/3/6 556/3/6 561/3/6
f 557/3/6 545/3/6 562/3/6
f 545/2/6 546/2/6 563/2/6
f 562/3/6 545/3/6 563/3/6
f 546/3/6 558/3/6 564/3/6
f 563/2/6 546/2/6 564/2/6
f 564/3/6 558/3/6 565/3/6
f 559/3/6 560/3/6 566/3/6
f 549/3/6 555/3/6 567/3/6
f 541/2/6 549/2/6 567/2/6
f 561/3/6 562/3/6 567/3/6
f 555/3/6 561/3/6 567/3/6
f 567/3/6 562/3/6 568/3/6
f 563/2/6 564/2/6 569/2/6
f 569/2/6 564/2/6 570/2/6
f 570/2/6 564/2/6 571/2/6
f 565/3/6 566/3/6 572/3/6
f 566/3/6 560/3/6 573/3/6
f 554/2/6 542/2/6 573/2/6
f 572/3/6 566/3/6 573/3/6
f 560/3/6 554/3/6 573/3/6
f 567/2/6 568/2/6 574/2/6
f 568/2/6 569/2/6 574/2/6
f 570/3/6 571/3/6 575/3/6
f 567/2/6 574/2/6 576/2/6
f 541/2/6 567/2/6 576/2/6
f 576/2/6 574/2/6 577/2/6
f 574/3/6 575/3/6 578/3/6
f 577/2/6 574/2/6 578/2/6
f 571/2/6 572/2/6 579/2/6
f 578/3/6 575/3/6 579/3/6
f 572/2/6 573/2/6 579/2/6
f 575/3/6 571/3/6 579/3/6
f 579/2/6 573/2/6 580/2/6
f 573/2/6 542/2/6 581/2/6
f 580/2/6 573/2/6 581/2/6
f 576/3/6 577/3/6 582/3/6
f 582/3/6 577/3/6 583/3/6
f 578/2/6 579/2/6 584/2/6
f 584/2/6 579/2/6 585/2/6
f 580/3/6 581/3/6 586/3/6
f 586/3/6 581/3/6 587/3/6
f 576/3/6 582/3/6 588/3/6
f 588/3/6 582/3/6 589/3/6
f 583/3/6 584/3/6 590/3/6
f 585/3/6 586/3/6 591/3/6
f 587/3/6 581/3/6 592/3/6
f 592/3/6 581/3/6 593/3/6
f 541/2/6 576/2/6 594/2/6
f 576/3/6 588/3/6 594/3/6
f 594/3/6 588/3/6 595/3/6
f 589/3/6 590/3/6 596/3/6
f 591/3/6 592/3/6 597/3/6
f 593/3/6 581/3/6 598/3/6
f 581/2/6 542/2/6 599/2/6
f 598/3/6 581/3/6 599/3/6
f 541/2/6 594/2/6 600/2/6
f 595/3/6 596/3/6 601/3/6
f 584/2/6 585/2/6 602/2/6
f 590/3/6 584/3/6 602/3/6
f 601/3/6 596/3/6 602/3/6
f 596/3/6 590/3/6 602/3/6
f 597/3/6 598/3/6 603/3/6
f 602/2/6 585/2/6 603/2/6
f 585/3/6 591/3/6 603/3/6
f 591/3/6 597/3/6 603/3/6
f 603/3/6 598/3/6 604/3/6
f 599/2/6 542/2/6 605/2/6
f 601/2/6 602/2/6 606/2/6
f 604/2/6 605/2/6 606/2/6
f 600/2/6 601/2/6 606/2/6
f 603/2/6 604/2/6 606/2/6
f 602/2/6 603/2/6 606/2/6
f 541/2/6 600/2/6 606/2/6
f 605/2/6 542/2/6 607/2/6
f 606/2/6 605/2/6 607/2/6
