# MagicaVoxel @ Ephtracy

# group
o 

# material
mtllib trident.mtl
usemtl palette

# normals
vn -1 0 0
vn 1 0 0
vn 0 0 1
vn 0 0 -1
vn 0 -1 0
vn 0 1 0

# texcoords
vt 0.396484 0.5
vt 0.986328 0.5

# verts
v -0.1 0.2 0.2
v -0.1 0.2 -0.1
v -0.1 0.3 0.2
v -0.1 0.3 0
v -0.1 0.4 0.2
v -0.1 0.4 0
v -0.1 0.4 -0.1
v -0.1 0.4 -0.6
v -0.1 0.5 0.2
v -0.1 0.5 0
v -0.1 0.5 -0.1
v -0.1 0.5 -0.6
v -0.1 0.6 0.2
v -0.1 0.6 0
v -0.1 0.7 0.2
v -0.1 0.7 -0.1
v -1.49012e-08 0.2 0.2
v -1.49012e-08 0.2 -0.1
v -1.49012e-08 0.3 0.2
v -1.49012e-08 0.3 0
v -1.49012e-08 0.4 0.2
v -1.49012e-08 0.4 0
v -1.49012e-08 0.4 -0.1
v -1.49012e-08 0.4 -0.6
v -1.49012e-08 0.5 0.2
v -1.49012e-08 0.5 0
v -1.49012e-08 0.5 -0.1
v -1.49012e-08 0.5 -0.6
v -1.49012e-08 0.6 0.2
v -1.49012e-08 0.6 0
v -1.49012e-08 0.7 0.2
v -1.49012e-08 0.7 -0.1
v -0.1 0.2 0.2
v -0.1 0.3 0.2
v -0.1 0.4 0.2
v -0.1 0.5 0.2
v -0.1 0.6 0.2
v -0.1 0.7 0.2
v -1.49012e-08 0.2 0.2
v -1.49012e-08 0.3 0.2
v -1.49012e-08 0.4 0.2
v -1.49012e-08 0.5 0.2
v -1.49012e-08 0.6 0.2
v -1.49012e-08 0.7 0.2
v -0.1 0.3 0
v -0.1 0.4 0
v -0.1 0.5 0
v -0.1 0.6 0
v -1.49012e-08 0.3 0
v -1.49012e-08 0.4 0
v -1.49012e-08 0.5 0
v -1.49012e-08 0.6 0
v -0.1 0.2 -0.1
v -0.1 0.4 -0.1
v -0.1 0.5 -0.1
v -0.1 0.7 -0.1
v -1.49012e-08 0.2 -0.1
v -1.49012e-08 0.4 -0.1
v -1.49012e-08 0.5 -0.1
v -1.49012e-08 0.7 -0.1
v -0.1 0.4 -0.6
v -0.1 0.5 -0.6
v -1.49012e-08 0.4 -0.6
v -1.49012e-08 0.5 -0.6
v -0.1 0.2 0.2
v -1.49012e-08 0.2 0.2
v -0.1 0.2 -0.1
v -1.49012e-08 0.2 -0.1
v -0.1 0.4 0.2
v -1.49012e-08 0.4 0.2
v -0.1 0.4 0
v -1.49012e-08 0.4 0
v -0.1 0.4 -0.1
v -1.49012e-08 0.4 -0.1
v -0.1 0.4 -0.6
v -1.49012e-08 0.4 -0.6
v -0.1 0.6 0.2
v -1.49012e-08 0.6 0.2
v -0.1 0.6 0
v -1.49012e-08 0.6 0
v -0.1 0.3 0.2
v -1.49012e-08 0.3 0.2
v -0.1 0.3 0
v -1.49012e-08 0.3 0
v -0.1 0.5 0.2
v -1.49012e-08 0.5 0.2
v -0.1 0.5 0
v -1.49012e-08 0.5 0
v -0.1 0.5 -0.1
v -1.49012e-08 0.5 -0.1
v -0.1 0.5 -0.6
v -1.49012e-08 0.5 -0.6
v -0.1 0.7 0.2
v -1.49012e-08 0.7 0.2
v -0.1 0.7 -0.1
v -1.49012e-08 0.7 -0.1

# faces
f 3/2/1 2/2/1 1/2/1
f 4/2/1 2/2/1 3/2/1
f 6/2/1 2/2/1 4/2/1
f 7/2/1 2/2/1 6/2/1
f 9/2/1 6/2/1 5/2/1
f 9/2/1 7/2/1 6/2/1
f 10/2/1 7/2/1 9/2/1
f 11/1/1 8/1/1 7/1/1
f 11/2/1 7/2/1 10/2/1
f 12/1/1 8/1/1 11/1/1
f 14/2/1 11/2/1 10/2/1
f 15/2/1 14/2/1 13/2/1
f 16/2/1 11/2/1 14/2/1
f 16/2/1 14/2/1 15/2/1
f 17/2/2 18/2/2 19/2/2
f 19/2/2 18/2/2 20/2/2
f 20/2/2 18/2/2 22/2/2
f 22/2/2 18/2/2 23/2/2
f 21/2/2 22/2/2 25/2/2
f 22/2/2 23/2/2 25/2/2
f 25/2/2 23/2/2 26/2/2
f 23/1/2 24/1/2 27/1/2
f 26/2/2 23/2/2 27/2/2
f 27/1/2 24/1/2 28/1/2
f 26/2/2 27/2/2 30/2/2
f 29/2/2 30/2/2 31/2/2
f 30/2/2 27/2/2 32/2/2
f 31/2/2 30/2/2 32/2/2
f 39/2/3 34/2/3 33/2/3
f 40/2/3 34/2/3 39/2/3
f 41/2/3 36/2/3 35/2/3
f 42/2/3 36/2/3 41/2/3
f 43/2/3 38/2/3 37/2/3
f 44/2/3 38/2/3 43/2/3
f 49/2/3 46/2/3 45/2/3
f 50/2/3 46/2/3 49/2/3
f 51/2/3 48/2/3 47/2/3
f 52/2/3 48/2/3 51/2/3
f 53/2/4 54/2/4 57/2/4
f 57/2/4 54/2/4 58/2/4
f 55/2/4 56/2/4 59/2/4
f 59/2/4 56/2/4 60/2/4
f 61/1/4 62/1/4 63/1/4
f 63/1/4 62/1/4 64/1/4
f 67/2/5 66/2/5 65/2/5
f 68/2/5 66/2/5 67/2/5
f 71/2/5 70/2/5 69/2/5
f 72/2/5 70/2/5 71/2/5
f 75/1/5 74/1/5 73/1/5
f 76/1/5 74/1/5 75/1/5
f 79/2/5 78/2/5 77/2/5
f 80/2/5 78/2/5 79/2/5
f 81/2/6 82/2/6 83/2/6
f 83/2/6 82/2/6 84/2/6
f 85/2/6 86/2/6 87/2/6
f 87/2/6 86/2/6 88/2/6
f 89/1/6 90/1/6 91/1/6
f 91/1/6 90/1/6 92/1/6
f 93/2/6 94/2/6 95/2/6
f 95/2/6 94/2/6 96/2/6
