# MagicaVoxel @ Ephtracy

# group
o 

# material
mtllib trident_trap.mtl
usemtl palette

# normals
vn -1 0 0
vn 1 0 0
vn 0 0 1
vn 0 0 -1
vn 0 -1 0
vn 0 1 0

# texcoords
vt 0.0957031 0.5
vt 0.689453 0.5
vt 0.958984 0.5

# verts
v -0.4 0 0.4
v -0.4 0 -0.4
v -0.4 0.2 0.4
v -0.4 0.2 -0.4
v -0.4 1.1 0.4
v -0.4 1.1 -0.4
v -0.4 1.2 0.4
v -0.4 1.2 -0.4
v -0.3 1.2 0.2
v -0.3 1.2 -0.3
v -0.3 1.3 0.2
v -0.3 1.3 -0.3
v -0.2 0.4 0.5
v -0.2 0.4 0.4
v -0.2 0.8 0.5
v -0.2 0.8 0.4
v -0.2 1.2 0.3
v -0.2 1.2 0.2
v -0.2 1.3 0.3
v -0.2 1.3 0.2
v -0.1 1.2 0
v -0.1 1.2 -0.1
v -0.1 1.3 0
v -0.1 1.3 -0.1
v 0.1 0.5 0.5
v 0.1 0.5 0.4
v 0.1 0.5 0.2
v 0.1 0.7 0.5
v 0.1 0.7 0.4
v 0.1 0.7 0.2
v 0.2 1.2 0
v 0.2 1.2 -0.1
v 0.2 1.3 0
v 0.2 1.3 -0.1
v -0.2 1.2 0
v -0.2 1.2 -0.1
v -0.2 1.3 0
v -0.2 1.3 -0.1
v -0.1 0.5 0.5
v -0.1 0.5 0.4
v -0.1 0.5 0.2
v -0.1 0.7 0.5
v -0.1 0.7 0.4
v -0.1 0.7 0.2
v 0.1 1.2 0
v 0.1 1.2 -0.1
v 0.1 1.3 0
v 0.1 1.3 -0.1
v 0.2 0.4 0.5
v 0.2 0.4 0.4
v 0.2 0.8 0.5
v 0.2 0.8 0.4
v 0.2 1.2 0.3
v 0.2 1.2 0.2
v 0.2 1.3 0.3
v 0.2 1.3 0.2
v 0.3 1.2 0.2
v 0.3 1.2 -0.3
v 0.3 1.3 0.2
v 0.3 1.3 -0.3
v 0.4 0 0.4
v 0.4 0 -0.4
v 0.4 0.2 0.4
v 0.4 0.2 -0.4
v 0.4 1.1 0.4
v 0.4 1.1 -0.4
v 0.4 1.2 0.4
v 0.4 1.2 -0.4
v -0.2 0.4 0.5
v -0.2 0.8 0.5
v -0.1 0.5 0.5
v -0.1 0.7 0.5
v 0.1 0.5 0.5
v 0.1 0.7 0.5
v 0.2 0.4 0.5
v 0.2 0.8 0.5
v -0.4 0 0.4
v -0.4 0.2 0.4
v -0.4 1.1 0.4
v -0.4 1.2 0.4
v -0.2 0.4 0.4
v -0.2 0.8 0.4
v 0.2 0.4 0.4
v 0.2 0.8 0.4
v 0.4 0 0.4
v 0.4 0.2 0.4
v 0.4 1.1 0.4
v 0.4 1.2 0.4
v -0.2 1.2 0.3
v -0.2 1.3 0.3
v 0.2 1.2 0.3
v 0.2 1.3 0.3
v -0.3 1.2 0.2
v -0.3 1.3 0.2
v -0.2 1.2 0.2
v -0.2 1.3 0.2
v -0.1 0.5 0.2
v -0.1 0.7 0.2
v 0.1 0.5 0.2
v 0.1 0.7 0.2
v 0.2 1.2 0.2
v 0.2 1.3 0.2
v 0.3 1.2 0.2
v 0.3 1.3 0.2
v -0.2 1.2 -0.1
v -0.2 1.3 -0.1
v -0.1 1.2 -0.1
v -0.1 1.3 -0.1
v 0.1 1.2 -0.1
v 0.1 1.3 -0.1
v 0.2 1.2 -0.1
v 0.2 1.3 -0.1
v -0.2 1.2 0
v -0.2 1.3 0
v -0.1 1.2 0
v -0.1 1.3 0
v 0.1 1.2 0
v 0.1 1.3 0
v 0.2 1.2 0
v 0.2 1.3 0
v -0.3 1.2 -0.3
v -0.3 1.3 -0.3
v 0.3 1.2 -0.3
v 0.3 1.3 -0.3
v -0.4 0 -0.4
v -0.4 0.2 -0.4
v -0.4 1.1 -0.4
v -0.4 1.2 -0.4
v 0.4 0 -0.4
v 0.4 0.2 -0.4
v 0.4 1.1 -0.4
v 0.4 1.2 -0.4
v -0.4 0 0.4
v 0.4 0 0.4
v -0.4 0 -0.4
v 0.4 0 -0.4
v -0.2 0.4 0.5
v 0.2 0.4 0.5
v -0.2 0.4 0.4
v 0.2 0.4 0.4
v -0.1 0.7 0.5
v 0.1 0.7 0.5
v -0.1 0.7 0.4
v 0.1 0.7 0.4
v -0.1 0.7 0.2
v 0.1 0.7 0.2
v -0.1 0.5 0.5
v 0.1 0.5 0.5
v -0.1 0.5 0.4
v 0.1 0.5 0.4
v -0.1 0.5 0.2
v 0.1 0.5 0.2
v -0.2 0.8 0.5
v 0.2 0.8 0.5
v -0.2 0.8 0.4
v 0.2 0.8 0.4
v -0.4 1.2 0.4
v 0.4 1.2 0.4
v -0.2 1.2 0.3
v 0.2 1.2 0.3
v -0.3 1.2 0.2
v -0.2 1.2 0.2
v 0.2 1.2 0.2
v 0.3 1.2 0.2
v -0.2 1.2 0
v -0.1 1.2 0
v 0.1 1.2 0
v 0.2 1.2 0
v -0.2 1.2 -0.1
v -0.1 1.2 -0.1
v 0.1 1.2 -0.1
v 0.2 1.2 -0.1
v -0.3 1.2 -0.3
v 0.3 1.2 -0.3
v -0.4 1.2 -0.4
v 0.4 1.2 -0.4
v -0.2 1.3 0.3
v 0.2 1.3 0.3
v -0.3 1.3 0.2
v -0.2 1.3 0.2
v 0.2 1.3 0.2
v 0.3 1.3 0.2
v -0.2 1.3 0
v -0.1 1.3 0
v 0.1 1.3 0
v 0.2 1.3 0
v -0.2 1.3 -0.1
v -0.1 1.3 -0.1
v 0.1 1.3 -0.1
v 0.2 1.3 -0.1
v -0.3 1.3 -0.3
v 0.3 1.3 -0.3

# faces
f 3/1/1 2/1/1 1/1/1
f 4/1/1 2/1/1 3/1/1
f 5/2/1 4/2/1 3/2/1
f 6/2/1 4/2/1 5/2/1
f 7/1/1 6/1/1 5/1/1
f 8/1/1 6/1/1 7/1/1
f 11/3/1 10/3/1 9/3/1
f 12/3/1 10/3/1 11/3/1
f 15/1/1 14/1/1 13/1/1
f 16/1/1 14/1/1 15/1/1
f 19/3/1 18/3/1 17/3/1
f 20/3/1 18/3/1 19/3/1
f 23/3/1 22/3/1 21/3/1
f 24/3/1 22/3/1 23/3/1
f 28/1/1 26/1/1 25/1/1
f 29/2/1 27/2/1 26/2/1
f 29/1/1 26/1/1 28/1/1
f 30/2/1 27/2/1 29/2/1
f 33/3/1 32/3/1 31/3/1
f 34/3/1 32/3/1 33/3/1
f 35/3/2 36/3/2 37/3/2
f 37/3/2 36/3/2 38/3/2
f 39/1/2 40/1/2 42/1/2
f 40/2/2 41/2/2 43/2/2
f 42/1/2 40/1/2 43/1/2
f 43/2/2 41/2/2 44/2/2
f 45/3/2 46/3/2 47/3/2
f 47/3/2 46/3/2 48/3/2
f 49/1/2 50/1/2 51/1/2
f 51/1/2 50/1/2 52/1/2
f 53/3/2 54/3/2 55/3/2
f 55/3/2 54/3/2 56/3/2
f 57/3/2 58/3/2 59/3/2
f 59/3/2 58/3/2 60/3/2
f 61/1/2 62/1/2 63/1/2
f 63/1/2 62/1/2 64/1/2
f 63/2/2 64/2/2 65/2/2
f 65/2/2 64/2/2 66/2/2
f 65/1/2 66/1/2 67/1/2
f 67/1/2 66/1/2 68/1/2
f 71/1/3 70/1/3 69/1/3
f 72/1/3 70/1/3 71/1/3
f 73/1/3 71/1/3 69/1/3
f 74/1/3 70/1/3 72/1/3
f 75/1/3 73/1/3 69/1/3
f 75/1/3 74/1/3 73/1/3
f 76/1/3 70/1/3 74/1/3
f 76/1/3 74/1/3 75/1/3
f 81/2/3 79/2/3 78/2/3
f 82/2/3 79/2/3 81/2/3
f 83/2/3 81/2/3 78/2/3
f 84/2/3 79/2/3 82/2/3
f 85/1/3 78/1/3 77/1/3
f 86/2/3 84/2/3 83/2/3
f 86/1/3 78/1/3 85/1/3
f 86/2/3 83/2/3 78/2/3
f 87/1/3 80/1/3 79/1/3
f 87/2/3 84/2/3 86/2/3
f 87/2/3 79/2/3 84/2/3
f 88/1/3 80/1/3 87/1/3
f 91/3/3 90/3/3 89/3/3
f 92/3/3 90/3/3 91/3/3
f 95/3/3 94/3/3 93/3/3
f 96/3/3 94/3/3 95/3/3
f 99/2/3 98/2/3 97/2/3
f 100/2/3 98/2/3 99/2/3
f 103/3/3 102/3/3 101/3/3
f 104/3/3 102/3/3 103/3/3
f 107/3/3 106/3/3 105/3/3
f 108/3/3 106/3/3 107/3/3
f 111/3/3 110/3/3 109/3/3
f 112/3/3 110/3/3 111/3/3
f 113/3/4 114/3/4 115/3/4
f 115/3/4 114/3/4 116/3/4
f 117/3/4 118/3/4 119/3/4
f 119/3/4 118/3/4 120/3/4
f 121/3/4 122/3/4 123/3/4
f 123/3/4 122/3/4 124/3/4
f 125/1/4 126/1/4 129/1/4
f 126/2/4 127/2/4 130/2/4
f 129/1/4 126/1/4 130/1/4
f 127/1/4 128/1/4 131/1/4
f 130/2/4 127/2/4 131/2/4
f 131/1/4 128/1/4 132/1/4
f 135/1/5 134/1/5 133/1/5
f 136/1/5 134/1/5 135/1/5
f 139/1/5 138/1/5 137/1/5
f 140/1/5 138/1/5 139/1/5
f 143/1/5 142/1/5 141/1/5
f 144/1/5 142/1/5 143/1/5
f 145/2/5 144/2/5 143/2/5
f 146/2/5 144/2/5 145/2/5
f 147/1/6 148/1/6 149/1/6
f 149/1/6 148/1/6 150/1/6
f 149/2/6 150/2/6 151/2/6
f 151/2/6 150/2/6 152/2/6
f 153/1/6 154/1/6 155/1/6
f 155/1/6 154/1/6 156/1/6
f 157/1/6 158/1/6 159/1/6
f 159/1/6 158/1/6 160/1/6
f 157/1/6 159/1/6 161/1/6
f 161/1/6 159/1/6 162/1/6
f 160/1/6 158/1/6 163/1/6
f 163/1/6 158/1/6 164/1/6
f 165/1/6 166/1/6 169/1/6
f 169/1/6 166/1/6 170/1/6
f 167/1/6 168/1/6 171/1/6
f 171/1/6 168/1/6 172/1/6
f 157/1/6 161/1/6 173/1/6
f 164/1/6 158/1/6 174/1/6
f 157/1/6 173/1/6 175/1/6
f 173/1/6 174/1/6 175/1/6
f 174/1/6 158/1/6 176/1/6
f 175/1/6 174/1/6 176/1/6
f 177/3/6 178/3/6 180/3/6
f 180/3/6 178/3/6 181/3/6
f 179/3/6 180/3/6 183/3/6
f 181/3/6 182/3/6 183/3/6
f 180/3/6 181/3/6 183/3/6
f 183/3/6 182/3/6 184/3/6
f 184/3/6 182/3/6 185/3/6
f 185/3/6 182/3/6 186/3/6
f 179/3/6 183/3/6 187/3/6
f 184/3/6 185/3/6 188/3/6
f 188/3/6 185/3/6 189/3/6
f 186/3/6 182/3/6 190/3/6
f 188/3/6 189/3/6 191/3/6
f 189/3/6 190/3/6 191/3/6
f 179/3/6 187/3/6 191/3/6
f 187/3/6 188/3/6 191/3/6
f 190/3/6 182/3/6 192/3/6
f 191/3/6 190/3/6 192/3/6
