# MagicaVoxel @ Ephtracy

# group
o 

# material
mtllib archero_model.mtl
usemtl palette

# normals
vn -1 0 0
vn 1 0 0
vn 0 0 1
vn 0 0 -1
vn 0 -1 0
vn 0 1 0

# texcoords
vt 0.0332031 0.5
vt 0.279297 0.5
vt 0.306641 0.5
vt 0.373047 0.5
vt 0.896484 0.5
vt 0.908203 0.5

# verts
v -0.3 0 0.2
v -0.3 0 0.1
v -0.3 0.1 0.2
v -0.3 0.1 0.1
v -0.3 0.2 0.1
v -0.3 0.2 -0.2
v -0.3 0.3 0.2
v -0.3 0.3 0.1
v -0.3 0.3 -0.2
v -0.3 0.6 0.1
v -0.3 0.6 0
v -0.3 0.6 -0.2
v -0.3 0.7 0
v -0.3 0.7 -0.1
v -0.3 1 0.1
v -0.3 1 -0.1
v -0.2 0.3 0.5
v -0.2 0.3 0.3
v -0.2 0.3 -0.2
v -0.2 0.3 -0.3
v -0.2 0.4 0.4
v -0.2 0.4 0.3
v -0.2 0.5 0.5
v -0.2 0.5 0.4
v -0.2 0.5 0.3
v -0.2 0.5 0.1
v -0.2 0.5 -0.2
v -0.2 0.5 -0.3
v -0.2 0.6 0.5
v -0.2 0.6 0.4
v -0.2 0.6 0.3
v -0.2 0.6 0.1
v -0.2 0.7 0.4
v -0.2 0.7 0.3
v -0.2 0.8 0.5
v -0.2 0.8 0.3
v 0 0 0
v 0 0 -0.1
v 0 0 -0.2
v 0 0.1 -0.1
v 0 0.1 -0.2
v 0 0.2 0
v 0 0.2 -0.1
v 0 0.5 0.3
v 0 0.5 0.1
v 0 0.6 0.3
v 0 0.6 0.1
v -0.2 0 0.2
v -0.2 0 0.1
v -0.2 0.1 0.2
v -0.2 0.1 0.1
v -0.2 0.2 0.1
v -0.2 0.3 0.2
v -0.2 0.3 0.1
v -0.1 0.3 0.5
v -0.1 0.3 0.3
v -0.1 0.4 0.4
v -0.1 0.4 0.3
v -0.1 0.5 0.5
v -0.1 0.5 0.4
v -0.1 0.5 0.3
v -0.1 0.5 0.1
v -0.1 0.6 0.5
v -0.1 0.6 0.4
v -0.1 0.6 0.3
v -0.1 0.6 0.1
v -0.1 0.7 0.4
v -0.1 0.7 0.3
v -0.1 0.8 0.5
v -0.1 0.8 0.3
v 0 0.3 -0.2
v 0 0.3 -0.3
v 0 0.5 -0.2
v 0 0.5 -0.3
v 0.1 0 0
v 0.1 0 -0.1
v 0.1 0 -0.2
v 0.1 0.1 -0.1
v 0.1 0.1 -0.2
v 0.1 0.2 0.1
v 0.1 0.2 0
v 0.1 0.2 -0.1
v 0.1 0.2 -0.2
v 0.1 0.3 0.1
v 0.1 0.3 -0.2
v 0.1 0.5 0.4
v 0.1 0.5 0.3
v 0.1 0.5 0.1
v 0.1 0.5 -0.2
v 0.1 0.6 0.4
v 0.1 0.6 0.3
v 0.1 0.6 0.1
v 0.1 0.6 0
v 0.1 0.6 -0.2
v 0.1 0.7 0
v 0.1 0.7 -0.1
v 0.1 1 0.1
v 0.1 1 -0.1
v -0.2 0.3 0.5
v -0.2 0.5 0.5
v -0.2 0.6 0.5
v -0.2 0.8 0.5
v -0.1 0.3 0.5
v -0.1 0.5 0.5
v -0.1 0.6 0.5
v -0.1 0.8 0.5
v -0.1 0.5 0.4
v -0.1 0.6 0.4
v 0 0.5 0.4
v 0 0.6 0.4
v 0.1 0.5 0.4
v 0.1 0.6 0.4
v -0.3 0 0.2
v -0.3 0.1 0.2
v -0.3 0.3 0.2
v -0.2 0 0.2
v -0.2 0.1 0.2
v -0.2 0.3 0.2
v -0.3 0.3 0.1
v -0.3 0.6 0.1
v -0.3 1 0.1
v -0.2 0.2 0.1
v -0.2 0.3 0.1
v -0.2 0.5 0.1
v -0.2 0.6 0.1
v -0.2 0.7 0.1
v -0.2 0.9 0.1
v -0.1 0.5 0.1
v -0.1 0.6 0.1
v -0.1 0.8 0.1
v -0.1 0.9 0.1
v 0 0.5 0.1
v 0 0.6 0.1
v 0 0.7 0.1
v 0 0.8 0.1
v 0 0.9 0.1
v 0.1 0.2 0.1
v 0.1 0.3 0.1
v 0.1 0.5 0.1
v 0.1 0.6 0.1
v 0.1 1 0.1
v 0 0 0
v 0 0.2 0
v 0.1 0 0
v 0.1 0.2 0
v -0.2 0.4 0.4
v -0.2 0.5 0.4
v -0.2 0.6 0.4
v -0.2 0.7 0.4
v -0.1 0.4 0.4
v -0.1 0.5 0.4
v -0.1 0.6 0.4
v -0.1 0.7 0.4
v -0.2 0.3 0.3
v -0.2 0.4 0.3
v -0.2 0.7 0.3
v -0.2 0.8 0.3
v -0.1 0.3 0.3
v -0.1 0.4 0.3
v -0.1 0.5 0.3
v -0.1 0.6 0.3
v -0.1 0.7 0.3
v -0.1 0.8 0.3
v 0 0.5 0.3
v 0 0.6 0.3
v -0.3 0 0.1
v -0.3 0.1 0.1
v -0.3 0.2 0.1
v -0.2 0 0.1
v -0.2 0.1 0.1
v -0.2 0.2 0.1
v -0.3 0.6 0
v -0.3 0.7 0
v -0.1 0.6 0
v 0.1 0.6 0
v 0.1 0.7 0
v -0.3 0.7 -0.1
v -0.3 1 -0.1
v 0 0.1 -0.1
v 0 0.2 -0.1
v 0.1 0.1 -0.1
v 0.1 0.2 -0.1
v 0.1 0.7 -0.1
v 0.1 1 -0.1
v -0.3 0.2 -0.2
v -0.3 0.3 -0.2
v -0.3 0.6 -0.2
v -0.2 0.3 -0.2
v -0.2 0.5 -0.2
v -0.1 0.5 -0.2
v -0.1 0.6 -0.2
v 0 0 -0.2
v 0 0.1 -0.2
v 0 0.2 -0.2
v 0 0.3 -0.2
v 0 0.5 -0.2
v 0.1 0 -0.2
v 0.1 0.1 -0.2
v 0.1 0.2 -0.2
v 0.1 0.3 -0.2
v 0.1 0.5 -0.2
v 0.1 0.6 -0.2
v -0.2 0.3 -0.3
v -0.2 0.5 -0.3
v 0 0.3 -0.3
v 0 0.5 -0.3
v -0.3 0 0.2
v -0.2 0 0.2
v -0.3 0 0.1
v -0.2 0 0.1
v 0 0 0
v 0.1 0 0
v 0 0 -0.1
v 0.1 0 -0.1
v 0 0 -0.2
v 0.1 0 -0.2
v -0.3 0.2 0.1
v -0.2 0.2 0.1
v 0.1 0.2 0.1
v -0.2 0.2 0
v 0 0.2 0
v 0.1 0.2 0
v 0 0.2 -0.1
v 0.1 0.2 -0.1
v -0.3 0.2 -0.2
v 0 0.2 -0.2
v 0.1 0.2 -0.2
v -0.2 0.3 0.5
v -0.1 0.3 0.5
v -0.2 0.3 0.3
v -0.1 0.3 0.3
v -0.2 0.3 -0.2
v 0 0.3 -0.2
v -0.2 0.3 -0.3
v 0 0.3 -0.3
v -0.2 0.5 0.4
v -0.1 0.5 0.4
v 0 0.5 0.4
v 0.1 0.5 0.4
v -0.2 0.5 0.3
v -0.1 0.5 0.3
v 0 0.5 0.3
v 0.1 0.5 0.3
v -0.2 0.5 0.1
v -0.1 0.5 0.1
v 0 0.5 0.1
v 0.1 0.5 0.1
v -0.2 0.7 0.4
v -0.1 0.7 0.4
v -0.2 0.7 0.3
v -0.1 0.7 0.3
v -0.3 0.7 0
v 0.1 0.7 0
v -0.3 0.7 -0.1
v 0.1 0.7 -0.1
v 0 0.1 -0.1
v 0.1 0.1 -0.1
v 0 0.1 -0.2
v 0.1 0.1 -0.2
v -0.3 0.3 0.2
v -0.2 0.3 0.2
v -0.3 0.3 0.1
v -0.2 0.3 0.1
v -0.2 0.4 0.4
v -0.1 0.4 0.4
v -0.2 0.4 0.3
v -0.1 0.4 0.3
v -0.2 0.5 -0.2
v -0.1 0.5 -0.2
v 0 0.5 -0.2
v -0.2 0.5 -0.3
v 0 0.5 -0.3
v -0.2 0.6 0.4
v -0.1 0.6 0.4
v 0 0.6 0.4
v 0.1 0.6 0.4
v -0.2 0.6 0.3
v -0.1 0.6 0.3
v 0 0.6 0.3
v 0.1 0.6 0.3
v -0.2 0.6 0.1
v -0.1 0.6 0.1
v 0 0.6 0.1
v 0.1 0.6 0.1
v -0.3 0.6 0
v -0.1 0.6 0
v 0.1 0.6 0
v -0.3 0.6 -0.2
v -0.1 0.6 -0.2
v 0.1 0.6 -0.2
v -0.2 0.8 0.5
v -0.1 0.8 0.5
v -0.2 0.8 0.3
v -0.1 0.8 0.3
v -0.3 1 0.1
v 0.1 1 0.1
v -0.3 1 -0.1
v 0.1 1 -0.1

# faces
f 3/4/1 2/4/1 1/4/1
f 4/4/1 2/4/1 3/4/1
f 5/6/1 4/6/1 3/6/1
f 7/6/1 5/6/1 3/6/1
f 8/4/1 6/4/1 5/4/1
f 8/6/1 5/6/1 7/6/1
f 9/4/1 6/4/1 8/4/1
f 10/5/1 9/5/1 8/5/1
f 11/5/1 9/5/1 10/5/1
f 12/5/1 9/5/1 11/5/1
f 13/6/1 11/6/1 10/6/1
f 15/6/1 13/6/1 10/6/1
f 15/6/1 14/6/1 13/6/1
f 16/6/1 14/6/1 15/6/1
f 21/4/1 18/4/1 17/4/1
f 22/4/1 18/4/1 21/4/1
f 23/4/1 21/4/1 17/4/1
f 24/4/1 21/4/1 23/4/1
f 27/4/1 20/4/1 19/4/1
f 28/4/1 20/4/1 27/4/1
f 29/1/1 24/1/1 23/1/1
f 30/6/1 25/6/1 24/6/1
f 30/1/1 24/1/1 29/1/1
f 31/5/1 26/5/1 25/5/1
f 31/6/1 25/6/1 30/6/1
f 32/5/1 26/5/1 31/5/1
f 33/4/1 30/4/1 29/4/1
f 35/4/1 33/4/1 29/4/1
f 35/4/1 34/4/1 33/4/1
f 36/4/1 34/4/1 35/4/1
f 40/6/1 38/6/1 37/6/1
f 40/4/1 39/4/1 38/4/1
f 41/4/1 39/4/1 40/4/1
f 42/6/1 40/6/1 37/6/1
f 43/6/1 40/6/1 42/6/1
f 46/5/1 45/5/1 44/5/1
f 47/5/1 45/5/1 46/5/1
f 48/4/2 49/4/2 50/4/2
f 50/4/2 49/4/2 51/4/2
f 50/6/2 51/6/2 52/6/2
f 50/6/2 52/6/2 53/6/2
f 53/6/2 52/6/2 54/6/2
f 55/4/2 56/4/2 57/4/2
f 57/4/2 56/4/2 58/4/2
f 55/4/2 57/4/2 59/4/2
f 59/4/2 57/4/2 60/4/2
f 59/1/2 60/1/2 63/1/2
f 63/1/2 60/1/2 64/1/2
f 61/5/2 62/5/2 65/5/2
f 65/5/2 62/5/2 66/5/2
f 63/4/2 64/4/2 67/4/2
f 63/4/2 67/4/2 69/4/2
f 67/4/2 68/4/2 69/4/2
f 69/4/2 68/4/2 70/4/2
f 71/4/2 72/4/2 73/4/2
f 73/4/2 72/4/2 74/4/2
f 75/6/2 76/6/2 78/6/2
f 76/4/2 77/4/2 78/4/2
f 78/4/2 77/4/2 79/4/2
f 75/6/2 78/6/2 81/6/2
f 81/6/2 78/6/2 82/6/2
f 80/6/2 81/6/2 84/6/2
f 82/6/2 83/6/2 84/6/2
f 81/6/2 82/6/2 84/6/2
f 84/6/2 83/6/2 85/6/2
f 84/5/2 85/5/2 88/5/2
f 88/5/2 85/5/2 89/5/2
f 86/6/2 87/6/2 90/6/2
f 87/5/2 88/5/2 91/5/2
f 90/6/2 87/6/2 91/6/2
f 88/4/2 89/4/2 92/4/2
f 91/5/2 88/5/2 92/5/2
f 92/4/2 89/4/2 93/4/2
f 93/4/2 89/4/2 94/4/2
f 92/6/2 93/6/2 95/6/2
f 92/6/2 95/6/2 97/6/2
f 95/6/2 96/6/2 97/6/2
f 97/6/2 96/6/2 98/6/2
f 103/4/3 100/4/3 99/4/3
f 104/1/3 101/1/3 100/1/3
f 104/4/3 100/4/3 103/4/3
f 105/4/3 102/4/3 101/4/3
f 105/1/3 101/1/3 104/1/3
f 106/4/3 102/4/3 105/4/3
f 109/1/3 108/1/3 107/1/3
f 110/1/3 108/1/3 109/1/3
f 111/6/3 110/6/3 109/6/3
f 112/6/3 110/6/3 111/6/3
f 116/4/3 114/4/3 113/4/3
f 117/6/3 115/6/3 114/6/3
f 117/4/3 114/4/3 116/4/3
f 118/6/3 115/6/3 117/6/3
f 123/5/3 120/5/3 119/5/3
f 124/5/3 120/5/3 123/5/3
f 125/6/3 121/6/3 120/6/3
f 125/5/3 120/5/3 124/5/3
f 126/6/3 121/6/3 125/6/3
f 127/6/3 121/6/3 126/6/3
f 128/5/3 124/5/3 123/5/3
f 129/6/3 126/6/3 125/6/3
f 130/1/3 127/1/3 126/1/3
f 131/6/3 121/6/3 127/6/3
f 131/1/3 127/1/3 130/1/3
f 132/5/3 129/5/3 128/5/3
f 132/5/3 128/5/3 123/5/3
f 133/6/3 126/6/3 129/6/3
f 133/5/3 129/5/3 132/5/3
f 134/1/3 130/1/3 126/1/3
f 134/6/3 126/6/3 133/6/3
f 135/2/3 131/2/3 130/2/3
f 135/1/3 130/1/3 134/1/3
f 136/6/3 121/6/3 131/6/3
f 136/2/3 131/2/3 135/2/3
f 137/6/3 123/6/3 122/6/3
f 138/5/3 132/5/3 123/5/3
f 138/6/3 123/6/3 137/6/3
f 139/5/3 132/5/3 138/5/3
f 140/6/3 136/6/3 135/6/3
f 140/6/3 135/6/3 134/6/3
f 140/6/3 134/6/3 133/6/3
f 141/6/3 121/6/3 136/6/3
f 141/6/3 136/6/3 140/6/3
f 144/6/3 143/6/3 142/6/3
f 145/6/3 143/6/3 144/6/3
f 146/4/4 147/4/4 150/4/4
f 150/4/4 147/4/4 151/4/4
f 148/4/4 149/4/4 152/4/4
f 152/4/4 149/4/4 153/4/4
f 154/4/4 155/4/4 158/4/4
f 158/4/4 155/4/4 159/4/4
f 156/4/4 157/4/4 162/4/4
f 162/4/4 157/4/4 163/4/4
f 160/1/4 161/1/4 164/1/4
f 164/1/4 161/1/4 165/1/4
f 166/4/4 167/4/4 169/4/4
f 167/6/4 168/6/4 170/6/4
f 169/4/4 167/4/4 170/4/4
f 170/6/4 168/6/4 171/6/4
f 172/6/4 173/6/4 174/6/4
f 174/6/4 173/6/4 175/6/4
f 175/6/4 173/6/4 176/6/4
f 179/6/4 180/6/4 181/6/4
f 181/6/4 180/6/4 182/6/4
f 177/6/4 178/6/4 183/6/4
f 183/6/4 178/6/4 184/6/4
f 185/4/4 186/4/4 188/4/4
f 186/5/4 187/5/4 188/5/4
f 188/5/4 187/5/4 189/5/4
f 189/5/4 187/5/4 190/5/4
f 190/5/4 187/5/4 191/5/4
f 185/4/4 188/4/4 194/4/4
f 194/4/4 188/4/4 195/4/4
f 190/4/4 191/4/4 196/4/4
f 192/4/4 193/4/4 197/4/4
f 197/4/4 193/4/4 198/4/4
f 194/6/4 195/6/4 199/6/4
f 195/5/4 196/5/4 200/5/4
f 199/6/4 195/6/4 200/6/4
f 196/4/4 191/4/4 201/4/4
f 200/5/4 196/5/4 201/5/4
f 201/4/4 191/4/4 202/4/4
f 203/4/4 204/4/4 205/4/4
f 205/4/4 204/4/4 206/4/4
f 209/4/5 208/4/5 207/4/5
f 210/4/5 208/4/5 209/4/5
f 213/6/5 212/6/5 211/6/5
f 214/6/5 212/6/5 213/6/5
f 215/4/5 214/4/5 213/4/5
f 216/4/5 214/4/5 215/4/5
f 220/4/5 218/4/5 217/4/5
f 220/6/5 219/6/5 218/6/5
f 221/6/5 219/6/5 220/6/5
f 222/6/5 219/6/5 221/6/5
f 223/4/5 221/4/5 220/4/5
f 225/4/5 220/4/5 217/4/5
f 225/4/5 223/4/5 220/4/5
f 226/6/5 224/6/5 223/6/5
f 226/4/5 223/4/5 225/4/5
f 227/6/5 224/6/5 226/6/5
f 230/4/5 229/4/5 228/4/5
f 231/4/5 229/4/5 230/4/5
f 234/4/5 233/4/5 232/4/5
f 235/4/5 233/4/5 234/4/5
f 240/6/5 237/6/5 236/6/5
f 241/1/5 238/1/5 237/1/5
f 241/6/5 237/6/5 240/6/5
f 242/6/5 239/6/5 238/6/5
f 242/1/5 238/1/5 241/1/5
f 243/6/5 239/6/5 242/6/5
f 244/5/5 241/5/5 240/5/5
f 245/5/5 241/5/5 244/5/5
f 246/5/5 243/5/5 242/5/5
f 247/5/5 243/5/5 246/5/5
f 250/4/5 249/4/5 248/4/5
f 251/4/5 249/4/5 250/4/5
f 254/6/5 253/6/5 252/6/5
f 255/6/5 253/6/5 254/6/5
f 256/4/6 257/4/6 258/4/6
f 258/4/6 257/4/6 259/4/6
f 260/6/6 261/6/6 262/6/6
f 262/6/6 261/6/6 263/6/6
f 264/4/6 265/4/6 266/4/6
f 266/4/6 265/4/6 267/4/6
f 268/4/6 269/4/6 271/4/6
f 269/4/6 270/4/6 271/4/6
f 271/4/6 270/4/6 272/4/6
f 273/6/6 274/6/6 277/6/6
f 274/1/6 275/1/6 278/1/6
f 277/6/6 274/6/6 278/6/6
f 275/6/6 276/6/6 279/6/6
f 278/1/6 275/1/6 279/1/6
f 279/6/6 276/6/6 280/6/6
f 277/5/6 278/5/6 281/5/6
f 281/5/6 278/5/6 282/5/6
f 279/5/6 280/5/6 283/5/6
f 283/5/6 280/5/6 284/5/6
f 285/5/6 286/5/6 288/5/6
f 286/4/6 287/4/6 289/4/6
f 288/5/6 286/5/6 289/5/6
f 289/4/6 287/4/6 290/4/6
f 291/4/6 292/4/6 293/4/6
f 293/4/6 292/4/6 294/4/6
f 295/6/6 296/6/6 297/6/6
f 297/6/6 296/6/6 298/6/6
