# MagicaVoxel @ Ephtracy

# group
o 

# material
mtllib dwarf_boss.mtl
usemtl palette

# normals
vn -1 0 0
vn 1 0 0
vn 0 0 1
vn 0 0 -1
vn 0 -1 0
vn 0 1 0

# texcoords
vt 0.0332031 0.5
vt 0.501953 0.5
vt 0.537109 0.5
vt 0.904297 0.5
vt 0.919922 0.5
vt 0.958984 0.5
vt 0.970703 0.5

# verts
v -0.5 0.1 0
v -0.5 0.1 -0.1
v -0.5 0.2 0.1
v -0.5 0.2 0
v -0.5 0.2 -0.1
v -0.5 0.2 -0.2
v -0.5 0.5 0.1
v -0.5 0.5 0
v -0.5 0.5 -0.1
v -0.5 0.5 -0.2
v -0.5 0.6 0
v -0.5 0.6 -0.1
v -0.5 0.7 0.2
v -0.5 0.7 0
v -0.5 0.7 -0.1
v -0.5 0.7 -0.3
v -0.5 0.8 0.2
v -0.5 0.8 0
v -0.5 0.8 -0.1
v -0.5 0.8 -0.3
v -0.4 0.3 0.2
v -0.4 0.3 0.1
v -0.4 0.4 0.2
v -0.4 0.4 0.1
v -0.4 0.4 -0.2
v -0.4 0.4 -0.3
v -0.4 0.5 0.1
v -0.4 0.5 0
v -0.4 0.5 -0.1
v -0.4 0.5 -0.2
v -0.4 0.6 0.1
v -0.4 0.6 0
v -0.4 0.6 -0.1
v -0.4 0.6 -0.2
v -0.4 0.7 0.2
v -0.4 0.7 0.1
v -0.4 0.7 0
v -0.4 0.7 -0.1
v -0.4 0.7 -0.2
v -0.4 0.7 -0.3
v -0.4 0.8 0.2
v -0.4 0.8 0
v -0.4 0.8 -0.1
v -0.4 0.8 -0.2
v -0.4 0.9 0.2
v -0.4 0.9 -0.2
v -0.3 0 0.2
v -0.3 0 0
v -0.3 0 -0.1
v -0.3 0 -0.3
v -0.3 0.1 0.2
v -0.3 0.1 0
v -0.3 0.1 -0.1
v -0.3 0.1 -0.3
v -0.3 0.2 0.1
v -0.3 0.2 0
v -0.3 0.2 -0.1
v -0.3 0.2 -0.2
v -0.3 0.3 0.2
v -0.3 0.3 0.1
v -0.3 0.4 -0.2
v -0.3 0.4 -0.3
v -0.3 0.8 -0.2
v -0.3 0.8 -0.3
v -0.3 0.9 0.1
v -0.3 0.9 -0.2
v -0.3 0.9 -0.3
v -0.3 1 0.1
v -0.3 1 -0.2
v -0.4 0.1 0
v -0.4 0.1 -0.1
v -0.4 0.2 0
v -0.4 0.2 -0.1
v -0.2 0.8 0.2
v -0.2 0.8 0.1
v -0.2 0.8 -0.2
v -0.2 0.8 -0.3
v -0.2 0.9 0.2
v -0.2 0.9 0.1
v -0.2 0.9 -0.2
v -0.2 0.9 -0.3
v -0.1 0 0.2
v -0.1 0 0
v -0.1 0 -0.1
v -0.1 0 -0.3
v -0.1 0.1 0.2
v -0.1 0.1 0
v -0.1 0.1 -0.1
v -0.1 0.1 -0.3
v -0.1 0.2 0
v -0.1 0.2 -0.1
v -0.1 0.2 -0.2
v -0.1 0.3 0.2
v -0.1 0.3 0
v -0.1 0.4 0.2
v -0.1 0.4 -0.2
v -0.1 0.5 0.2
v -0.1 0.5 -0.3
v -0.1 0.8 0.2
v -0.1 0.8 0.1
v -0.1 0.8 -0.2
v -0.1 0.8 -0.3
v -0.1 1 0.1
v -0.1 1 -0.2
v 0 0.2 0
v 0 0.2 -0.2
v 0 0.3 0.2
v 0 0.3 0
v 0 0.4 0.2
v 0 0.4 -0.2
v -0.5 0.7 0.2
v -0.5 0.8 0.2
v -0.4 0.3 0.2
v -0.4 0.4 0.2
v -0.4 0.7 0.2
v -0.4 0.8 0.2
v -0.4 0.9 0.2
v -0.3 0 0.2
v -0.3 0.1 0.2
v -0.3 0.3 0.2
v -0.2 0.4 0.2
v -0.2 0.5 0.2
v -0.2 0.8 0.2
v -0.2 0.9 0.2
v -0.1 0 0.2
v -0.1 0.1 0.2
v -0.1 0.3 0.2
v -0.1 0.4 0.2
v -0.1 0.5 0.2
v -0.1 0.8 0.2
v 0 0.3 0.2
v 0 0.4 0.2
v -0.5 0.2 0.1
v -0.5 0.5 0.1
v -0.4 0.2 0.1
v -0.4 0.3 0.1
v -0.4 0.4 0.1
v -0.4 0.5 0.1
v -0.3 0.2 0.1
v -0.3 0.3 0.1
v -0.3 0.9 0.1
v -0.3 1 0.1
v -0.2 0.8 0.1
v -0.2 0.9 0.1
v -0.1 0.8 0.1
v -0.1 1 0.1
v -0.5 0.1 0
v -0.5 0.2 0
v -0.5 0.5 0
v -0.5 0.6 0
v -0.4 0.1 0
v -0.4 0.2 0
v -0.4 0.5 0
v -0.4 0.6 0
v -0.1 0.2 0
v -0.1 0.3 0
v 0 0.2 0
v 0 0.3 0
v -0.5 0.7 -0.1
v -0.5 0.8 -0.1
v -0.4 0.7 -0.1
v -0.4 0.8 -0.1
v -0.3 0 -0.1
v -0.3 0.1 -0.1
v -0.3 0.2 -0.1
v -0.1 0 -0.1
v -0.1 0.1 -0.1
v -0.1 0.2 -0.1
v -0.5 0.7 0
v -0.5 0.8 0
v -0.4 0.7 0
v -0.4 0.8 0
v -0.3 0 0
v -0.3 0.1 0
v -0.3 0.2 0
v -0.1 0 0
v -0.1 0.1 0
v -0.1 0.2 0
v -0.5 0.1 -0.1
v -0.5 0.2 -0.1
v -0.5 0.5 -0.1
v -0.5 0.6 -0.1
v -0.4 0.1 -0.1
v -0.4 0.2 -0.1
v -0.4 0.5 -0.1
v -0.4 0.6 -0.1
v -0.5 0.2 -0.2
v -0.5 0.5 -0.2
v -0.4 0.2 -0.2
v -0.4 0.4 -0.2
v -0.4 0.5 -0.2
v -0.4 0.8 -0.2
v -0.4 0.9 -0.2
v -0.3 0.2 -0.2
v -0.3 0.4 -0.2
v -0.3 0.8 -0.2
v -0.3 0.9 -0.2
v -0.3 1 -0.2
v -0.2 0.8 -0.2
v -0.2 0.9 -0.2
v -0.1 0.2 -0.2
v -0.1 0.4 -0.2
v -0.1 0.8 -0.2
v -0.1 1 -0.2
v 0 0.2 -0.2
v 0 0.4 -0.2
v -0.5 0.7 -0.3
v -0.5 0.8 -0.3
v -0.4 0.4 -0.3
v -0.4 0.7 -0.3
v -0.4 0.8 -0.3
v -0.3 0 -0.3
v -0.3 0.1 -0.3
v -0.3 0.4 -0.3
v -0.3 0.8 -0.3
v -0.3 0.9 -0.3
v -0.2 0.4 -0.3
v -0.2 0.5 -0.3
v -0.2 0.8 -0.3
v -0.2 0.9 -0.3
v -0.1 0 -0.3
v -0.1 0.1 -0.3
v -0.1 0.5 -0.3
v -0.1 0.8 -0.3
v -0.3 0 0.2
v -0.1 0 0.2
v -0.3 0 0
v -0.1 0 0
v -0.3 0 -0.1
v -0.1 0 -0.1
v -0.3 0 -0.3
v -0.1 0 -0.3
v -0.5 0.1 0
v -0.4 0.1 0
v -0.5 0.1 -0.1
v -0.4 0.1 -0.1
v -0.5 0.2 0.1
v -0.4 0.2 0.1
v -0.3 0.2 0.1
v -0.5 0.2 0
v -0.4 0.2 0
v -0.3 0.2 0
v -0.1 0.2 0
v 0 0.2 0
v -0.5 0.2 -0.1
v -0.4 0.2 -0.1
v -0.3 0.2 -0.1
v -0.1 0.2 -0.1
v -0.5 0.2 -0.2
v -0.4 0.2 -0.2
v -0.3 0.2 -0.2
v -0.1 0.2 -0.2
v 0 0.2 -0.2
v -0.4 0.3 0.2
v -0.3 0.3 0.2
v -0.1 0.3 0.2
v 0 0.3 0.2
v -0.4 0.3 0.1
v -0.3 0.3 0.1
v -0.1 0.3 0
v 0 0.3 0
v -0.4 0.4 -0.2
v -0.3 0.4 -0.2
v -0.4 0.4 -0.3
v -0.3 0.4 -0.3
v -0.5 0.7 0.2
v -0.4 0.7 0.2
v -0.4 0.7 0.1
v -0.5 0.7 0
v -0.4 0.7 0
v -0.5 0.7 -0.1
v -0.4 0.7 -0.1
v -0.4 0.7 -0.2
v -0.5 0.7 -0.3
v -0.4 0.7 -0.3
v -0.1 0.4 0.2
v 0 0.4 0.2
v -0.1 0.4 -0.2
v 0 0.4 -0.2
v -0.5 0.5 0.1
v -0.4 0.5 0.1
v -0.5 0.5 0
v -0.4 0.5 0
v -0.5 0.5 -0.1
v -0.4 0.5 -0.1
v -0.5 0.5 -0.2
v -0.4 0.5 -0.2
v -0.5 0.6 0
v -0.4 0.6 0
v -0.5 0.6 -0.1
v -0.4 0.6 -0.1
v -0.5 0.8 0.2
v -0.4 0.8 0.2
v -0.2 0.8 0.2
v -0.1 0.8 0.2
v -0.2 0.8 0.1
v -0.1 0.8 0.1
v -0.5 0.8 0
v -0.4 0.8 0
v -0.5 0.8 -0.1
v -0.4 0.8 -0.1
v -0.4 0.8 -0.2
v -0.3 0.8 -0.2
v -0.2 0.8 -0.2
v -0.1 0.8 -0.2
v -0.5 0.8 -0.3
v -0.4 0.8 -0.3
v -0.3 0.8 -0.3
v -0.2 0.8 -0.3
v -0.1 0.8 -0.3
v -0.4 0.9 0.2
v -0.2 0.9 0.2
v -0.3 0.9 0.1
v -0.2 0.9 0.1
v -0.4 0.9 -0.2
v -0.3 0.9 -0.2
v -0.2 0.9 -0.2
v -0.3 0.9 -0.3
v -0.2 0.9 -0.3
v -0.3 1 0.1
v -0.1 1 0.1
v -0.3 1 -0.2
v -0.1 1 -0.2

# faces
f 4/6/1 2/6/1 1/6/1
f 5/6/1 2/6/1 4/6/1
f 7/6/1 4/6/1 3/6/1
f 7/6/1 6/6/1 5/6/1
f 7/6/1 5/6/1 4/6/1
f 8/6/1 6/6/1 7/6/1
f 9/6/1 6/6/1 8/6/1
f 10/6/1 6/6/1 9/6/1
f 11/6/1 9/6/1 8/6/1
f 12/6/1 9/6/1 11/6/1
f 17/6/1 14/6/1 13/6/1
f 18/6/1 14/6/1 17/6/1
f 19/6/1 16/6/1 15/6/1
f 20/6/1 16/6/1 19/6/1
f 23/4/1 22/4/1 21/4/1
f 24/4/1 22/4/1 23/4/1
f 27/1/1 24/1/1 23/1/1
f 30/1/1 26/1/1 25/1/1
f 31/1/1 28/1/1 27/1/1
f 31/1/1 27/1/1 23/1/1
f 32/1/1 28/1/1 31/1/1
f 33/1/1 30/1/1 29/1/1
f 34/1/1 26/1/1 30/1/1
f 34/1/1 30/1/1 33/1/1
f 35/1/1 31/1/1 23/1/1
f 36/5/1 32/5/1 31/5/1
f 36/1/1 31/1/1 35/1/1
f 37/1/1 33/1/1 32/1/1
f 37/5/1 32/5/1 36/5/1
f 38/5/1 34/5/1 33/5/1
f 38/1/1 33/1/1 37/1/1
f 39/1/1 26/1/1 34/1/1
f 39/5/1 34/5/1 38/5/1
f 40/1/1 26/1/1 39/1/1
f 42/1/1 38/1/1 37/1/1
f 43/1/1 38/1/1 42/1/1
f 45/1/1 42/1/1 41/1/1
f 45/1/1 44/1/1 43/1/1
f 45/1/1 43/1/1 42/1/1
f 46/1/1 44/1/1 45/1/1
f 51/3/1 48/3/1 47/3/1
f 52/3/1 48/3/1 51/3/1
f 53/3/1 50/3/1 49/3/1
f 54/3/1 50/3/1 53/3/1
f 55/4/1 52/4/1 51/4/1
f 56/4/1 52/4/1 55/4/1
f 57/4/1 54/4/1 53/4/1
f 58/4/1 54/4/1 57/4/1
f 59/4/1 55/4/1 51/4/1
f 60/4/1 55/4/1 59/4/1
f 61/4/1 54/4/1 58/4/1
f 62/4/1 54/4/1 61/4/1
f 66/1/1 64/1/1 63/1/1
f 67/1/1 64/1/1 66/1/1
f 68/1/1 66/1/1 65/1/1
f 69/1/1 66/1/1 68/1/1
f 70/6/2 71/6/2 72/6/2
f 72/6/2 71/6/2 73/6/2
f 74/1/2 75/1/2 78/1/2
f 78/1/2 75/1/2 79/1/2
f 76/1/2 77/1/2 80/1/2
f 80/1/2 77/1/2 81/1/2
f 82/3/2 83/3/2 86/3/2
f 86/3/2 83/3/2 87/3/2
f 84/3/2 85/3/2 88/3/2
f 88/3/2 85/3/2 89/3/2
f 86/4/2 87/4/2 90/4/2
f 88/4/2 89/4/2 91/4/2
f 91/4/2 89/4/2 92/4/2
f 86/4/2 90/4/2 93/4/2
f 93/4/2 90/4/2 94/4/2
f 92/4/2 89/4/2 96/4/2
f 95/4/2 96/4/2 97/4/2
f 96/4/2 89/4/2 98/4/2
f 97/4/2 96/4/2 98/4/2
f 97/1/2 98/1/2 99/1/2
f 99/1/2 98/1/2 100/1/2
f 100/1/2 98/1/2 101/1/2
f 101/1/2 98/1/2 102/1/2
f 100/1/2 101/1/2 103/1/2
f 103/1/2 101/1/2 104/1/2
f 105/4/2 106/4/2 108/4/2
f 107/4/2 108/4/2 109/4/2
f 108/4/2 106/4/2 110/4/2
f 109/4/2 108/4/2 110/4/2
f 115/6/3 112/6/3 111/6/3
f 116/6/3 112/6/3 115/6/3
f 120/4/3 114/4/3 113/4/3
f 121/1/3 115/1/3 114/1/3
f 121/4/3 120/4/3 119/4/3
f 121/4/3 114/4/3 120/4/3
f 121/1/3 116/1/3 115/1/3
f 121/1/3 117/1/3 116/1/3
f 122/1/3 117/1/3 121/1/3
f 123/1/3 117/1/3 122/1/3
f 124/1/3 117/1/3 123/1/3
f 125/3/3 119/3/3 118/3/3
f 126/4/3 121/4/3 119/4/3
f 126/3/3 119/3/3 125/3/3
f 126/4/3 122/4/3 121/4/3
f 127/4/3 122/4/3 126/4/3
f 128/4/3 122/4/3 127/4/3
f 129/1/3 123/1/3 122/1/3
f 129/4/3 122/4/3 128/4/3
f 130/1/3 123/1/3 129/1/3
f 131/4/3 128/4/3 127/4/3
f 132/4/3 128/4/3 131/4/3
f 135/6/3 134/6/3 133/6/3
f 136/6/3 134/6/3 135/6/3
f 137/6/3 134/6/3 136/6/3
f 138/6/3 134/6/3 137/6/3
f 139/4/3 136/4/3 135/4/3
f 140/4/3 136/4/3 139/4/3
f 144/1/3 142/1/3 141/1/3
f 145/1/3 144/1/3 143/1/3
f 146/1/3 142/1/3 144/1/3
f 146/1/3 144/1/3 145/1/3
f 151/6/3 148/6/3 147/6/3
f 152/6/3 148/6/3 151/6/3
f 153/6/3 150/6/3 149/6/3
f 154/6/3 150/6/3 153/6/3
f 157/4/3 156/4/3 155/4/3
f 158/4/3 156/4/3 157/4/3
f 161/6/3 160/6/3 159/6/3
f 162/6/3 160/6/3 161/6/3
f 166/3/3 164/3/3 163/3/3
f 167/4/3 165/4/3 164/4/3
f 167/3/3 164/3/3 166/3/3
f 168/4/3 165/4/3 167/4/3
f 169/6/4 170/6/4 171/6/4
f 171/6/4 170/6/4 172/6/4
f 173/3/4 174/3/4 176/3/4
f 174/4/4 175/4/4 177/4/4
f 176/3/4 174/3/4 177/3/4
f 177/4/4 175/4/4 178/4/4
f 179/6/4 180/6/4 183/6/4
f 183/6/4 180/6/4 184/6/4
f 181/6/4 182/6/4 185/6/4
f 185/6/4 182/6/4 186/6/4
f 187/6/4 188/6/4 189/6/4
f 189/6/4 188/6/4 190/6/4
f 190/6/4 188/6/4 191/6/4
f 189/4/4 190/4/4 194/4/4
f 194/4/4 190/4/4 195/4/4
f 192/1/4 193/1/4 196/1/4
f 196/1/4 193/1/4 197/1/4
f 197/1/4 198/1/4 200/1/4
f 199/1/4 200/1/4 203/1/4
f 200/1/4 198/1/4 204/1/4
f 203/1/4 200/1/4 204/1/4
f 201/4/4 202/4/4 205/4/4
f 205/4/4 202/4/4 206/4/4
f 207/6/4 208/6/4 210/6/4
f 210/6/4 208/6/4 211/6/4
f 209/1/4 210/1/4 214/1/4
f 210/1/4 211/1/4 214/1/4
f 214/1/4 211/1/4 215/1/4
f 214/1/4 215/1/4 217/1/4
f 215/1/4 216/1/4 217/1/4
f 213/4/4 214/4/4 217/4/4
f 217/1/4 216/1/4 218/1/4
f 218/1/4 216/1/4 219/1/4
f 219/1/4 216/1/4 220/1/4
f 212/3/4 213/3/4 221/3/4
f 213/4/4 217/4/4 222/4/4
f 221/3/4 213/3/4 222/3/4
f 217/4/4 218/4/4 222/4/4
f 218/1/4 219/1/4 223/1/4
f 222/4/4 218/4/4 223/4/4
f 223/1/4 219/1/4 224/1/4
f 227/3/5 226/3/5 225/3/5
f 228/3/5 226/3/5 227/3/5
f 231/3/5 230/3/5 229/3/5
f 232/3/5 230/3/5 231/3/5
f 235/6/5 234/6/5 233/6/5
f 236/6/5 234/6/5 235/6/5
f 240/6/5 238/6/5 237/6/5
f 241/4/5 239/4/5 238/4/5
f 241/6/5 238/6/5 240/6/5
f 242/4/5 239/4/5 241/4/5
f 246/4/5 244/4/5 243/4/5
f 246/4/5 243/4/5 242/4/5
f 246/4/5 242/4/5 241/4/5
f 247/4/5 244/4/5 246/4/5
f 248/4/5 244/4/5 247/4/5
f 249/6/5 246/6/5 245/6/5
f 250/4/5 247/4/5 246/4/5
f 250/6/5 246/6/5 249/6/5
f 251/4/5 247/4/5 250/4/5
f 252/4/5 244/4/5 248/4/5
f 253/4/5 244/4/5 252/4/5
f 258/4/5 255/4/5 254/4/5
f 259/4/5 255/4/5 258/4/5
f 260/4/5 257/4/5 256/4/5
f 261/4/5 257/4/5 260/4/5
f 264/1/5 263/1/5 262/1/5
f 265/1/5 263/1/5 264/1/5
f 268/6/5 267/6/5 266/6/5
f 269/6/5 268/6/5 266/6/5
f 270/6/5 268/6/5 269/6/5
f 273/6/5 272/6/5 271/6/5
f 274/6/5 273/6/5 271/6/5
f 275/6/5 273/6/5 274/6/5
f 276/4/6 277/4/6 278/4/6
f 278/4/6 277/4/6 279/4/6
f 280/6/6 281/6/6 282/6/6
f 282/6/6 281/6/6 283/6/6
f 284/6/6 285/6/6 286/6/6
f 286/6/6 285/6/6 287/6/6
f 288/6/6 289/6/6 290/6/6
f 290/6/6 289/6/6 291/6/6
f 294/1/6 295/1/6 296/1/6
f 296/1/6 295/1/6 297/1/6
f 292/6/6 293/6/6 298/6/6
f 298/6/6 293/6/6 299/6/6
f 300/6/6 301/6/6 302/6/6
f 300/6/6 302/6/6 306/6/6
f 302/1/6 303/1/6 307/1/6
f 306/6/6 302/6/6 307/6/6
f 307/1/6 303/1/6 308/1/6
f 304/1/6 305/1/6 309/1/6
f 309/1/6 305/1/6 310/1/6
f 311/1/6 312/1/6 313/1/6
f 313/1/6 312/1/6 314/1/6
f 311/1/6 313/1/6 315/1/6
f 315/1/6 313/1/6 316/1/6
f 316/1/6 317/1/6 318/1/6
f 318/1/6 317/1/6 319/1/6
f 320/1/6 321/1/6 322/1/6
f 322/1/6 321/1/6 323/1/6
