# MagicaVoxel @ Ephtracy

# group
o 

# material
mtllib goblin.mtl
usemtl palette

# normals
vn -1 0 0
vn 1 0 0
vn 0 0 1
vn 0 0 -1
vn 0 -1 0
vn 0 1 0

# texcoords
vt 0.373047 0.5
vt 0.533203 0.5
vt 0.701172 0.5
vt 0.720703 0.5
vt 0.841797 0.5
vt 0.958984 0.5
vt 0.962891 0.5
vt 0.994141 0.5

# verts
v -0.3 0.4 -0.1
v -0.3 0.4 -0.2
v -0.3 0.5 -0.1
v -0.3 0.5 -0.2
v -0.3 0.7 -0.1
v -0.3 0.7 -0.2
v -0.2 0.2 0.3
v -0.2 0.2 -0.1
v -0.2 0.3 0.3
v -0.2 0.3 0.2
v -0.2 0.3 0
v -0.2 0.3 -0.1
v -0.2 0.4 0.3
v -0.2 0.4 0.2
v -0.2 0.4 0
v -0.2 0.4 -0.1
v -0.2 0.5 -0.1
v -0.2 0.6 0.3
v -0.2 0.6 0.2
v -0.2 0.6 0
v -0.2 0.6 -0.1
v -0.2 0.7 0.2
v -0.2 0.7 0.1
v -0.2 0.7 0
v -0.2 0.8 0.2
v -0.2 0.8 0.1
v -0.2 0.8 0
v -0.1 0 0.3
v -0.1 0 0.2
v -0.1 0 0
v -0.1 0 -0.1
v -0.1 0.1 0.3
v -0.1 0.1 0.2
v -0.1 0.1 0
v -0.1 0.1 -0.1
v -0.1 0.2 0.3
v -0.1 0.2 0.2
v -0.1 0.2 0
v -0.1 0.2 -0.1
v -0.1 0.3 0.4
v -0.1 0.3 0.3
v -0.1 0.4 0.3
v -0.1 0.5 0.4
v -0.1 0.5 0.3
v -0.1 0.7 0.3
v -0.1 0.7 0.2
v -0.1 0.7 0
v -0.1 0.7 -0.1
v -0.1 0.8 0.3
v -0.1 0.8 0.2
v -0.1 0.8 0
v -0.1 0.8 -0.1
v -0.2 0.5 -0.1
v -0.2 0.5 -0.2
v -0.2 0.6 -0.1
v -0.2 0.7 -0.1
v -0.2 0.7 -0.2
v 0 0 0.3
v 0 0 0.2
v 0 0 0
v 0 0 -0.1
v 0 0.1 0.3
v 0 0.1 0.2
v 0 0.1 0
v 0 0.1 -0.1
v 0 0.2 0.3
v 0 0.2 0.2
v 0 0.2 0
v 0 0.2 -0.1
v 0 0.3 0.4
v 0 0.3 0.3
v 0 0.4 0.3
v 0 0.4 -0.1
v 0 0.4 -0.2
v 0 0.5 0.4
v 0 0.5 0.3
v 0 0.5 -0.1
v 0 0.5 -0.2
v 0 0.6 0.2
v 0 0.6 0
v 0 0.7 0.2
v 0 0.7 0
v 0.1 0.2 0.3
v 0.1 0.2 -0.1
v 0.1 0.3 0.3
v 0.1 0.3 -0.1
v 0.1 0.4 0.3
v 0.1 0.4 0.2
v 0.1 0.4 0
v 0.1 0.4 -0.1
v 0.1 0.5 0.3
v 0.1 0.5 0.2
v 0.1 0.5 0
v 0.1 0.5 -0.1
v 0.1 0.6 0.3
v 0.1 0.6 0.2
v 0.1 0.6 0
v 0.1 0.6 -0.1
v 0.1 0.7 0.3
v 0.1 0.7 -0.1
v 0.1 0.8 0.3
v 0.1 0.8 -0.1
v -0.1 0.3 0.4
v -0.1 0.5 0.4
v 0 0.3 0.4
v 0 0.5 0.4
v -0.2 0.2 0.3
v -0.2 0.3 0.3
v -0.2 0.4 0.3
v -0.2 0.6 0.3
v -0.1 0 0.3
v -0.1 0.1 0.3
v -0.1 0.2 0.3
v -0.1 0.3 0.3
v -0.1 0.4 0.3
v -0.1 0.5 0.3
v -0.1 0.7 0.3
v -0.1 0.8 0.3
v 0 0 0.3
v 0 0.1 0.3
v 0 0.2 0.3
v 0 0.3 0.3
v 0 0.4 0.3
v 0 0.5 0.3
v 0 0.6 0.3
v 0.1 0.2 0.3
v 0.1 0.3 0.3
v 0.1 0.4 0.3
v 0.1 0.5 0.3
v 0.1 0.6 0.3
v 0.1 0.7 0.3
v 0.1 0.8 0.3
v -0.2 0.6 0.2
v -0.2 0.7 0.2
v -0.2 0.8 0.2
v -0.1 0.6 0.2
v -0.1 0.7 0.2
v -0.1 0.8 0.2
v 0 0.6 0.2
v 0 0.7 0.2
v -0.1 0 0
v -0.1 0.1 0
v -0.1 0.2 0
v 0 0 0
v 0 0.1 0
v 0 0.2 0
v -0.3 0.4 -0.1
v -0.3 0.5 -0.1
v -0.3 0.7 -0.1
v -0.2 0.4 -0.1
v -0.2 0.5 -0.1
v -0.2 0.6 -0.1
v -0.2 0.7 -0.1
v -0.1 0 0.2
v -0.1 0.1 0.2
v -0.1 0.2 0.2
v 0 0 0.2
v 0 0.1 0.2
v 0 0.2 0.2
v -0.2 0.6 0
v -0.2 0.7 0
v -0.2 0.8 0
v -0.1 0.6 0
v -0.1 0.7 0
v -0.1 0.8 0
v 0 0.6 0
v 0 0.7 0
v -0.2 0.2 -0.1
v -0.2 0.3 -0.1
v -0.2 0.4 -0.1
v -0.2 0.5 -0.1
v -0.2 0.6 -0.1
v -0.1 0 -0.1
v -0.1 0.1 -0.1
v -0.1 0.2 -0.1
v -0.1 0.7 -0.1
v -0.1 0.8 -0.1
v 0 0 -0.1
v 0 0.1 -0.1
v 0 0.2 -0.1
v 0 0.4 -0.1
v 0 0.5 -0.1
v 0 0.6 -0.1
v 0.1 0.2 -0.1
v 0.1 0.3 -0.1
v 0.1 0.4 -0.1
v 0.1 0.5 -0.1
v 0.1 0.6 -0.1
v 0.1 0.7 -0.1
v 0.1 0.8 -0.1
v -0.3 0.4 -0.2
v -0.3 0.5 -0.2
v -0.3 0.7 -0.2
v -0.2 0.5 -0.2
v -0.2 0.7 -0.2
v 0 0.4 -0.2
v 0 0.5 -0.2
v -0.1 0 0.3
v 0 0 0.3
v -0.1 0 0.2
v 0 0 0.2
v -0.1 0 0
v 0 0 0
v -0.1 0 -0.1
v 0 0 -0.1
v -0.2 0.2 0.3
v -0.1 0.2 0.3
v 0 0.2 0.3
v 0.1 0.2 0.3
v -0.1 0.2 0.2
v 0 0.2 0.2
v -0.1 0.2 0
v 0 0.2 0
v -0.2 0.2 -0.1
v -0.1 0.2 -0.1
v 0 0.2 -0.1
v 0.1 0.2 -0.1
v -0.1 0.3 0.4
v 0 0.3 0.4
v -0.1 0.3 0.3
v 0 0.3 0.3
v -0.3 0.4 -0.1
v -0.2 0.4 -0.1
v 0 0.4 -0.1
v -0.3 0.4 -0.2
v 0 0.4 -0.2
v -0.1 0.7 0.3
v 0.1 0.7 0.3
v -0.1 0.7 0.2
v 0 0.7 0.2
v -0.1 0.7 0
v 0 0.7 0
v -0.1 0.7 -0.1
v 0.1 0.7 -0.1
v -0.1 0.5 0.4
v 0 0.5 0.4
v -0.1 0.5 0.3
v 0 0.5 0.3
v -0.2 0.5 -0.1
v 0 0.5 -0.1
v -0.2 0.5 -0.2
v 0 0.5 -0.2
v -0.2 0.6 0.3
v 0 0.6 0.3
v 0.1 0.6 0.3
v -0.2 0.6 0.2
v -0.1 0.6 0.2
v 0 0.6 0.2
v 0.1 0.6 0.2
v -0.2 0.6 0
v -0.1 0.6 0
v 0 0.6 0
v 0.1 0.6 0
v -0.2 0.6 -0.1
v 0 0.6 -0.1
v 0.1 0.6 -0.1
v -0.3 0.7 -0.1
v -0.2 0.7 -0.1
v -0.3 0.7 -0.2
v -0.2 0.7 -0.2
v -0.1 0.8 0.3
v 0.1 0.8 0.3
v -0.2 0.8 0.2
v -0.1 0.8 0.2
v -0.2 0.8 0.1
v -0.1 0.8 0.1
v -0.2 0.8 0
v -0.1 0.8 0
v -0.1 0.8 -0.1
v 0.1 0.8 -0.1

# faces
f 3/4/1 2/4/1 1/4/1
f 4/4/1 2/4/1 3/4/1
f 5/6/1 4/6/1 3/6/1
f 6/6/1 4/6/1 5/6/1
f 9/2/1 8/2/1 7/2/1
f 10/2/1 8/2/1 9/2/1
f 11/2/1 8/2/1 10/2/1
f 12/2/1 8/2/1 11/2/1
f 13/3/1 10/3/1 9/3/1
f 14/1/1 11/1/1 10/1/1
f 14/3/1 10/3/1 13/3/1
f 15/3/1 12/3/1 11/3/1
f 15/1/1 11/1/1 14/1/1
f 16/3/1 12/3/1 15/3/1
f 17/2/1 16/2/1 15/2/1
f 18/2/1 14/2/1 13/2/1
f 19/3/1 15/3/1 14/3/1
f 19/2/1 14/2/1 18/2/1
f 20/2/1 17/2/1 15/2/1
f 20/3/1 15/3/1 19/3/1
f 21/2/1 17/2/1 20/2/1
f 22/5/1 20/5/1 19/5/1
f 23/5/1 20/5/1 22/5/1
f 24/5/1 20/5/1 23/5/1
f 25/8/1 23/8/1 22/8/1
f 26/7/1 24/7/1 23/7/1
f 26/8/1 23/8/1 25/8/1
f 27/7/1 24/7/1 26/7/1
f 32/4/1 29/4/1 28/4/1
f 33/4/1 29/4/1 32/4/1
f 34/4/1 31/4/1 30/4/1
f 35/4/1 31/4/1 34/4/1
f 36/2/1 33/2/1 32/2/1
f 37/2/1 33/2/1 36/2/1
f 38/2/1 35/2/1 34/2/1
f 39/2/1 35/2/1 38/2/1
f 42/4/1 41/4/1 40/4/1
f 43/4/1 42/4/1 40/4/1
f 44/4/1 42/4/1 43/4/1
f 49/4/1 46/4/1 45/4/1
f 50/4/1 46/4/1 49/4/1
f 51/4/1 48/4/1 47/4/1
f 52/4/1 48/4/1 51/4/1
f 53/6/2 54/6/2 55/6/2
f 55/6/2 54/6/2 56/6/2
f 56/6/2 54/6/2 57/6/2
f 58/4/2 59/4/2 62/4/2
f 62/4/2 59/4/2 63/4/2
f 60/4/2 61/4/2 64/4/2
f 64/4/2 61/4/2 65/4/2
f 62/2/2 63/2/2 66/2/2
f 66/2/2 63/2/2 67/2/2
f 64/2/2 65/2/2 68/2/2
f 68/2/2 65/2/2 69/2/2
f 70/4/2 71/4/2 72/4/2
f 70/4/2 72/4/2 75/4/2
f 75/4/2 72/4/2 76/4/2
f 73/4/2 74/4/2 77/4/2
f 77/4/2 74/4/2 78/4/2
f 79/4/2 80/4/2 81/4/2
f 81/4/2 80/4/2 82/4/2
f 83/2/2 84/2/2 85/2/2
f 85/2/2 84/2/2 86/2/2
f 85/3/2 86/3/2 87/3/2
f 87/3/2 86/3/2 88/3/2
f 88/3/2 86/3/2 89/3/2
f 89/3/2 86/3/2 90/3/2
f 87/2/2 88/2/2 91/2/2
f 88/3/2 89/3/2 92/3/2
f 91/2/2 88/2/2 92/2/2
f 89/2/2 90/2/2 93/2/2
f 92/3/2 89/3/2 93/3/2
f 93/2/2 90/2/2 94/2/2
f 91/3/2 92/3/2 95/3/2
f 92/2/2 93/2/2 96/2/2
f 95/3/2 92/3/2 96/3/2
f 93/3/2 94/3/2 97/3/2
f 96/2/2 93/2/2 97/2/2
f 97/3/2 94/3/2 98/3/2
f 99/4/2 100/4/2 101/4/2
f 101/4/2 100/4/2 102/4/2
f 105/4/3 104/4/3 103/4/3
f 106/4/3 104/4/3 105/4/3
f 113/2/3 108/2/3 107/2/3
f 114/3/3 109/3/3 108/3/3
f 114/2/3 108/2/3 113/2/3
f 115/2/3 110/2/3 109/2/3
f 115/3/3 109/3/3 114/3/3
f 116/2/3 110/2/3 115/2/3
f 119/4/3 112/4/3 111/4/3
f 120/2/3 113/2/3 112/2/3
f 120/4/3 112/4/3 119/4/3
f 120/2/3 114/2/3 113/2/3
f 121/2/3 114/2/3 120/2/3
f 122/2/3 114/2/3 121/2/3
f 124/2/3 110/2/3 116/2/3
f 125/2/3 110/2/3 124/2/3
f 126/2/3 122/2/3 121/2/3
f 127/3/3 123/3/3 122/3/3
f 127/2/3 122/2/3 126/2/3
f 128/2/3 124/2/3 123/2/3
f 128/3/3 123/3/3 127/3/3
f 129/3/3 125/3/3 124/3/3
f 129/2/3 124/2/3 128/2/3
f 130/3/3 125/3/3 129/3/3
f 131/4/3 118/4/3 117/4/3
f 132/4/3 118/4/3 131/4/3
f 136/5/3 134/5/3 133/5/3
f 137/8/3 135/8/3 134/8/3
f 137/5/3 134/5/3 136/5/3
f 138/8/3 135/8/3 137/8/3
f 139/4/3 137/4/3 136/4/3
f 140/4/3 137/4/3 139/4/3
f 144/4/3 142/4/3 141/4/3
f 145/2/3 143/2/3 142/2/3
f 145/4/3 142/4/3 144/4/3
f 146/2/3 143/2/3 145/2/3
f 150/4/3 148/4/3 147/4/3
f 151/6/3 149/6/3 148/6/3
f 151/4/3 148/4/3 150/4/3
f 152/6/3 149/6/3 151/6/3
f 153/6/3 149/6/3 152/6/3
f 154/4/4 155/4/4 157/4/4
f 155/2/4 156/2/4 158/2/4
f 157/4/4 155/4/4 158/4/4
f 158/2/4 156/2/4 159/2/4
f 160/5/4 161/5/4 163/5/4
f 161/7/4 162/7/4 164/7/4
f 163/5/4 161/5/4 164/5/4
f 164/7/4 162/7/4 165/7/4
f 163/4/4 164/4/4 166/4/4
f 166/4/4 164/4/4 167/4/4
f 168/2/4 169/2/4 175/2/4
f 173/4/4 174/4/4 178/4/4
f 174/2/4 175/2/4 179/2/4
f 178/4/4 174/4/4 179/4/4
f 175/2/4 169/2/4 180/2/4
f 179/2/4 175/2/4 180/2/4
f 169/3/4 170/3/4 181/3/4
f 171/2/4 172/2/4 182/2/4
f 182/2/4 172/2/4 183/2/4
f 180/2/4 169/2/4 184/2/4
f 169/3/4 181/3/4 185/3/4
f 184/2/4 169/2/4 185/2/4
f 181/2/4 182/2/4 186/2/4
f 185/3/4 181/3/4 186/3/4
f 182/3/4 183/3/4 187/3/4
f 186/2/4 182/2/4 187/2/4
f 187/3/4 183/3/4 188/3/4
f 176/4/4 177/4/4 189/4/4
f 189/4/4 177/4/4 190/4/4
f 191/4/4 192/4/4 194/4/4
f 192/6/4 193/6/4 194/6/4
f 194/6/4 193/6/4 195/6/4
f 191/4/4 194/4/4 196/4/4
f 196/4/4 194/4/4 197/4/4
f 200/4/5 199/4/5 198/4/5
f 201/4/5 199/4/5 200/4/5
f 204/4/5 203/4/5 202/4/5
f 205/4/5 203/4/5 204/4/5
f 210/2/5 207/2/5 206/2/5
f 211/2/5 209/2/5 208/2/5
f 212/2/5 210/2/5 206/2/5
f 212/4/5 211/4/5 210/4/5
f 213/2/5 209/2/5 211/2/5
f 213/4/5 211/4/5 212/4/5
f 214/2/5 212/2/5 206/2/5
f 215/2/5 212/2/5 214/2/5
f 216/2/5 209/2/5 213/2/5
f 217/2/5 209/2/5 216/2/5
f 220/4/5 219/4/5 218/4/5
f 221/4/5 219/4/5 220/4/5
f 225/4/5 223/4/5 222/4/5
f 225/4/5 224/4/5 223/4/5
f 226/4/5 224/4/5 225/4/5
f 229/4/5 228/4/5 227/4/5
f 230/4/5 228/4/5 229/4/5
f 232/4/5 228/4/5 230/4/5
f 233/4/5 232/4/5 231/4/5
f 234/4/5 228/4/5 232/4/5
f 234/4/5 232/4/5 233/4/5
f 235/4/6 236/4/6 237/4/6
f 237/4/6 236/4/6 238/4/6
f 239/4/6 240/4/6 241/4/6
f 241/4/6 240/4/6 242/4/6
f 243/2/6 244/2/6 246/2/6
f 246/2/6 244/2/6 247/2/6
f 244/3/6 245/3/6 248/3/6
f 247/2/6 244/2/6 248/2/6
f 248/3/6 245/3/6 249/3/6
f 248/2/6 249/2/6 252/2/6
f 252/2/6 249/2/6 253/2/6
f 250/2/6 251/2/6 254/2/6
f 251/2/6 252/2/6 254/2/6
f 252/3/6 253/3/6 255/3/6
f 254/2/6 252/2/6 255/2/6
f 255/3/6 253/3/6 256/3/6
f 257/6/6 258/6/6 259/6/6
f 259/6/6 258/6/6 260/6/6
f 261/4/6 262/4/6 264/4/6
f 263/8/6 264/8/6 265/8/6
f 264/4/6 262/4/6 266/4/6
f 265/8/6 264/8/6 266/8/6
f 265/7/6 266/7/6 267/7/6
f 266/4/6 262/4/6 268/4/6
f 267/7/6 266/7/6 268/7/6
f 268/4/6 262/4/6 269/4/6
f 269/4/6 262/4/6 270/4/6
