# MagicaVoxel @ Ephtracy

# group
o 

# material
mtllib hammber_boss.mtl
usemtl palette

# normals
vn -1 0 0
vn 1 0 0
vn 0 0 1
vn 0 0 -1
vn 0 -1 0
vn 0 1 0

# texcoords
vt 0.0332031 0.5
vt 0.533203 0.5
vt 0.537109 0.5
vt 0.900391 0.5
vt 0.970703 0.5
vt 0.974609 0.5
vt 0.978516 0.5
vt 0.982422 0.5

# verts
v -0.7 2.3 0.4
v -0.7 2.3 0.3
v -0.7 2.3 -0.4
v -0.7 2.3 -0.5
v -0.7 2.5 0.1
v -0.7 2.5 -0.2
v -0.7 2.6 0.1
v -0.7 2.6 -0.2
v -0.7 2.7 -0.4
v -0.7 2.7 -0.5
v -0.7 2.8 0.4
v -0.7 2.8 0.3
v -0.7 2.8 -0.4
v -0.7 2.8 -0.5
v -0.6 2.2 0.4
v -0.6 2.2 0.3
v -0.6 2.2 -0.4
v -0.6 2.2 -0.5
v -0.6 2.3 0.5
v -0.6 2.3 0.4
v -0.6 2.3 0.3
v -0.6 2.3 -0.4
v -0.6 2.3 -0.5
v -0.6 2.3 -0.6
v -0.6 2.4 0.3
v -0.6 2.4 -0.4
v -0.6 2.5 0.1
v -0.6 2.5 -0.2
v -0.6 2.6 0.1
v -0.6 2.6 -0.2
v -0.6 2.7 0.3
v -0.6 2.7 -0.4
v -0.6 2.7 -0.5
v -0.6 2.8 0.5
v -0.6 2.8 0.4
v -0.6 2.8 0.3
v -0.6 2.8 -0.4
v -0.6 2.8 -0.5
v -0.6 2.8 -0.6
v -0.6 2.9 0.4
v -0.6 2.9 0.3
v -0.6 2.9 -0.4
v -0.6 2.9 -0.5
v -0.5 2.3 0.3
v -0.5 2.3 -0.4
v -0.5 2.4 0.3
v -0.5 2.4 -0.4
v -0.5 2.7 0.3
v -0.5 2.7 0.2
v -0.5 2.7 0.1
v -0.5 2.7 -0.4
v -0.5 2.8 0.3
v -0.5 2.8 0.2
v -0.5 2.8 0.1
v -0.5 2.8 -0.4
v -0.4 2.1 0
v -0.4 2.1 -0.1
v -0.4 2.2 -0.1
v -0.4 2.2 -0.2
v -0.4 2.3 0
v -0.4 2.3 -0.2
v -0.3 0.5 0.4
v -0.3 0.5 0.3
v -0.3 0.5 -0.4
v -0.3 0.5 -0.5
v -0.3 0.9 0.4
v -0.3 0.9 0.3
v -0.3 0.9 -0.4
v -0.3 0.9 -0.5
v -0.3 1 0.4
v -0.3 1 0.3
v -0.3 1 -0.4
v -0.3 1 -0.5
v -0.3 1.2 0
v -0.3 1.2 -0.1
v -0.3 1.3 0
v -0.3 1.3 -0.1
v -0.3 1.4 0
v -0.3 1.4 -0.1
v -0.3 1.5 0
v -0.3 1.5 -0.1
v -0.3 1.7 0
v -0.3 1.7 -0.1
v -0.3 1.8 0
v -0.3 1.8 -0.1
v -0.3 1.9 0
v -0.3 1.9 -0.1
v -0.3 2 0
v -0.3 2 -0.1
v -0.3 2.1 0
v -0.3 2.1 -0.1
v -0.3 2.2 0.1
v -0.3 2.2 0
v -0.3 2.3 0.1
v -0.3 2.3 0
v -0.3 2.8 0.1
v -0.3 2.8 -0.2
v -0.3 2.9 0.1
v -0.3 2.9 -0.2
v -0.2 0.5 0.4
v -0.2 0.5 0.3
v -0.2 0.5 -0.4
v -0.2 0.5 -0.5
v -0.2 0.9 0.4
v -0.2 0.9 0.3
v -0.2 0.9 -0.4
v -0.2 0.9 -0.5
v -0.2 1 0.4
v -0.2 1 0.3
v -0.2 1 -0.4
v -0.2 1 -0.5
v -0.2 1.2 0
v -0.2 1.2 -0.1
v -0.2 1.3 0
v -0.2 1.3 -0.1
v -0.2 1.4 0
v -0.2 1.4 -0.1
v -0.2 1.5 0
v -0.2 1.5 -0.1
v -0.2 1.7 0
v -0.2 1.7 -0.1
v -0.2 1.8 0
v -0.2 1.8 -0.1
v -0.2 1.9 0
v -0.2 1.9 -0.1
v -0.2 2 0
v -0.2 2 -0.1
v -0.2 2.2 0.1
v -0.2 2.2 0
v -0.2 2.2 -0.1
v -0.2 2.3 0.1
v -0.2 2.3 0
v -0.2 2.8 0.1
v -0.2 2.8 -0.2
v -0.2 2.9 0.1
v -0.2 2.9 -0.2
v -0.1 2.2 0
v -0.1 2.2 -0.2
v -0.1 2.3 0
v -0.1 2.3 -0.2
v 5.96046e-08 2.3 0.3
v 5.96046e-08 2.3 -0.2
v 5.96046e-08 2.3 -0.4
v 5.96046e-08 2.4 0.3
v 5.96046e-08 2.4 0.2
v 5.96046e-08 2.4 0.1
v 5.96046e-08 2.4 -0.2
v 5.96046e-08 2.4 -0.4
v 5.96046e-08 2.7 0.3
v 5.96046e-08 2.7 -0.4
v 5.96046e-08 2.8 0.3
v 5.96046e-08 2.8 -0.4
v 0.1 2.2 0.4
v 0.1 2.2 0.3
v 0.1 2.2 -0.4
v 0.1 2.2 -0.5
v 0.1 2.3 0.5
v 0.1 2.3 0.4
v 0.1 2.3 0.3
v 0.1 2.3 -0.4
v 0.1 2.3 -0.5
v 0.1 2.3 -0.6
v 0.1 2.4 0.5
v 0.1 2.4 0.4
v 0.1 2.4 0.3
v 0.1 2.4 0.2
v 0.1 2.4 0.1
v 0.1 2.4 -0.4
v 0.1 2.4 -0.5
v 0.1 2.4 -0.6
v 0.1 2.5 0.5
v 0.1 2.5 0.4
v 0.1 2.5 0.2
v 0.1 2.5 0.1
v 0.1 2.5 -0.2
v 0.1 2.6 0.1
v 0.1 2.6 -0.2
v 0.1 2.7 0.3
v 0.1 2.7 -0.4
v 0.1 2.8 0.5
v 0.1 2.8 0.4
v 0.1 2.8 0.3
v 0.1 2.8 -0.4
v 0.1 2.8 -0.5
v 0.1 2.8 -0.6
v 0.1 2.9 0.4
v 0.1 2.9 0.3
v 0.1 2.9 -0.4
v 0.1 2.9 -0.5
v 0.2 2.3 0.4
v 0.2 2.3 0.3
v 0.2 2.3 -0.4
v 0.2 2.3 -0.5
v 0.2 2.5 0.1
v 0.2 2.5 -0.2
v 0.2 2.6 0.1
v 0.2 2.6 -0.2
v 0.2 2.8 0.4
v 0.2 2.8 0.3
v 0.2 2.8 -0.4
v 0.2 2.8 -0.5
v -0.6 2.3 0.5
v -0.6 2.8 0.5
v -0.5 2.4 0.5
v -0.5 2.5 0.5
v -0.4 2.4 0.5
v -0.4 2.5 0.5
v -0.4 2.6 0.5
v -0.1 2.4 0.5
v -0.1 2.5 0.5
v -0.1 2.6 0.5
v 0.1 2.3 0.5
v 0.1 2.4 0.5
v 0.1 2.5 0.5
v 0.1 2.8 0.5
v -0.7 2.3 0.4
v -0.7 2.8 0.4
v -0.6 2.2 0.4
v -0.6 2.3 0.4
v -0.6 2.8 0.4
v -0.6 2.9 0.4
v -0.3 0.5 0.4
v -0.3 0.9 0.4
v -0.3 1 0.4
v -0.2 0.5 0.4
v -0.2 0.9 0.4
v -0.2 1 0.4
v 0.1 2.2 0.4
v 0.1 2.3 0.4
v 0.1 2.4 0.4
v 0.1 2.5 0.4
v 0.1 2.8 0.4
v 0.1 2.9 0.4
v 0.2 2.3 0.4
v 0.2 2.8 0.4
v -0.7 2.5 0.1
v -0.7 2.6 0.1
v -0.6 2.5 0.1
v -0.6 2.6 0.1
v -0.3 2.2 0.1
v -0.3 2.3 0.1
v -0.3 2.8 0.1
v -0.3 2.9 0.1
v -0.2 2.2 0.1
v -0.2 2.3 0.1
v -0.2 2.8 0.1
v -0.2 2.9 0.1
v 0.1 2.5 0.1
v 0.1 2.6 0.1
v 0.2 2.5 0.1
v 0.2 2.6 0.1
v -0.4 2.1 0
v -0.4 2.3 0
v -0.3 1.2 0
v -0.3 1.3 0
v -0.3 1.4 0
v -0.3 1.5 0
v -0.3 1.7 0
v -0.3 1.8 0
v -0.3 1.9 0
v -0.3 2 0
v -0.3 2.1 0
v -0.3 2.2 0
v -0.3 2.3 0
v -0.2 1.2 0
v -0.2 1.3 0
v -0.2 1.4 0
v -0.2 1.5 0
v -0.2 1.7 0
v -0.2 1.8 0
v -0.2 1.9 0
v -0.2 2 0
v -0.2 2.2 0
v -0.2 2.3 0
v -0.1 2.2 0
v -0.1 2.3 0
v -0.7 2.3 -0.4
v -0.7 2.7 -0.4
v -0.7 2.8 -0.4
v -0.6 2.2 -0.4
v -0.6 2.3 -0.4
v -0.6 2.4 -0.4
v -0.6 2.7 -0.4
v -0.6 2.8 -0.4
v -0.6 2.9 -0.4
v -0.5 2.3 -0.4
v -0.5 2.4 -0.4
v -0.5 2.7 -0.4
v -0.5 2.8 -0.4
v -0.4 2.8 -0.4
v -0.3 0.5 -0.4
v -0.3 0.9 -0.4
v -0.3 1 -0.4
v -0.3 2.8 -0.4
v -0.2 0.5 -0.4
v -0.2 0.9 -0.4
v -0.2 1 -0.4
v -0.1 2.3 -0.4
v 5.96046e-08 2.3 -0.4
v 5.96046e-08 2.4 -0.4
v 5.96046e-08 2.7 -0.4
v 5.96046e-08 2.8 -0.4
v 0.1 2.2 -0.4
v 0.1 2.3 -0.4
v 0.1 2.4 -0.4
v 0.1 2.7 -0.4
v 0.1 2.8 -0.4
v 0.1 2.9 -0.4
v 0.2 2.3 -0.4
v 0.2 2.8 -0.4
v -0.7 2.3 0.3
v -0.7 2.8 0.3
v -0.6 2.2 0.3
v -0.6 2.3 0.3
v -0.6 2.4 0.3
v -0.6 2.7 0.3
v -0.6 2.8 0.3
v -0.6 2.9 0.3
v -0.5 2.3 0.3
v -0.5 2.4 0.3
v -0.5 2.7 0.3
v -0.5 2.8 0.3
v -0.3 0.5 0.3
v -0.3 0.9 0.3
v -0.3 1 0.3
v -0.3 2.3 0.3
v -0.2 0.5 0.3
v -0.2 0.9 0.3
v -0.2 1 0.3
v -0.2 2.3 0.3
v -0.2 2.8 0.3
v -0.1 2.8 0.3
v 5.96046e-08 2.3 0.3
v 5.96046e-08 2.4 0.3
v 5.96046e-08 2.7 0.3
v 5.96046e-08 2.8 0.3
v 0.1 2.2 0.3
v 0.1 2.3 0.3
v 0.1 2.4 0.3
v 0.1 2.7 0.3
v 0.1 2.8 0.3
v 0.1 2.9 0.3
v 0.2 2.3 0.3
v 0.2 2.8 0.3
v -0.4 2.1 -0.1
v -0.4 2.2 -0.1
v -0.3 1.2 -0.1
v -0.3 1.3 -0.1
v -0.3 1.4 -0.1
v -0.3 1.5 -0.1
v -0.3 1.7 -0.1
v -0.3 1.8 -0.1
v -0.3 1.9 -0.1
v -0.3 2 -0.1
v -0.3 2.1 -0.1
v -0.3 2.2 -0.1
v -0.2 1.2 -0.1
v -0.2 1.3 -0.1
v -0.2 1.4 -0.1
v -0.2 1.5 -0.1
v -0.2 1.7 -0.1
v -0.2 1.8 -0.1
v -0.2 1.9 -0.1
v -0.2 2 -0.1
v -0.2 2.2 -0.1
v -0.7 2.5 -0.2
v -0.7 2.6 -0.2
v -0.6 2.5 -0.2
v -0.6 2.6 -0.2
v -0.4 2.2 -0.2
v -0.4 2.3 -0.2
v -0.3 2.8 -0.2
v -0.3 2.9 -0.2
v -0.2 2.8 -0.2
v -0.2 2.9 -0.2
v -0.1 2.2 -0.2
v -0.1 2.3 -0.2
v 0.1 2.5 -0.2
v 0.1 2.6 -0.2
v 0.2 2.5 -0.2
v 0.2 2.6 -0.2
v -0.7 2.3 -0.5
v -0.7 2.7 -0.5
v -0.7 2.8 -0.5
v -0.6 2.2 -0.5
v -0.6 2.3 -0.5
v -0.6 2.7 -0.5
v -0.6 2.8 -0.5
v -0.6 2.9 -0.5
v -0.5 2.8 -0.5
v -0.3 0.5 -0.5
v -0.3 0.9 -0.5
v -0.3 1 -0.5
v -0.3 2.8 -0.5
v -0.2 0.5 -0.5
v -0.2 0.9 -0.5
v -0.2 1 -0.5
v 5.96046e-08 2.3 -0.5
v 0.1 2.2 -0.5
v 0.1 2.3 -0.5
v 0.1 2.4 -0.5
v 0.1 2.8 -0.5
v 0.1 2.9 -0.5
v 0.2 2.3 -0.5
v 0.2 2.8 -0.5
v -0.6 2.3 -0.6
v -0.6 2.8 -0.6
v -0.5 2.6 -0.6
v -0.5 2.8 -0.6
v -0.4 2.5 -0.6
v -0.4 2.6 -0.6
v -0.4 2.7 -0.6
v -0.3 2.7 -0.6
v -0.3 2.8 -0.6
v -0.1 2.5 -0.6
v -0.1 2.6 -0.6
v 5.96046e-08 2.3 -0.6
v 5.96046e-08 2.4 -0.6
v 0.1 2.3 -0.6
v 0.1 2.4 -0.6
v 0.1 2.8 -0.6
v -0.3 0.5 0.4
v -0.2 0.5 0.4
v -0.3 0.5 0.3
v -0.2 0.5 0.3
v -0.3 0.5 -0.4
v -0.2 0.5 -0.4
v -0.3 0.5 -0.5
v -0.2 0.5 -0.5
v -0.3 1.2 0
v -0.2 1.2 0
v -0.3 1.2 -0.1
v -0.2 1.2 -0.1
v -0.4 2.1 0
v -0.3 2.1 0
v -0.4 2.1 -0.1
v -0.3 2.1 -0.1
v -0.6 2.2 0.4
v 0.1 2.2 0.4
v -0.6 2.2 0.3
v 0.1 2.2 0.3
v -0.3 2.2 0.1
v -0.2 2.2 0.1
v -0.3 2.2 0
v -0.2 2.2 0
v -0.1 2.2 0
v -0.4 2.2 -0.1
v -0.3 2.2 -0.1
v -0.2 2.2 -0.1
v -0.4 2.2 -0.2
v -0.1 2.2 -0.2
v -0.6 2.2 -0.4
v 0.1 2.2 -0.4
v -0.6 2.2 -0.5
v 0.1 2.2 -0.5
v -0.6 2.3 0.5
v 0.1 2.3 0.5
v -0.7 2.3 0.4
v -0.6 2.3 0.4
v 0.1 2.3 0.4
v 0.2 2.3 0.4
v -0.7 2.3 0.3
v -0.6 2.3 0.3
v -0.5 2.3 0.3
v -0.3 2.3 0.3
v -0.2 2.3 0.3
v 5.96046e-08 2.3 0.3
v 0.1 2.3 0.3
v 0.2 2.3 0.3
v -0.4 2.3 0.2
v -0.3 2.3 0.2
v -0.2 2.3 0.2
v -0.4 2.3 0.1
v -0.3 2.3 0.1
v -0.2 2.3 0.1
v -0.4 2.3 0
v -0.3 2.3 0
v -0.2 2.3 0
v -0.1 2.3 0
v -0.4 2.3 -0.2
v -0.1 2.3 -0.2
v 5.96046e-08 2.3 -0.2
v -0.7 2.3 -0.4
v -0.6 2.3 -0.4
v -0.5 2.3 -0.4
v -0.1 2.3 -0.4
v 5.96046e-08 2.3 -0.4
v 0.1 2.3 -0.4
v 0.2 2.3 -0.4
v -0.7 2.3 -0.5
v -0.6 2.3 -0.5
v 5.96046e-08 2.3 -0.5
v 0.1 2.3 -0.5
v 0.2 2.3 -0.5
v -0.6 2.3 -0.6
v 5.96046e-08 2.3 -0.6
v 0.1 2.3 -0.6
v -0.6 2.4 0.3
v -0.5 2.4 0.3
v 5.96046e-08 2.4 0.3
v 0.1 2.4 0.3
v 5.96046e-08 2.4 0.2
v 0.1 2.4 0.2
v 5.96046e-08 2.4 0.1
v 0.1 2.4 0.1
v 5.96046e-08 2.4 -0.2
v -0.6 2.4 -0.4
v -0.5 2.4 -0.4
v 5.96046e-08 2.4 -0.4
v 0.1 2.4 -0.4
v -0.7 2.5 0.1
v -0.6 2.5 0.1
v 0.1 2.5 0.1
v 0.2 2.5 0.1
v -0.7 2.5 -0.2
v -0.6 2.5 -0.2
v 0.1 2.5 -0.2
v 0.2 2.5 -0.2
v -0.3 1 0.4
v -0.2 1 0.4
v -0.3 1 0.3
v -0.2 1 0.3
v -0.3 1 -0.4
v -0.2 1 -0.4
v -0.3 1 -0.5
v -0.2 1 -0.5
v -0.7 2.6 0.1
v -0.6 2.6 0.1
v 0.1 2.6 0.1
v 0.2 2.6 0.1
v -0.7 2.6 -0.2
v -0.6 2.6 -0.2
v 0.1 2.6 -0.2
v 0.2 2.6 -0.2
v -0.6 2.7 0.3
v -0.5 2.7 0.3
v 5.96046e-08 2.7 0.3
v 0.1 2.7 0.3
v -0.5 2.7 0.2
v -0.5 2.7 0.1
v -0.6 2.7 -0.4
v -0.5 2.7 -0.4
v 5.96046e-08 2.7 -0.4
v 0.1 2.7 -0.4
v -0.6 2.8 0.5
v 0.1 2.8 0.5
v -0.7 2.8 0.4
v -0.6 2.8 0.4
v 0.1 2.8 0.4
v 0.2 2.8 0.4
v -0.7 2.8 0.3
v -0.6 2.8 0.3
v -0.5 2.8 0.3
v -0.2 2.8 0.3
v -0.1 2.8 0.3
v 5.96046e-08 2.8 0.3
v 0.1 2.8 0.3
v 0.2 2.8 0.3
v -0.5 2.8 0.2
v -0.4 2.8 0.2
v -0.5 2.8 0.1
v -0.4 2.8 0.1
v -0.3 2.8 0.1
v -0.2 2.8 0.1
v -0.1 2.8 0.1
v -0.3 2.8 -0.2
v -0.2 2.8 -0.2
v -0.1 2.8 -0.2
v -0.4 2.8 -0.3
v -0.3 2.8 -0.3
v -0.1 2.8 -0.3
v -0.7 2.8 -0.4
v -0.6 2.8 -0.4
v -0.5 2.8 -0.4
v -0.4 2.8 -0.4
v -0.3 2.8 -0.4
v 5.96046e-08 2.8 -0.4
v 0.1 2.8 -0.4
v 0.2 2.8 -0.4
v -0.7 2.8 -0.5
v -0.6 2.8 -0.5
v -0.5 2.8 -0.5
v -0.3 2.8 -0.5
v 0.1 2.8 -0.5
v 0.2 2.8 -0.5
v -0.6 2.8 -0.6
v -0.5 2.8 -0.6
v -0.3 2.8 -0.6
v 0.1 2.8 -0.6
v -0.6 2.9 0.4
v 0.1 2.9 0.4
v -0.6 2.9 0.3
v 0.1 2.9 0.3
v -0.3 2.9 0.1
v -0.2 2.9 0.1
v -0.3 2.9 -0.2
v -0.2 2.9 -0.2
v -0.6 2.9 -0.4
v 0.1 2.9 -0.4
v -0.6 2.9 -0.5
v 0.1 2.9 -0.5

# faces
f 7/7/1 6/7/1 5/7/1
f 8/7/1 6/7/1 7/7/1
f 9/7/1 4/7/1 3/7/1
f 10/7/1 4/7/1 9/7/1
f 11/7/1 2/7/1 1/7/1
f 12/7/1 2/7/1 11/7/1
f 13/6/1 10/6/1 9/6/1
f 14/6/1 10/6/1 13/6/1
f 20/7/1 16/7/1 15/7/1
f 21/7/1 16/7/1 20/7/1
f 22/7/1 18/7/1 17/7/1
f 23/7/1 18/7/1 22/7/1
f 27/8/1 26/8/1 25/8/1
f 28/8/1 26/8/1 27/8/1
f 29/8/1 27/8/1 25/8/1
f 30/8/1 26/8/1 28/8/1
f 31/8/1 29/8/1 25/8/1
f 31/8/1 30/8/1 29/8/1
f 32/8/1 26/8/1 30/8/1
f 32/8/1 30/8/1 31/8/1
f 33/8/1 24/8/1 23/8/1
f 34/8/1 20/8/1 19/8/1
f 35/8/1 20/8/1 34/8/1
f 38/8/1 24/8/1 33/8/1
f 39/8/1 24/8/1 38/8/1
f 40/7/1 36/7/1 35/7/1
f 41/7/1 36/7/1 40/7/1
f 42/7/1 38/7/1 37/7/1
f 43/7/1 38/7/1 42/7/1
f 46/8/1 45/8/1 44/8/1
f 47/8/1 45/8/1 46/8/1
f 52/8/1 49/8/1 48/8/1
f 53/6/1 50/6/1 49/6/1
f 53/8/1 49/8/1 52/8/1
f 54/8/1 51/8/1 50/8/1
f 54/6/1 50/6/1 53/6/1
f 55/8/1 51/8/1 54/8/1
f 58/7/1 57/7/1 56/7/1
f 60/7/1 58/7/1 56/7/1
f 60/7/1 59/7/1 58/7/1
f 61/7/1 59/7/1 60/7/1
f 66/4/1 63/4/1 62/4/1
f 67/4/1 63/4/1 66/4/1
f 68/4/1 65/4/1 64/4/1
f 69/4/1 65/4/1 68/4/1
f 70/1/1 67/1/1 66/1/1
f 71/1/1 67/1/1 70/1/1
f 72/1/1 69/1/1 68/1/1
f 73/1/1 69/1/1 72/1/1
f 76/2/1 75/2/1 74/2/1
f 77/2/1 75/2/1 76/2/1
f 78/3/1 77/3/1 76/3/1
f 79/3/1 77/3/1 78/3/1
f 80/2/1 79/2/1 78/2/1
f 81/2/1 79/2/1 80/2/1
f 82/3/1 81/3/1 80/3/1
f 83/3/1 81/3/1 82/3/1
f 84/2/1 83/2/1 82/2/1
f 85/2/1 83/2/1 84/2/1
f 86/3/1 85/3/1 84/3/1
f 87/3/1 85/3/1 86/3/1
f 88/2/1 87/2/1 86/2/1
f 89/2/1 87/2/1 88/2/1
f 90/3/1 89/3/1 88/3/1
f 91/3/1 89/3/1 90/3/1
f 94/7/1 93/7/1 92/7/1
f 95/7/1 93/7/1 94/7/1
f 98/7/1 97/7/1 96/7/1
f 99/7/1 97/7/1 98/7/1
f 100/4/2 101/4/2 104/4/2
f 104/4/2 101/4/2 105/4/2
f 102/4/2 103/4/2 106/4/2
f 106/4/2 103/4/2 107/4/2
f 104/1/2 105/1/2 108/1/2
f 108/1/2 105/1/2 109/1/2
f 106/1/2 107/1/2 110/1/2
f 110/1/2 107/1/2 111/1/2
f 112/2/2 113/2/2 114/2/2
f 114/2/2 113/2/2 115/2/2
f 114/3/2 115/3/2 116/3/2
f 116/3/2 115/3/2 117/3/2
f 116/2/2 117/2/2 118/2/2
f 118/2/2 117/2/2 119/2/2
f 118/3/2 119/3/2 120/3/2
f 120/3/2 119/3/2 121/3/2
f 120/2/2 121/2/2 122/2/2
f 122/2/2 121/2/2 123/2/2
f 122/3/2 123/3/2 124/3/2
f 124/3/2 123/3/2 125/3/2
f 124/2/2 125/2/2 126/2/2
f 126/2/2 125/2/2 127/2/2
f 126/3/2 127/3/2 129/3/2
f 129/3/2 127/3/2 130/3/2
f 128/7/2 129/7/2 131/7/2
f 131/7/2 129/7/2 132/7/2
f 133/7/2 134/7/2 135/7/2
f 135/7/2 134/7/2 136/7/2
f 137/7/2 138/7/2 139/7/2
f 139/7/2 138/7/2 140/7/2
f 141/8/2 142/8/2 144/8/2
f 144/8/2 142/8/2 145/8/2
f 145/8/2 142/8/2 146/8/2
f 142/6/2 143/6/2 147/6/2
f 146/8/2 142/8/2 147/8/2
f 147/6/2 143/6/2 148/6/2
f 149/8/2 150/8/2 151/8/2
f 151/8/2 150/8/2 152/8/2
f 153/7/2 154/7/2 158/7/2
f 158/7/2 154/7/2 159/7/2
f 155/7/2 156/7/2 160/7/2
f 160/7/2 156/7/2 161/7/2
f 157/8/2 158/8/2 163/8/2
f 163/8/2 158/8/2 164/8/2
f 161/6/2 162/6/2 169/6/2
f 169/6/2 162/6/2 170/6/2
f 163/6/2 164/6/2 171/6/2
f 171/6/2 164/6/2 172/6/2
f 165/8/2 166/8/2 173/8/2
f 166/6/2 167/6/2 173/6/2
f 167/8/2 168/8/2 174/8/2
f 173/6/2 167/6/2 174/6/2
f 174/8/2 168/8/2 175/8/2
f 173/8/2 174/8/2 176/8/2
f 175/8/2 168/8/2 177/8/2
f 165/8/2 173/8/2 178/8/2
f 176/8/2 177/8/2 178/8/2
f 173/8/2 176/8/2 178/8/2
f 177/8/2 168/8/2 179/8/2
f 178/8/2 177/8/2 179/8/2
f 171/8/2 172/8/2 180/8/2
f 180/8/2 172/8/2 181/8/2
f 169/8/2 170/8/2 184/8/2
f 184/8/2 170/8/2 185/8/2
f 181/7/2 182/7/2 186/7/2
f 186/7/2 182/7/2 187/7/2
f 183/7/2 184/7/2 188/7/2
f 188/7/2 184/7/2 189/7/2
f 194/7/2 195/7/2 196/7/2
f 196/7/2 195/7/2 197/7/2
f 190/7/2 191/7/2 198/7/2
f 198/7/2 191/7/2 199/7/2
f 192/7/2 193/7/2 200/7/2
f 200/7/2 193/7/2 201/7/2
f 204/8/3 203/8/3 202/8/3
f 205/8/3 203/8/3 204/8/3
f 206/8/3 204/8/3 202/8/3
f 206/6/3 205/6/3 204/6/3
f 207/8/3 203/8/3 205/8/3
f 207/6/3 205/6/3 206/6/3
f 208/8/3 203/8/3 207/8/3
f 209/8/3 206/8/3 202/8/3
f 209/8/3 207/8/3 206/8/3
f 210/6/3 208/6/3 207/6/3
f 210/8/3 207/8/3 209/8/3
f 211/8/3 203/8/3 208/8/3
f 211/6/3 208/6/3 210/6/3
f 212/8/3 209/8/3 202/8/3
f 213/6/3 210/6/3 209/6/3
f 213/8/3 209/8/3 212/8/3
f 214/8/3 211/8/3 210/8/3
f 214/6/3 210/6/3 213/6/3
f 215/8/3 203/8/3 211/8/3
f 215/8/3 211/8/3 214/8/3
f 219/7/3 217/7/3 216/7/3
f 220/7/3 217/7/3 219/7/3
f 225/4/3 223/4/3 222/4/3
f 226/1/3 224/1/3 223/1/3
f 226/4/3 223/4/3 225/4/3
f 227/1/3 224/1/3 226/1/3
f 228/7/3 219/7/3 218/7/3
f 229/7/3 219/7/3 228/7/3
f 232/7/3 221/7/3 220/7/3
f 233/7/3 221/7/3 232/7/3
f 234/7/3 231/7/3 230/7/3
f 234/7/3 232/7/3 231/7/3
f 234/7/3 230/7/3 229/7/3
f 235/7/3 232/7/3 234/7/3
f 238/7/3 237/7/3 236/7/3
f 239/7/3 237/7/3 238/7/3
f 244/7/3 241/7/3 240/7/3
f 245/7/3 241/7/3 244/7/3
f 246/7/3 243/7/3 242/7/3
f 247/7/3 243/7/3 246/7/3
f 250/7/3 249/7/3 248/7/3
f 251/7/3 249/7/3 250/7/3
f 262/7/3 253/7/3 252/7/3
f 263/7/3 253/7/3 262/7/3
f 264/7/3 253/7/3 263/7/3
f 265/2/3 255/2/3 254/2/3
f 266/3/3 256/3/3 255/3/3
f 266/2/3 255/2/3 265/2/3
f 267/2/3 257/2/3 256/2/3
f 267/3/3 256/3/3 266/3/3
f 268/3/3 258/3/3 257/3/3
f 268/2/3 257/2/3 267/2/3
f 269/2/3 259/2/3 258/2/3
f 269/3/3 258/3/3 268/3/3
f 270/3/3 260/3/3 259/3/3
f 270/2/3 259/2/3 269/2/3
f 271/2/3 261/2/3 260/2/3
f 271/3/3 260/3/3 270/3/3
f 272/3/3 262/3/3 261/3/3
f 272/2/3 261/2/3 271/2/3
f 272/3/3 263/3/3 262/3/3
f 273/3/3 263/3/3 272/3/3
f 275/7/3 274/7/3 273/7/3
f 276/7/3 274/7/3 275/7/3
f 281/7/3 278/7/3 277/7/3
f 282/7/3 278/7/3 281/7/3
f 283/6/3 279/6/3 278/6/3
f 283/7/3 278/7/3 282/7/3
f 284/6/3 279/6/3 283/6/3
f 286/8/3 282/8/3 281/8/3
f 286/7/3 281/7/3 280/7/3
f 287/8/3 282/8/3 286/8/3
f 288/8/3 284/8/3 283/8/3
f 289/7/3 285/7/3 284/7/3
f 289/8/3 284/8/3 288/8/3
f 290/7/3 285/7/3 289/7/3
f 294/7/3 285/7/3 290/7/3
f 295/4/3 292/4/3 291/4/3
f 296/1/3 293/1/3 292/1/3
f 296/4/3 292/4/3 295/4/3
f 297/1/3 293/1/3 296/1/3
f 298/7/3 286/7/3 280/7/3
f 299/7/3 298/7/3 280/7/3
f 302/7/3 285/7/3 294/7/3
f 303/7/3 299/7/3 280/7/3
f 304/8/3 300/8/3 299/8/3
f 304/7/3 299/7/3 303/7/3
f 305/8/3 300/8/3 304/8/3
f 306/8/3 302/8/3 301/8/3
f 307/7/3 285/7/3 302/7/3
f 307/8/3 302/8/3 306/8/3
f 308/7/3 285/7/3 307/7/3
f 309/7/3 305/7/3 304/7/3
f 309/7/3 306/7/3 305/7/3
f 309/7/3 307/7/3 306/7/3
f 310/7/3 307/7/3 309/7/3
f 311/7/4 312/7/4 314/7/4
f 314/7/4 312/7/4 315/7/4
f 315/7/4 312/7/4 316/7/4
f 316/7/4 312/7/4 317/7/4
f 313/7/4 314/7/4 319/7/4
f 314/8/4 315/8/4 319/8/4
f 319/8/4 315/8/4 320/8/4
f 316/8/4 317/8/4 321/8/4
f 317/7/4 318/7/4 322/7/4
f 321/8/4 317/8/4 322/8/4
f 313/7/4 319/7/4 326/7/4
f 323/4/4 324/4/4 327/4/4
f 324/1/4 325/1/4 328/1/4
f 327/4/4 324/4/4 328/4/4
f 328/1/4 325/1/4 329/1/4
f 313/7/4 326/7/4 330/7/4
f 322/7/4 318/7/4 331/7/4
f 331/7/4 318/7/4 332/7/4
f 313/7/4 330/7/4 333/7/4
f 332/7/4 318/7/4 336/7/4
f 313/7/4 333/7/4 337/7/4
f 333/8/4 334/8/4 338/8/4
f 337/7/4 333/7/4 338/7/4
f 338/8/4 334/8/4 339/8/4
f 335/8/4 336/8/4 340/8/4
f 336/7/4 318/7/4 341/7/4
f 340/8/4 336/8/4 341/8/4
f 341/7/4 318/7/4 342/7/4
f 338/7/4 339/7/4 343/7/4
f 339/7/4 340/7/4 343/7/4
f 340/7/4 341/7/4 343/7/4
f 343/7/4 341/7/4 344/7/4
f 345/7/4 346/7/4 355/7/4
f 355/7/4 346/7/4 356/7/4
f 347/2/4 348/2/4 357/2/4
f 348/3/4 349/3/4 358/3/4
f 357/2/4 348/2/4 358/2/4
f 349/2/4 350/2/4 359/2/4
f 358/3/4 349/3/4 359/3/4
f 350/3/4 351/3/4 360/3/4
f 359/2/4 350/2/4 360/2/4
f 351/2/4 352/2/4 361/2/4
f 360/3/4 351/3/4 361/3/4
f 352/3/4 353/3/4 362/3/4
f 361/2/4 352/2/4 362/2/4
f 353/2/4 354/2/4 363/2/4
f 362/3/4 353/3/4 363/3/4
f 354/3/4 355/3/4 364/3/4
f 363/2/4 354/2/4 364/2/4
f 355/3/4 356/3/4 364/3/4
f 364/3/4 356/3/4 365/3/4
f 366/7/4 367/7/4 368/7/4
f 368/7/4 367/7/4 369/7/4
f 372/7/4 373/7/4 374/7/4
f 374/7/4 373/7/4 375/7/4
f 370/7/4 371/7/4 376/7/4
f 376/7/4 371/7/4 377/7/4
f 378/7/4 379/7/4 380/7/4
f 380/7/4 379/7/4 381/7/4
f 382/7/4 383/7/4 386/7/4
f 383/6/4 384/6/4 387/6/4
f 386/7/4 383/7/4 387/7/4
f 387/6/4 384/6/4 388/6/4
f 388/7/4 389/7/4 390/7/4
f 390/7/4 389/7/4 394/7/4
f 391/4/4 392/4/4 395/4/4
f 392/1/4 393/1/4 396/1/4
f 395/4/4 392/4/4 396/4/4
f 396/1/4 393/1/4 397/1/4
f 385/7/4 386/7/4 398/7/4
f 385/7/4 398/7/4 399/7/4
f 399/7/4 398/7/4 400/7/4
f 394/7/4 389/7/4 402/7/4
f 402/7/4 389/7/4 403/7/4
f 400/7/4 401/7/4 404/7/4
f 401/7/4 402/7/4 404/7/4
f 404/7/4 402/7/4 405/7/4
f 406/8/4 407/8/4 408/8/4
f 408/8/4 407/8/4 409/8/4
f 406/8/4 408/8/4 410/8/4
f 408/6/4 409/6/4 411/6/4
f 410/8/4 408/8/4 411/8/4
f 411/6/4 409/6/4 412/6/4
f 411/8/4 412/8/4 413/8/4
f 412/6/4 409/6/4 413/6/4
f 413/6/4 409/6/4 414/6/4
f 406/8/4 410/8/4 415/8/4
f 410/6/4 411/6/4 415/6/4
f 413/8/4 414/8/4 416/8/4
f 415/6/4 411/6/4 416/6/4
f 411/8/4 413/8/4 416/8/4
f 406/8/4 415/8/4 417/8/4
f 415/8/4 416/8/4 417/8/4
f 417/8/4 416/8/4 418/8/4
f 417/6/4 418/6/4 419/6/4
f 418/8/4 416/8/4 420/8/4
f 419/6/4 418/6/4 420/6/4
f 416/8/4 414/8/4 421/8/4
f 420/8/4 416/8/4 421/8/4
f 424/4/5 423/4/5 422/4/5
f 425/4/5 423/4/5 424/4/5
f 428/4/5 427/4/5 426/4/5
f 429/4/5 427/4/5 428/4/5
f 432/2/5 431/2/5 430/2/5
f 433/2/5 431/2/5 432/2/5
f 436/7/5 435/7/5 434/7/5
f 437/7/5 435/7/5 436/7/5
f 440/7/5 439/7/5 438/7/5
f 441/7/5 439/7/5 440/7/5
f 444/7/5 443/7/5 442/7/5
f 445/7/5 443/7/5 444/7/5
f 449/7/5 446/7/5 445/7/5
f 450/7/5 448/7/5 447/7/5
f 450/7/5 449/7/5 448/7/5
f 451/7/5 446/7/5 449/7/5
f 451/7/5 449/7/5 450/7/5
f 454/7/5 453/7/5 452/7/5
f 455/7/5 453/7/5 454/7/5
f 459/8/5 457/8/5 456/8/5
f 460/8/5 457/8/5 459/8/5
f 462/7/5 459/7/5 458/7/5
f 463/7/5 459/7/5 462/7/5
f 468/7/5 461/7/5 460/7/5
f 469/7/5 461/7/5 468/7/5
f 470/8/5 465/8/5 464/8/5
f 471/6/5 466/6/5 465/6/5
f 471/8/5 465/8/5 470/8/5
f 472/8/5 467/8/5 466/8/5
f 472/6/5 466/6/5 471/6/5
f 473/6/5 471/6/5 470/6/5
f 473/8/5 470/8/5 464/8/5
f 474/8/5 472/8/5 471/8/5
f 474/6/5 471/6/5 473/6/5
f 475/8/5 467/8/5 472/8/5
f 475/8/5 472/8/5 474/8/5
f 476/8/5 474/8/5 473/8/5
f 476/8/5 473/8/5 464/8/5
f 477/8/5 474/8/5 476/8/5
f 478/8/5 467/8/5 475/8/5
f 479/8/5 467/8/5 478/8/5
f 480/8/5 476/8/5 464/8/5
f 481/8/5 467/8/5 479/8/5
f 482/8/5 467/8/5 481/8/5
f 485/8/5 480/8/5 464/8/5
f 485/8/5 481/8/5 480/8/5
f 486/6/5 482/6/5 481/6/5
f 486/8/5 481/8/5 485/8/5
f 487/6/5 482/6/5 486/6/5
f 490/7/5 484/7/5 483/7/5
f 491/7/5 484/7/5 490/7/5
f 493/7/5 489/7/5 488/7/5
f 494/7/5 489/7/5 493/7/5
f 495/8/5 492/8/5 491/8/5
f 496/6/5 493/6/5 492/6/5
f 496/8/5 492/8/5 495/8/5
f 497/6/5 493/6/5 496/6/5
f 502/8/5 501/8/5 500/8/5
f 503/8/5 501/8/5 502/8/5
f 504/6/5 503/6/5 502/6/5
f 505/6/5 503/6/5 504/6/5
f 506/8/5 505/8/5 504/8/5
f 507/8/5 499/8/5 498/8/5
f 508/8/5 499/8/5 507/8/5
f 509/8/5 505/8/5 506/8/5
f 510/8/5 505/8/5 509/8/5
f 515/7/5 512/7/5 511/7/5
f 516/7/5 512/7/5 515/7/5
f 517/7/5 514/7/5 513/7/5
f 518/7/5 514/7/5 517/7/5
f 519/1/6 520/1/6 521/1/6
f 521/1/6 520/1/6 522/1/6
f 523/1/6 524/1/6 525/1/6
f 525/1/6 524/1/6 526/1/6
f 527/7/6 528/7/6 531/7/6
f 531/7/6 528/7/6 532/7/6
f 529/7/6 530/7/6 533/7/6
f 533/7/6 530/7/6 534/7/6
f 535/8/6 536/8/6 539/8/6
f 535/8/6 539/8/6 540/8/6
f 535/8/6 540/8/6 541/8/6
f 541/8/6 540/8/6 542/8/6
f 537/8/6 538/8/6 543/8/6
f 543/8/6 538/8/6 544/8/6
f 545/8/6 546/8/6 548/8/6
f 548/8/6 546/8/6 549/8/6
f 547/7/6 548/7/6 551/7/6
f 551/7/6 548/7/6 552/7/6
f 549/7/6 550/7/6 557/7/6
f 557/7/6 550/7/6 558/7/6
f 553/8/6 554/8/6 559/8/6
f 559/8/6 554/8/6 560/8/6
f 559/6/6 560/6/6 561/6/6
f 560/8/6 554/8/6 562/8/6
f 561/6/6 560/6/6 562/6/6
f 562/8/6 554/8/6 563/8/6
f 554/6/6 555/6/6 564/6/6
f 563/8/6 554/8/6 564/8/6
f 555/8/6 556/8/6 565/8/6
f 564/6/6 555/6/6 565/6/6
f 562/8/6 563/8/6 566/8/6
f 561/8/6 562/8/6 566/8/6
f 564/8/6 565/8/6 567/8/6
f 565/8/6 556/8/6 568/8/6
f 567/8/6 565/8/6 568/8/6
f 561/8/6 566/8/6 569/8/6
f 566/6/6 567/6/6 570/6/6
f 569/8/6 566/8/6 570/8/6
f 567/6/6 568/6/6 570/6/6
f 568/8/6 556/8/6 571/8/6
f 570/6/6 568/6/6 571/6/6
f 561/8/6 569/8/6 574/8/6
f 569/6/6 570/6/6 575/6/6
f 574/8/6 569/8/6 575/8/6
f 570/8/6 571/8/6 576/8/6
f 575/6/6 570/6/6 576/6/6
f 571/8/6 556/8/6 577/8/6
f 576/8/6 571/8/6 577/8/6
f 572/6/6 573/6/6 580/6/6
f 580/6/6 573/6/6 581/6/6
f 578/7/6 579/7/6 584/7/6
f 584/7/6 579/7/6 585/7/6
f 581/8/6 582/8/6 586/8/6
f 582/6/6 583/6/6 587/6/6
f 586/8/6 582/8/6 587/8/6
f 583/8/6 584/8/6 588/8/6
f 587/6/6 583/6/6 588/6/6
f 588/8/6 584/8/6 589/8/6
f 590/7/6 591/7/6 592/7/6
f 592/7/6 591/7/6 593/7/6
f 594/7/6 595/7/6 596/7/6
f 596/7/6 595/7/6 597/7/6
f 598/7/6 599/7/6 600/7/6
f 600/7/6 599/7/6 601/7/6
