# MagicaVoxel @ Ephtracy

# group
o 

# material
mtllib rat_enemy.mtl
usemtl palette

# normals
vn -1 0 0
vn 1 0 0
vn 0 0 1
vn 0 0 -1
vn 0 -1 0
vn 0 1 0

# texcoords
vt 0.0957031 0.5
vt 0.958984 0.5
vt 0.970703 0.5
vt 0.982422 0.5

# verts
v -0.6 0.3 0.3
v -0.6 0.3 0.2
v -0.6 0.3 0.1
v -0.6 0.3 0
v -0.6 0.4 0.3
v -0.6 0.4 0.2
v -0.6 0.4 0.1
v -0.6 0.4 0
v -0.6 0.5 0.3
v -0.6 0.5 0
v -0.5 0.2 0.3
v -0.5 0.2 0
v -0.5 0.3 0.3
v -0.5 0.3 0.2
v -0.5 0.3 0.1
v -0.5 0.3 0
v -0.4 0.4 0.4
v -0.4 0.4 0.3
v -0.4 0.4 0
v -0.4 0.4 -0.1
v -0.4 0.5 0.3
v -0.4 0.5 0.2
v -0.4 0.5 0.1
v -0.4 0.5 0
v -0.4 0.7 0.4
v -0.4 0.7 0.2
v -0.4 0.7 0.1
v -0.4 0.7 -0.1
v -0.3 0 0.3
v -0.3 0 0.2
v -0.3 0 0.1
v -0.3 0 0
v -0.3 0.1 0.3
v -0.3 0.1 0.2
v -0.3 0.1 0.1
v -0.3 0.1 0
v -0.3 0.2 0.3
v -0.3 0.2 0
v 0.1 0 0.3
v 0.1 0 0.2
v 0.1 0 0.1
v 0.1 0 0
v 0.1 0.1 0.3
v 0.1 0.1 0.2
v 0.1 0.1 0.1
v 0.1 0.1 0
v 0.3 0.3 0.2
v 0.3 0.3 0.1
v 0.3 0.5 0.2
v 0.3 0.5 0.1
v -0.3 0.3 0.3
v -0.3 0.3 0
v -0.3 0.4 0.4
v -0.3 0.4 0.3
v -0.3 0.4 0.2
v -0.3 0.4 0.1
v -0.3 0.4 0
v -0.3 0.4 -0.1
v -0.3 0.5 0.2
v -0.3 0.5 0.1
v -0.3 0.7 0.4
v -0.3 0.7 0.2
v -0.3 0.7 0.1
v -0.3 0.7 -0.1
v -0.2 0 0.3
v -0.2 0 0.2
v -0.2 0 0.1
v -0.2 0 0
v -0.2 0.1 0.3
v -0.2 0.1 0.2
v -0.2 0.1 0.1
v -0.2 0.1 0
v 0.2 0 0.3
v 0.2 0 0.2
v 0.2 0 0.1
v 0.2 0 0
v 0.2 0.1 0.3
v 0.2 0.1 0.2
v 0.2 0.1 0.1
v 0.2 0.1 0
v 0.2 0.2 0.2
v 0.2 0.2 0.1
v 0.2 0.3 0.3
v 0.2 0.3 0.2
v 0.2 0.3 0.1
v 0.2 0.3 0
v 0.4 0.2 0.2
v 0.4 0.2 0.1
v 0.4 0.5 0.2
v 0.4 0.5 0.1
v -0.4 0.4 0.4
v -0.4 0.7 0.4
v -0.3 0.4 0.4
v -0.3 0.7 0.4
v -0.6 0.3 0.3
v -0.6 0.4 0.3
v -0.6 0.5 0.3
v -0.5 0.2 0.3
v -0.5 0.3 0.3
v -0.5 0.4 0.3
v -0.4 0.4 0.3
v -0.4 0.5 0.3
v -0.3 0 0.3
v -0.3 0.1 0.3
v -0.3 0.2 0.3
v -0.3 0.3 0.3
v -0.3 0.4 0.3
v -0.2 0 0.3
v -0.2 0.1 0.3
v 0.1 0 0.3
v 0.1 0.1 0.3
v 0.2 0 0.3
v 0.2 0.1 0.3
v 0.2 0.3 0.3
v 0.2 0.2 0.2
v 0.2 0.3 0.2
v 0.3 0.3 0.2
v 0.3 0.5 0.2
v 0.4 0.2 0.2
v 0.4 0.5 0.2
v -0.4 0.5 0.1
v -0.4 0.7 0.1
v -0.3 0 0.1
v -0.3 0.1 0.1
v -0.3 0.5 0.1
v -0.3 0.7 0.1
v -0.2 0 0.1
v -0.2 0.1 0.1
v 0.1 0 0.1
v 0.1 0.1 0.1
v 0.2 0 0.1
v 0.2 0.1 0.1
v -0.4 0.5 0.2
v -0.4 0.7 0.2
v -0.3 0 0.2
v -0.3 0.1 0.2
v -0.3 0.5 0.2
v -0.3 0.7 0.2
v -0.2 0 0.2
v -0.2 0.1 0.2
v 0.1 0 0.2
v 0.1 0.1 0.2
v 0.2 0 0.2
v 0.2 0.1 0.2
v 0.2 0.2 0.1
v 0.2 0.3 0.1
v 0.3 0.3 0.1
v 0.3 0.5 0.1
v 0.4 0.2 0.1
v 0.4 0.5 0.1
v -0.6 0.3 0
v -0.6 0.4 0
v -0.6 0.5 0
v -0.5 0.2 0
v -0.5 0.3 0
v -0.5 0.4 0
v -0.4 0.4 0
v -0.4 0.5 0
v -0.3 0 0
v -0.3 0.1 0
v -0.3 0.2 0
v -0.3 0.3 0
v -0.3 0.4 0
v -0.2 0 0
v -0.2 0.1 0
v 0.1 0 0
v 0.1 0.1 0
v 0.2 0 0
v 0.2 0.1 0
v 0.2 0.3 0
v -0.4 0.4 -0.1
v -0.4 0.7 -0.1
v -0.3 0.4 -0.1
v -0.3 0.7 -0.1
v -0.3 0 0.3
v -0.2 0 0.3
v 0.1 0 0.3
v 0.2 0 0.3
v -0.3 0 0.2
v -0.2 0 0.2
v 0.1 0 0.2
v 0.2 0 0.2
v -0.3 0 0.1
v -0.2 0 0.1
v 0.1 0 0.1
v 0.2 0 0.1
v -0.3 0 0
v -0.2 0 0
v 0.1 0 0
v 0.2 0 0
v -0.2 0.1 0.3
v 0.1 0.1 0.3
v -0.3 0.1 0.2
v -0.2 0.1 0.2
v 0.1 0.1 0.2
v 0.2 0.1 0.2
v -0.3 0.1 0.1
v -0.2 0.1 0.1
v 0.1 0.1 0.1
v 0.2 0.1 0.1
v -0.2 0.1 0
v 0.1 0.1 0
v -0.5 0.2 0.3
v -0.3 0.2 0.3
v 0.2 0.2 0.2
v 0.4 0.2 0.2
v 0.2 0.2 0.1
v 0.4 0.2 0.1
v -0.5 0.2 0
v -0.3 0.2 0
v -0.6 0.3 0.3
v -0.5 0.3 0.3
v -0.6 0.3 0.2
v -0.5 0.3 0.2
v -0.6 0.3 0.1
v -0.5 0.3 0.1
v -0.6 0.3 0
v -0.5 0.3 0
v -0.4 0.4 0.4
v -0.3 0.4 0.4
v -0.4 0.4 0.3
v -0.3 0.4 0.3
v -0.4 0.4 0
v -0.3 0.4 0
v -0.4 0.4 -0.1
v -0.3 0.4 -0.1
v -0.3 0.3 0.3
v 0.2 0.3 0.3
v 0.2 0.3 0.2
v 0.3 0.3 0.2
v 0.2 0.3 0.1
v 0.3 0.3 0.1
v -0.3 0.3 0
v 0.2 0.3 0
v -0.6 0.5 0.3
v -0.4 0.5 0.3
v -0.4 0.5 0.2
v -0.3 0.5 0.2
v 0.3 0.5 0.2
v 0.4 0.5 0.2
v -0.4 0.5 0.1
v -0.3 0.5 0.1
v 0.3 0.5 0.1
v 0.4 0.5 0.1
v -0.6 0.5 0
v -0.4 0.5 0
v -0.4 0.7 0.4
v -0.3 0.7 0.4
v -0.4 0.7 0.2
v -0.3 0.7 0.2
v -0.4 0.7 0.1
v -0.3 0.7 0.1
v -0.4 0.7 -0.1
v -0.3 0.7 -0.1

# faces
f 5/2/1 2/2/1 1/2/1
f 6/4/1 3/4/1 2/4/1
f 6/2/1 2/2/1 5/2/1
f 7/2/1 4/2/1 3/2/1
f 7/4/1 3/4/1 6/4/1
f 8/2/1 4/2/1 7/2/1
f 9/4/1 6/4/1 5/4/1
f 9/4/1 7/4/1 6/4/1
f 9/4/1 8/4/1 7/4/1
f 10/4/1 8/4/1 9/4/1
f 13/4/1 12/4/1 11/4/1
f 14/4/1 12/4/1 13/4/1
f 15/4/1 12/4/1 14/4/1
f 16/4/1 12/4/1 15/4/1
f 21/1/1 18/1/1 17/1/1
f 24/1/1 20/1/1 19/1/1
f 25/1/1 22/1/1 21/1/1
f 25/1/1 21/1/1 17/1/1
f 26/1/1 22/1/1 25/1/1
f 27/1/1 24/1/1 23/1/1
f 28/1/1 20/1/1 24/1/1
f 28/1/1 24/1/1 27/1/1
f 33/1/1 30/1/1 29/1/1
f 34/1/1 30/1/1 33/1/1
f 35/1/1 32/1/1 31/1/1
f 36/1/1 32/1/1 35/1/1
f 37/4/1 34/4/1 33/4/1
f 37/4/1 35/4/1 34/4/1
f 37/4/1 36/4/1 35/4/1
f 38/4/1 36/4/1 37/4/1
f 43/1/1 40/1/1 39/1/1
f 44/1/1 40/1/1 43/1/1
f 45/1/1 42/1/1 41/1/1
f 46/1/1 42/1/1 45/1/1
f 49/1/1 48/1/1 47/1/1
f 50/1/1 48/1/1 49/1/1
f 51/4/2 52/4/2 54/4/2
f 54/4/2 52/4/2 55/4/2
f 55/4/2 52/4/2 56/4/2
f 56/4/2 52/4/2 57/4/2
f 53/1/2 54/1/2 59/1/2
f 54/1/2 55/1/2 59/1/2
f 55/4/2 56/4/2 59/4/2
f 57/1/2 58/1/2 60/1/2
f 59/4/2 56/4/2 60/4/2
f 56/1/2 57/1/2 60/1/2
f 53/1/2 59/1/2 61/1/2
f 61/1/2 59/1/2 62/1/2
f 60/1/2 58/1/2 63/1/2
f 63/1/2 58/1/2 64/1/2
f 65/1/2 66/1/2 69/1/2
f 69/1/2 66/1/2 70/1/2
f 67/1/2 68/1/2 71/1/2
f 71/1/2 68/1/2 72/1/2
f 73/1/2 74/1/2 77/1/2
f 77/1/2 74/1/2 78/1/2
f 75/1/2 76/1/2 79/1/2
f 79/1/2 76/1/2 80/1/2
f 77/4/2 78/4/2 81/4/2
f 78/4/2 79/4/2 81/4/2
f 79/4/2 80/4/2 81/4/2
f 81/4/2 80/4/2 82/4/2
f 77/4/2 81/4/2 83/4/2
f 83/4/2 81/4/2 84/4/2
f 82/4/2 80/4/2 85/4/2
f 85/4/2 80/4/2 86/4/2
f 87/1/2 88/1/2 89/1/2
f 89/1/2 88/1/2 90/1/2
f 93/1/3 92/1/3 91/1/3
f 94/1/3 92/1/3 93/1/3
f 99/2/3 96/2/3 95/2/3
f 100/4/3 97/4/3 96/4/3
f 100/2/3 96/2/3 99/2/3
f 101/4/3 99/4/3 98/4/3
f 101/4/3 97/4/3 100/4/3
f 101/4/3 100/4/3 99/4/3
f 102/4/3 97/4/3 101/4/3
f 105/4/3 101/4/3 98/4/3
f 106/4/3 101/4/3 105/4/3
f 107/4/3 101/4/3 106/4/3
f 108/1/3 104/1/3 103/1/3
f 109/4/3 105/4/3 104/4/3
f 109/1/3 104/1/3 108/1/3
f 109/4/3 106/4/3 105/4/3
f 111/4/3 106/4/3 109/4/3
f 112/1/3 111/1/3 110/1/3
f 113/4/3 106/4/3 111/4/3
f 113/1/3 111/1/3 112/1/3
f 114/4/3 106/4/3 113/4/3
f 117/1/3 116/1/3 115/1/3
f 119/1/3 117/1/3 115/1/3
f 119/1/3 118/1/3 117/1/3
f 120/1/3 118/1/3 119/1/3
f 125/1/3 122/1/3 121/1/3
f 126/1/3 122/1/3 125/1/3
f 127/1/3 124/1/3 123/1/3
f 128/1/3 124/1/3 127/1/3
f 131/1/3 130/1/3 129/1/3
f 132/1/3 130/1/3 131/1/3
f 133/1/4 134/1/4 137/1/4
f 137/1/4 134/1/4 138/1/4
f 135/1/4 136/1/4 139/1/4
f 139/1/4 136/1/4 140/1/4
f 141/1/4 142/1/4 143/1/4
f 143/1/4 142/1/4 144/1/4
f 145/1/4 146/1/4 147/1/4
f 145/1/4 147/1/4 149/1/4
f 147/1/4 148/1/4 149/1/4
f 149/1/4 148/1/4 150/1/4
f 151/2/4 152/2/4 155/2/4
f 152/4/4 153/4/4 156/4/4
f 155/2/4 152/2/4 156/2/4
f 154/4/4 155/4/4 157/4/4
f 156/4/4 153/4/4 157/4/4
f 155/4/4 156/4/4 157/4/4
f 157/4/4 153/4/4 158/4/4
f 154/4/4 157/4/4 161/4/4
f 161/4/4 157/4/4 162/4/4
f 162/4/4 157/4/4 163/4/4
f 159/1/4 160/1/4 164/1/4
f 160/4/4 161/4/4 165/4/4
f 164/1/4 160/1/4 165/1/4
f 161/4/4 162/4/4 165/4/4
f 165/4/4 162/4/4 167/4/4
f 166/1/4 167/1/4 168/1/4
f 167/4/4 162/4/4 169/4/4
f 168/1/4 167/1/4 169/1/4
f 169/4/4 162/4/4 170/4/4
f 171/1/4 172/1/4 173/1/4
f 173/1/4 172/1/4 174/1/4
f 179/1/5 176/1/5 175/1/5
f 180/1/5 176/1/5 179/1/5
f 181/1/5 178/1/5 177/1/5
f 182/1/5 178/1/5 181/1/5
f 187/1/5 184/1/5 183/1/5
f 188/1/5 184/1/5 187/1/5
f 189/1/5 186/1/5 185/1/5
f 190/1/5 186/1/5 189/1/5
f 194/4/5 192/4/5 191/4/5
f 195/4/5 192/4/5 194/4/5
f 197/4/5 194/4/5 193/4/5
f 197/4/5 196/4/5 195/4/5
f 197/4/5 195/4/5 194/4/5
f 198/4/5 196/4/5 197/4/5
f 199/4/5 196/4/5 198/4/5
f 200/4/5 196/4/5 199/4/5
f 201/4/5 199/4/5 198/4/5
f 202/4/5 199/4/5 201/4/5
f 207/1/5 206/1/5 205/1/5
f 208/1/5 206/1/5 207/1/5
f 209/4/5 204/4/5 203/4/5
f 210/4/5 204/4/5 209/4/5
f 213/2/5 212/2/5 211/2/5
f 214/2/5 212/2/5 213/2/5
f 215/4/5 214/4/5 213/4/5
f 216/4/5 214/4/5 215/4/5
f 217/2/5 216/2/5 215/2/5
f 218/2/5 216/2/5 217/2/5
f 221/1/5 220/1/5 219/1/5
f 222/1/5 220/1/5 221/1/5
f 225/1/5 224/1/5 223/1/5
f 226/1/5 224/1/5 225/1/5
f 227/4/6 228/4/6 229/4/6
f 227/4/6 229/4/6 231/4/6
f 229/1/6 230/1/6 231/1/6
f 231/1/6 230/1/6 232/1/6
f 227/4/6 231/4/6 233/4/6
f 233/4/6 231/4/6 234/4/6
f 235/4/6 236/4/6 237/4/6
f 235/4/6 237/4/6 241/4/6
f 237/4/6 238/4/6 241/4/6
f 241/4/6 238/4/6 242/4/6
f 239/1/6 240/1/6 243/1/6
f 243/1/6 240/1/6 244/1/6
f 235/4/6 241/4/6 245/4/6
f 245/4/6 241/4/6 246/4/6
f 247/1/6 248/1/6 249/1/6
f 249/1/6 248/1/6 250/1/6
f 251/1/6 252/1/6 253/1/6
f 253/1/6 252/1/6 254/1/6
